%TF.GenerationSoftware,KiCad,Pcbnew,6.0.8-f2edbf62ab~116~ubuntu22.04.1*%
%TF.CreationDate,2022-10-18T22:53:01+02:00*%
%TF.ProjectId,ble-han-port-if,626c652d-6861-46e2-9d70-6f72742d6966,rev?*%
%TF.SameCoordinates,Original*%
%TF.FileFunction,Copper,L1,Top*%
%TF.FilePolarity,Positive*%
%FSLAX46Y46*%
G04 Gerber Fmt 4.6, Leading zero omitted, Abs format (unit mm)*
G04 Created by KiCad (PCBNEW 6.0.8-f2edbf62ab~116~ubuntu22.04.1) date 2022-10-18 22:53:01*
%MOMM*%
%LPD*%
G01*
G04 APERTURE LIST*
G04 Aperture macros list*
%AMRoundRect*
0 Rectangle with rounded corners*
0 $1 Rounding radius*
0 $2 $3 $4 $5 $6 $7 $8 $9 X,Y pos of 4 corners*
0 Add a 4 corners polygon primitive as box body*
4,1,4,$2,$3,$4,$5,$6,$7,$8,$9,$2,$3,0*
0 Add four circle primitives for the rounded corners*
1,1,$1+$1,$2,$3*
1,1,$1+$1,$4,$5*
1,1,$1+$1,$6,$7*
1,1,$1+$1,$8,$9*
0 Add four rect primitives between the rounded corners*
20,1,$1+$1,$2,$3,$4,$5,0*
20,1,$1+$1,$4,$5,$6,$7,0*
20,1,$1+$1,$6,$7,$8,$9,0*
20,1,$1+$1,$8,$9,$2,$3,0*%
G04 Aperture macros list end*
%TA.AperFunction,ComponentPad*%
%ADD10R,1.700000X1.700000*%
%TD*%
%TA.AperFunction,ComponentPad*%
%ADD11O,1.700000X1.700000*%
%TD*%
%TA.AperFunction,SMDPad,CuDef*%
%ADD12RoundRect,0.250000X0.262500X0.450000X-0.262500X0.450000X-0.262500X-0.450000X0.262500X-0.450000X0*%
%TD*%
%TA.AperFunction,SMDPad,CuDef*%
%ADD13RoundRect,0.250000X-0.262500X-0.450000X0.262500X-0.450000X0.262500X0.450000X-0.262500X0.450000X0*%
%TD*%
%TA.AperFunction,SMDPad,CuDef*%
%ADD14RoundRect,0.250000X0.450000X-0.350000X0.450000X0.350000X-0.450000X0.350000X-0.450000X-0.350000X0*%
%TD*%
%TA.AperFunction,SMDPad,CuDef*%
%ADD15RoundRect,0.250000X-0.350000X-0.450000X0.350000X-0.450000X0.350000X0.450000X-0.350000X0.450000X0*%
%TD*%
%TA.AperFunction,SMDPad,CuDef*%
%ADD16RoundRect,0.250000X0.350000X0.450000X-0.350000X0.450000X-0.350000X-0.450000X0.350000X-0.450000X0*%
%TD*%
%TA.AperFunction,SMDPad,CuDef*%
%ADD17RoundRect,0.150000X-0.150000X0.587500X-0.150000X-0.587500X0.150000X-0.587500X0.150000X0.587500X0*%
%TD*%
%TA.AperFunction,SMDPad,CuDef*%
%ADD18R,0.900000X1.500000*%
%TD*%
%TA.AperFunction,SMDPad,CuDef*%
%ADD19R,4.000000X4.000000*%
%TD*%
%TA.AperFunction,SMDPad,CuDef*%
%ADD20RoundRect,0.250000X-0.337500X-0.475000X0.337500X-0.475000X0.337500X0.475000X-0.337500X0.475000X0*%
%TD*%
%TA.AperFunction,ComponentPad*%
%ADD21R,1.700000X2.500000*%
%TD*%
%TA.AperFunction,ComponentPad*%
%ADD22O,1.700000X2.500000*%
%TD*%
%TA.AperFunction,SMDPad,CuDef*%
%ADD23RoundRect,0.250000X0.475000X-0.337500X0.475000X0.337500X-0.475000X0.337500X-0.475000X-0.337500X0*%
%TD*%
%TA.AperFunction,SMDPad,CuDef*%
%ADD24RoundRect,0.250000X0.337500X0.475000X-0.337500X0.475000X-0.337500X-0.475000X0.337500X-0.475000X0*%
%TD*%
%TA.AperFunction,ViaPad*%
%ADD25C,0.800000*%
%TD*%
%TA.AperFunction,Conductor*%
%ADD26C,0.250000*%
%TD*%
%TA.AperFunction,Conductor*%
%ADD27C,1.000000*%
%TD*%
%TA.AperFunction,Conductor*%
%ADD28C,0.500000*%
%TD*%
G04 APERTURE END LIST*
D10*
%TO.P,C8,1*%
%TO.N,+3V3*%
X137025000Y-116600000D03*
D11*
%TO.P,C8,2*%
%TO.N,GND*%
X134485000Y-116600000D03*
%TD*%
D10*
%TO.P,J2,1,Pin_1*%
%TO.N,+3V3*%
X142000000Y-86400000D03*
D11*
%TO.P,J2,2,Pin_2*%
%TO.N,/USB D-*%
X144540000Y-86400000D03*
%TO.P,J2,3,Pin_3*%
%TO.N,/USB D+*%
X147080000Y-86400000D03*
%TO.P,J2,4,Pin_4*%
%TO.N,GND*%
X149620000Y-86400000D03*
%TD*%
D12*
%TO.P,R9,1*%
%TO.N,Net-(J1-Pad3)*%
X149812500Y-96600000D03*
%TO.P,R9,2*%
%TO.N,/ledb*%
X147987500Y-96600000D03*
%TD*%
D13*
%TO.P,R8,1*%
%TO.N,/leda*%
X142787500Y-96700000D03*
%TO.P,R8,2*%
%TO.N,Net-(J1-Pad1)*%
X144612500Y-96700000D03*
%TD*%
D14*
%TO.P,R7,1*%
%TO.N,Net-(Q1-Pad3)*%
X147500000Y-106400000D03*
%TO.P,R7,2*%
%TO.N,+3V3*%
X147500000Y-104400000D03*
%TD*%
D15*
%TO.P,R5,1*%
%TO.N,Net-(R5-Pad1)*%
X132400000Y-86600000D03*
%TO.P,R5,2*%
%TO.N,/USB D+*%
X134400000Y-86600000D03*
%TD*%
D13*
%TO.P,R2,1*%
%TO.N,+3V3*%
X128187500Y-86700000D03*
%TO.P,R2,2*%
%TO.N,Net-(R2-Pad2)*%
X130012500Y-86700000D03*
%TD*%
D11*
%TO.P,J3,6,Pin_6*%
%TO.N,GND*%
X154400000Y-106950000D03*
%TO.P,J3,5,Pin_5*%
%TO.N,/TX*%
X154400000Y-104410000D03*
%TO.P,J3,4,Pin_4*%
%TO.N,unconnected-(J3-Pad4)*%
X154400000Y-101870000D03*
%TO.P,J3,3,Pin_3*%
%TO.N,GND*%
X154400000Y-99330000D03*
%TO.P,J3,2,Pin_2*%
%TO.N,+5V*%
X154400000Y-96790000D03*
D10*
%TO.P,J3,1,Pin_1*%
X154400000Y-94250000D03*
%TD*%
D16*
%TO.P,R4,1*%
%TO.N,Net-(R4-Pad1)*%
X138600000Y-86600000D03*
%TO.P,R4,2*%
%TO.N,/USB D-*%
X136600000Y-86600000D03*
%TD*%
D17*
%TO.P,Q1,1,B*%
%TO.N,/TX*%
X151550000Y-104462500D03*
%TO.P,Q1,2,E*%
%TO.N,GND*%
X149650000Y-104462500D03*
%TO.P,Q1,3,C*%
%TO.N,Net-(Q1-Pad3)*%
X150600000Y-106337500D03*
%TD*%
D18*
%TO.P,U1,1,3V3*%
%TO.N,+3V3*%
X127900000Y-107550000D03*
%TO.P,U1,2,EN*%
%TO.N,/reset*%
X129400000Y-107550000D03*
%TO.P,U1,3,IO4*%
%TO.N,unconnected-(U1-Pad3)*%
X130900000Y-107550000D03*
%TO.P,U1,4,IO5*%
%TO.N,unconnected-(U1-Pad4)*%
X132400000Y-107550000D03*
%TO.P,U1,5,IO6*%
%TO.N,unconnected-(U1-Pad5)*%
X133900000Y-107550000D03*
%TO.P,U1,6,IO7*%
%TO.N,unconnected-(U1-Pad6)*%
X135400000Y-107550000D03*
%TO.P,U1,7,IO8*%
%TO.N,Net-(R3-Pad2)*%
X136900000Y-107550000D03*
%TO.P,U1,8,IO9*%
%TO.N,unconnected-(U1-Pad8)*%
X138400000Y-107550000D03*
%TO.P,U1,9,GND*%
%TO.N,GND*%
X139900000Y-107550000D03*
%TO.P,U1,10,IO10*%
%TO.N,unconnected-(U1-Pad10)*%
X139900000Y-90050000D03*
%TO.P,U1,11,RXD*%
%TO.N,/RXD*%
X138400000Y-90050000D03*
%TO.P,U1,12,TXD*%
%TO.N,unconnected-(U1-Pad12)*%
X136900000Y-90050000D03*
%TO.P,U1,13,IO18*%
%TO.N,Net-(R4-Pad1)*%
X135400000Y-90050000D03*
%TO.P,U1,14,IO19*%
%TO.N,Net-(R5-Pad1)*%
X133900000Y-90050000D03*
%TO.P,U1,15,IO3*%
%TO.N,unconnected-(U1-Pad15)*%
X132400000Y-90050000D03*
%TO.P,U1,16,IO2*%
%TO.N,Net-(R2-Pad2)*%
X130900000Y-90050000D03*
%TO.P,U1,17,IO1*%
%TO.N,/ledb*%
X129400000Y-90050000D03*
%TO.P,U1,18,IO0*%
%TO.N,/leda*%
X127900000Y-90050000D03*
D19*
%TO.P,U1,19,GND*%
%TO.N,GND*%
X134510000Y-97700000D03*
%TD*%
D10*
%TO.P,J1,1,Pin_1*%
%TO.N,Net-(J1-Pad1)*%
X143800000Y-93600000D03*
D11*
%TO.P,J1,2,Pin_2*%
%TO.N,GND*%
X146340000Y-93600000D03*
%TO.P,J1,3,Pin_3*%
%TO.N,Net-(J1-Pad3)*%
X148880000Y-93600000D03*
%TD*%
D15*
%TO.P,R1,2*%
%TO.N,/reset*%
X136800000Y-112800000D03*
%TO.P,R1,1*%
%TO.N,+3V3*%
X134800000Y-112800000D03*
%TD*%
D20*
%TO.P,C5,1*%
%TO.N,+3V3*%
X128262500Y-113600000D03*
%TO.P,C5,2*%
%TO.N,GND*%
X130337500Y-113600000D03*
%TD*%
%TO.P,C4,1*%
%TO.N,+3V3*%
X128262500Y-110000000D03*
%TO.P,C4,2*%
%TO.N,GND*%
X130337500Y-110000000D03*
%TD*%
D21*
%TO.P,U4,1,IN*%
%TO.N,+5V*%
X150002500Y-111292500D03*
D22*
%TO.P,U4,2,GND*%
%TO.N,GND*%
X152542500Y-111292500D03*
%TO.P,U4,3,OUT*%
%TO.N,+3V3*%
X155082500Y-111292500D03*
%TD*%
D23*
%TO.P,C2,1*%
%TO.N,+3V3*%
X157500000Y-107837500D03*
%TO.P,C2,2*%
%TO.N,GND*%
X157500000Y-105762500D03*
%TD*%
D24*
%TO.P,C6,1*%
%TO.N,/USB D-*%
X144675000Y-89400000D03*
%TO.P,C6,2*%
%TO.N,GND*%
X142600000Y-89400000D03*
%TD*%
D20*
%TO.P,C3,1*%
%TO.N,/reset*%
X134762500Y-110650000D03*
%TO.P,C3,2*%
%TO.N,GND*%
X136837500Y-110650000D03*
%TD*%
D14*
%TO.P,R3,1*%
%TO.N,+3V3*%
X132600000Y-112500000D03*
%TO.P,R3,2*%
%TO.N,Net-(R3-Pad2)*%
X132600000Y-110500000D03*
%TD*%
D20*
%TO.P,C7,1*%
%TO.N,/USB D+*%
X147162500Y-89400000D03*
%TO.P,C7,2*%
%TO.N,GND*%
X149237500Y-89400000D03*
%TD*%
D24*
%TO.P,C1,1*%
%TO.N,+5V*%
X145137500Y-111300000D03*
%TO.P,C1,2*%
%TO.N,GND*%
X143062500Y-111300000D03*
%TD*%
D14*
%TO.P,R6,1*%
%TO.N,/TX*%
X151200000Y-102100000D03*
%TO.P,R6,2*%
%TO.N,+5V*%
X151200000Y-100100000D03*
%TD*%
D25*
%TO.N,GND*%
X127650000Y-88300000D03*
X133800000Y-91800000D03*
X139300000Y-94750000D03*
X138800000Y-100100000D03*
X128800000Y-95250000D03*
X127150000Y-117450000D03*
X123900000Y-114300000D03*
X147950000Y-117100000D03*
X157350000Y-116950000D03*
X135900000Y-97700000D03*
X134500000Y-98800000D03*
X134500000Y-96700000D03*
X133300000Y-97700000D03*
X134500000Y-97800000D03*
X133200000Y-98900000D03*
X135900000Y-98900000D03*
X135900000Y-96700000D03*
X133300000Y-96700000D03*
%TO.N,/ledb*%
X132600000Y-92900000D03*
X135400000Y-93200000D03*
%TO.N,/leda*%
X131600000Y-94400000D03*
X133700000Y-94900000D03*
%TO.N,Net-(R4-Pad1)*%
X140000000Y-86600000D03*
X137700000Y-88650000D03*
%TO.N,Net-(R5-Pad1)*%
X132400000Y-88700000D03*
X132400000Y-85100000D03*
%TO.N,GND*%
X149600000Y-102900000D03*
X129900000Y-111700000D03*
X139900000Y-109200000D03*
X143100000Y-112900000D03*
X142300000Y-91000000D03*
X150700000Y-89500000D03*
%TD*%
D26*
%TO.N,Net-(R4-Pad1)*%
X135400000Y-89100000D02*
X135850000Y-88650000D01*
X135850000Y-88650000D02*
X137700000Y-88650000D01*
D27*
%TO.N,+3V3*%
X135900000Y-114400000D02*
X135900000Y-115475000D01*
X135900000Y-115475000D02*
X137025000Y-116600000D01*
D26*
%TO.N,/reset*%
X130863173Y-108900000D02*
X131456587Y-109493413D01*
X131456587Y-109493413D02*
X131456587Y-111106587D01*
X131925000Y-111575000D02*
X133837500Y-111575000D01*
X131456587Y-111106587D02*
X131925000Y-111575000D01*
D27*
%TO.N,+5V*%
X145137500Y-111300000D02*
X145137500Y-111218997D01*
X145137500Y-111218997D02*
X143600000Y-109681497D01*
X143600000Y-109681497D02*
X143600000Y-104400000D01*
X143600000Y-104400000D02*
X147900000Y-100100000D01*
X147900000Y-100100000D02*
X151200000Y-100100000D01*
%TO.N,+3V3*%
X145300000Y-108250000D02*
X145300000Y-105250000D01*
X153050000Y-108450000D02*
X145500000Y-108450000D01*
X155082500Y-111292500D02*
X155082500Y-110482500D01*
X155082500Y-110482500D02*
X153050000Y-108450000D01*
X145500000Y-108450000D02*
X145300000Y-108250000D01*
X145300000Y-105250000D02*
X146150000Y-104400000D01*
X146150000Y-104400000D02*
X147500000Y-104400000D01*
D26*
%TO.N,/ledb*%
X144950000Y-92400000D02*
X142300000Y-92400000D01*
X142000000Y-92400000D02*
X141100000Y-93300000D01*
X144975000Y-92425000D02*
X144950000Y-92400000D01*
X144975000Y-93896701D02*
X144975000Y-92425000D01*
X147678299Y-96600000D02*
X144975000Y-93896701D01*
X142300000Y-92400000D02*
X142000000Y-92400000D01*
X135500000Y-93300000D02*
X135400000Y-93200000D01*
X147987500Y-96600000D02*
X147678299Y-96600000D01*
X141100000Y-93300000D02*
X135500000Y-93300000D01*
X132600000Y-92900000D02*
X131200000Y-92900000D01*
X131200000Y-92900000D02*
X129400000Y-91100000D01*
X129400000Y-91100000D02*
X129400000Y-90050000D01*
%TO.N,/leda*%
X137000000Y-94900000D02*
X133700000Y-94900000D01*
X131600000Y-94400000D02*
X127900000Y-90700000D01*
X138800000Y-96700000D02*
X137400000Y-95300000D01*
X139500000Y-96700000D02*
X139100000Y-96700000D01*
X142787500Y-96700000D02*
X139500000Y-96700000D01*
X127900000Y-90700000D02*
X127900000Y-90050000D01*
X139100000Y-96700000D02*
X138800000Y-96700000D01*
X137400000Y-95300000D02*
X137000000Y-94900000D01*
%TO.N,Net-(J1-Pad1)*%
X144612500Y-96700000D02*
X143800000Y-95887500D01*
X143800000Y-95887500D02*
X143800000Y-93600000D01*
%TO.N,Net-(J1-Pad3)*%
X148880000Y-93600000D02*
X148880000Y-95667500D01*
X148880000Y-95667500D02*
X149812500Y-96600000D01*
%TO.N,/reset*%
X134762500Y-110650000D02*
X133837500Y-111575000D01*
X130863173Y-108900000D02*
X129800000Y-108900000D01*
X134762500Y-110650000D02*
X134762500Y-110762500D01*
X134762500Y-110762500D02*
X136800000Y-112800000D01*
%TO.N,Net-(R3-Pad2)*%
X132600000Y-110500000D02*
X134100000Y-109000000D01*
X134100000Y-109000000D02*
X136700000Y-109000000D01*
X136700000Y-109000000D02*
X136900000Y-108800000D01*
X136900000Y-108800000D02*
X136900000Y-107550000D01*
%TO.N,/reset*%
X129400000Y-107550000D02*
X129400000Y-108500000D01*
X129400000Y-108500000D02*
X129800000Y-108900000D01*
%TO.N,/TX*%
X151200000Y-102100000D02*
X151550000Y-102450000D01*
X151550000Y-102450000D02*
X151550000Y-104462500D01*
%TO.N,Net-(Q1-Pad3)*%
X150600000Y-106337500D02*
X147562500Y-106337500D01*
X147562500Y-106337500D02*
X147500000Y-106400000D01*
%TO.N,/TX*%
X151550000Y-104462500D02*
X151602500Y-104410000D01*
X151602500Y-104410000D02*
X154400000Y-104410000D01*
%TO.N,Net-(R4-Pad1)*%
X138600000Y-86600000D02*
X140000000Y-86600000D01*
%TO.N,/USB D+*%
X147080000Y-86400000D02*
X147080000Y-85080000D01*
X135400000Y-84600000D02*
X134400000Y-85600000D01*
X147080000Y-85080000D02*
X146600000Y-84600000D01*
X146600000Y-84600000D02*
X135400000Y-84600000D01*
X134400000Y-85600000D02*
X134400000Y-86600000D01*
%TO.N,/USB D-*%
X144540000Y-86400000D02*
X144540000Y-85740000D01*
X144540000Y-85740000D02*
X143850000Y-85050000D01*
X143850000Y-85050000D02*
X137550000Y-85050000D01*
X137550000Y-85050000D02*
X136600000Y-86000000D01*
X136600000Y-86000000D02*
X136600000Y-86600000D01*
X144540000Y-86400000D02*
X144540000Y-89265000D01*
X144540000Y-89265000D02*
X144675000Y-89400000D01*
%TO.N,/USB D+*%
X147080000Y-86400000D02*
X147080000Y-89317500D01*
X147080000Y-89317500D02*
X147162500Y-89400000D01*
%TO.N,Net-(R4-Pad1)*%
X135400000Y-89100000D02*
X135400000Y-90050000D01*
%TO.N,Net-(R5-Pad1)*%
X132400000Y-85100000D02*
X132400000Y-86600000D01*
X133900000Y-89800000D02*
X132800000Y-88700000D01*
X133900000Y-90050000D02*
X133900000Y-89800000D01*
X132800000Y-88700000D02*
X132400000Y-88700000D01*
%TO.N,Net-(R2-Pad2)*%
X130900000Y-90050000D02*
X130900000Y-89750000D01*
X130900000Y-89750000D02*
X130012500Y-88862500D01*
X130012500Y-88862500D02*
X130012500Y-86700000D01*
D28*
%TO.N,GND*%
X142600000Y-89400000D02*
X142600000Y-90700000D01*
X142600000Y-90700000D02*
X142300000Y-91000000D01*
X150700000Y-89500000D02*
X149337500Y-89500000D01*
X149337500Y-89500000D02*
X149237500Y-89400000D01*
X149237500Y-89400000D02*
X149237500Y-86782500D01*
X149237500Y-86782500D02*
X149620000Y-86400000D01*
X149600000Y-102900000D02*
X149600000Y-104412500D01*
X149600000Y-104412500D02*
X149650000Y-104462500D01*
X154400000Y-106950000D02*
X156312500Y-106950000D01*
X156312500Y-106950000D02*
X157500000Y-105762500D01*
D27*
%TO.N,+3V3*%
X135900000Y-114400000D02*
X154000000Y-114400000D01*
D28*
X134800000Y-112800000D02*
X134800000Y-113300000D01*
D27*
X134800000Y-113300000D02*
X135900000Y-114400000D01*
X154000000Y-114400000D02*
X155082500Y-113317500D01*
X155082500Y-113317500D02*
X155082500Y-111292500D01*
D28*
%TO.N,GND*%
X143062500Y-111300000D02*
X143062500Y-112862500D01*
X143062500Y-112862500D02*
X143100000Y-112900000D01*
X139900000Y-109200000D02*
X139900000Y-107550000D01*
X136837500Y-110650000D02*
X138450000Y-110650000D01*
X138450000Y-110650000D02*
X139900000Y-109200000D01*
X130337500Y-110000000D02*
X129850000Y-110487500D01*
X129850000Y-110487500D02*
X129850000Y-113112500D01*
X129850000Y-113112500D02*
X130337500Y-113600000D01*
%TO.N,+3V3*%
X139450000Y-87750000D02*
X140650000Y-87750000D01*
X140650000Y-87750000D02*
X142000000Y-86400000D01*
X127900000Y-107550000D02*
X127900000Y-99410000D01*
X131000000Y-85600000D02*
X130700000Y-85300000D01*
X127900000Y-99410000D02*
X135110000Y-92200000D01*
X135110000Y-92200000D02*
X140500000Y-92200000D01*
X140500000Y-92200000D02*
X141000000Y-91700000D01*
X141000000Y-91700000D02*
X141000000Y-89300000D01*
X141000000Y-89300000D02*
X139450000Y-87750000D01*
X139450000Y-87750000D02*
X131760051Y-87750000D01*
X129587500Y-85300000D02*
X128187500Y-86700000D01*
X131760051Y-87750000D02*
X131000000Y-86989949D01*
X131000000Y-86989949D02*
X131000000Y-85600000D01*
X130700000Y-85300000D02*
X129587500Y-85300000D01*
D27*
X132600000Y-112500000D02*
X134500000Y-112500000D01*
X134500000Y-112500000D02*
X134800000Y-112800000D01*
X128700000Y-115700000D02*
X131800000Y-115700000D01*
X131800000Y-115700000D02*
X132600000Y-114900000D01*
X128262500Y-113600000D02*
X128262500Y-115262500D01*
X128262500Y-115262500D02*
X128700000Y-115700000D01*
X132600000Y-114900000D02*
X132600000Y-112500000D01*
X128262500Y-110000000D02*
X128262500Y-113600000D01*
D28*
X128262500Y-110000000D02*
X128262500Y-109362500D01*
X128262500Y-109362500D02*
X127900000Y-109000000D01*
X127900000Y-109000000D02*
X127900000Y-107550000D01*
D27*
%TO.N,+5V*%
X154400000Y-96790000D02*
X152210000Y-96790000D01*
X152210000Y-96790000D02*
X151200000Y-97800000D01*
X151200000Y-97800000D02*
X151200000Y-100100000D01*
X154400000Y-94250000D02*
X154400000Y-96790000D01*
X150002500Y-111292500D02*
X145145000Y-111292500D01*
X145145000Y-111292500D02*
X145137500Y-111300000D01*
%TO.N,+3V3*%
X155082500Y-111292500D02*
X156807500Y-111292500D01*
X156807500Y-111292500D02*
X157500000Y-110600000D01*
X157500000Y-110600000D02*
X157500000Y-107837500D01*
%TD*%
%TA.AperFunction,Conductor*%
%TO.N,GND*%
G36*
X159133621Y-84828502D02*
G01*
X159180114Y-84882158D01*
X159191500Y-84934500D01*
X159191500Y-90325008D01*
X159171498Y-90393129D01*
X159117842Y-90439622D01*
X159085886Y-90449348D01*
X159070225Y-90451915D01*
X159012618Y-90461359D01*
X159012609Y-90461361D01*
X159009254Y-90461911D01*
X158952203Y-90477751D01*
X158677311Y-90554074D01*
X158677308Y-90554075D01*
X158674016Y-90554989D01*
X158350807Y-90683768D01*
X158043416Y-90846736D01*
X158040601Y-90848644D01*
X158040597Y-90848647D01*
X157758272Y-91040068D01*
X157758265Y-91040074D01*
X157755447Y-91041984D01*
X157729928Y-91063660D01*
X157508827Y-91251466D01*
X157490276Y-91267223D01*
X157251012Y-91519811D01*
X157040460Y-91796787D01*
X157038697Y-91799717D01*
X157038695Y-91799720D01*
X156869078Y-92081625D01*
X156861088Y-92094904D01*
X156715001Y-92410668D01*
X156603910Y-92740375D01*
X156529117Y-93080160D01*
X156528747Y-93083559D01*
X156528746Y-93083567D01*
X156509877Y-93257068D01*
X156491500Y-93426040D01*
X156491500Y-93773960D01*
X156505209Y-93900010D01*
X156527884Y-94108500D01*
X156529117Y-94119840D01*
X156529853Y-94123183D01*
X156529853Y-94123184D01*
X156537547Y-94158136D01*
X156603910Y-94459625D01*
X156605001Y-94462864D01*
X156605003Y-94462870D01*
X156620124Y-94507747D01*
X156715001Y-94789332D01*
X156861088Y-95105096D01*
X156862842Y-95108011D01*
X156862844Y-95108015D01*
X157038695Y-95400280D01*
X157040460Y-95403213D01*
X157117356Y-95504368D01*
X157244034Y-95671009D01*
X157251012Y-95680189D01*
X157490276Y-95932777D01*
X157492872Y-95934982D01*
X157492873Y-95934983D01*
X157506216Y-95946317D01*
X157755447Y-96158016D01*
X157758265Y-96159926D01*
X157758272Y-96159932D01*
X158039637Y-96350702D01*
X158043416Y-96353264D01*
X158350807Y-96516232D01*
X158674016Y-96645011D01*
X158677308Y-96645925D01*
X158677311Y-96645926D01*
X158817579Y-96684871D01*
X159009254Y-96738089D01*
X159012609Y-96738639D01*
X159012618Y-96738641D01*
X159064834Y-96747201D01*
X159085885Y-96750652D01*
X159149872Y-96781411D01*
X159187072Y-96841882D01*
X159191500Y-96874992D01*
X159191500Y-98825008D01*
X159171498Y-98893129D01*
X159117842Y-98939622D01*
X159085886Y-98949348D01*
X159070225Y-98951915D01*
X159012618Y-98961359D01*
X159012609Y-98961361D01*
X159009254Y-98961911D01*
X158879813Y-98997850D01*
X158677311Y-99054074D01*
X158677308Y-99054075D01*
X158674016Y-99054989D01*
X158350807Y-99183768D01*
X158043416Y-99346736D01*
X158040601Y-99348644D01*
X158040597Y-99348647D01*
X157758272Y-99540068D01*
X157758265Y-99540074D01*
X157755447Y-99541984D01*
X157701305Y-99587973D01*
X157516829Y-99744669D01*
X157490276Y-99767223D01*
X157251012Y-100019811D01*
X157040460Y-100296787D01*
X157038697Y-100299717D01*
X157038695Y-100299720D01*
X156924687Y-100489203D01*
X156861088Y-100594904D01*
X156715001Y-100910668D01*
X156665995Y-101056114D01*
X156617051Y-101201375D01*
X156603910Y-101240375D01*
X156529117Y-101580160D01*
X156528747Y-101583559D01*
X156528746Y-101583567D01*
X156524816Y-101619707D01*
X156491500Y-101926040D01*
X156491500Y-102273960D01*
X156509877Y-102442932D01*
X156528341Y-102612704D01*
X156529117Y-102619840D01*
X156603910Y-102959625D01*
X156605001Y-102962864D01*
X156605003Y-102962870D01*
X156635421Y-103053146D01*
X156715001Y-103289332D01*
X156861088Y-103605096D01*
X156862842Y-103608011D01*
X156862844Y-103608015D01*
X157001604Y-103838634D01*
X157040460Y-103903213D01*
X157251012Y-104180189D01*
X157490276Y-104432777D01*
X157709572Y-104619049D01*
X157748541Y-104678393D01*
X157754000Y-104715080D01*
X157754000Y-105490385D01*
X157758475Y-105505624D01*
X157759865Y-105506829D01*
X157767548Y-105508500D01*
X158714884Y-105508500D01*
X158730123Y-105504025D01*
X158731328Y-105502635D01*
X158732999Y-105494952D01*
X158732999Y-105377905D01*
X158732661Y-105371383D01*
X158729294Y-105338923D01*
X158742160Y-105269102D01*
X158790731Y-105217320D01*
X158859588Y-105200019D01*
X158888324Y-105204513D01*
X159009254Y-105238089D01*
X159085885Y-105250652D01*
X159149872Y-105281411D01*
X159187072Y-105341882D01*
X159191500Y-105374992D01*
X159191500Y-118165500D01*
X159171498Y-118233621D01*
X159117842Y-118280114D01*
X159065500Y-118291500D01*
X115834500Y-118291500D01*
X115766379Y-118271498D01*
X115719886Y-118217842D01*
X115708500Y-118165500D01*
X115708500Y-116867966D01*
X133153257Y-116867966D01*
X133183565Y-117002446D01*
X133186645Y-117012275D01*
X133266770Y-117209603D01*
X133271413Y-117218794D01*
X133382694Y-117400388D01*
X133388777Y-117408699D01*
X133528213Y-117569667D01*
X133535580Y-117576883D01*
X133699434Y-117712916D01*
X133707881Y-117718831D01*
X133891756Y-117826279D01*
X133901042Y-117830729D01*
X134100001Y-117906703D01*
X134109899Y-117909579D01*
X134213250Y-117930606D01*
X134227299Y-117929410D01*
X134231000Y-117919065D01*
X134231000Y-116872115D01*
X134226525Y-116856876D01*
X134225135Y-116855671D01*
X134217452Y-116854000D01*
X133168225Y-116854000D01*
X133154694Y-116857973D01*
X133153257Y-116867966D01*
X115708500Y-116867966D01*
X115708500Y-115042277D01*
X118137009Y-115042277D01*
X118162625Y-115310769D01*
X118163710Y-115315203D01*
X118163711Y-115315209D01*
X118210868Y-115507923D01*
X118226731Y-115572750D01*
X118327985Y-115822733D01*
X118464265Y-116055482D01*
X118538232Y-116147973D01*
X118584686Y-116206060D01*
X118632716Y-116266119D01*
X118829809Y-116450234D01*
X119051416Y-116603968D01*
X119055499Y-116605999D01*
X119055502Y-116606001D01*
X119129130Y-116642630D01*
X119292894Y-116724101D01*
X119297228Y-116725522D01*
X119297231Y-116725523D01*
X119544853Y-116806698D01*
X119544859Y-116806699D01*
X119549186Y-116808118D01*
X119553677Y-116808898D01*
X119553678Y-116808898D01*
X119811140Y-116853601D01*
X119811148Y-116853602D01*
X119814921Y-116854257D01*
X119818758Y-116854448D01*
X119898578Y-116858422D01*
X119898586Y-116858422D01*
X119900149Y-116858500D01*
X120068512Y-116858500D01*
X120070780Y-116858335D01*
X120070792Y-116858335D01*
X120201884Y-116848823D01*
X120269004Y-116843953D01*
X120273459Y-116842969D01*
X120273462Y-116842969D01*
X120527912Y-116786791D01*
X120527916Y-116786790D01*
X120532372Y-116785806D01*
X120658480Y-116738028D01*
X120780318Y-116691868D01*
X120780321Y-116691867D01*
X120784588Y-116690250D01*
X120959187Y-116593269D01*
X121016375Y-116561504D01*
X121016376Y-116561503D01*
X121020368Y-116559286D01*
X121156410Y-116455462D01*
X121231141Y-116398429D01*
X121231142Y-116398428D01*
X121234773Y-116395657D01*
X121250540Y-116379529D01*
X121420117Y-116206060D01*
X121423312Y-116202792D01*
X121582034Y-115984730D01*
X121666652Y-115823898D01*
X121705490Y-115750079D01*
X121705493Y-115750073D01*
X121707615Y-115746039D01*
X121723215Y-115701866D01*
X121795902Y-115496033D01*
X121795902Y-115496032D01*
X121797425Y-115491720D01*
X121827633Y-115338456D01*
X121848700Y-115231572D01*
X121848701Y-115231566D01*
X121849581Y-115227100D01*
X121850558Y-115207481D01*
X121862764Y-114962292D01*
X121862764Y-114962286D01*
X121862991Y-114957723D01*
X121837375Y-114689231D01*
X121792042Y-114503967D01*
X121774355Y-114431688D01*
X121773269Y-114427250D01*
X121672015Y-114177267D01*
X121535735Y-113944518D01*
X121417059Y-113796121D01*
X121370136Y-113737447D01*
X121370135Y-113737445D01*
X121367284Y-113733881D01*
X121170191Y-113549766D01*
X120948584Y-113396032D01*
X120944501Y-113394001D01*
X120944498Y-113393999D01*
X120791415Y-113317842D01*
X120707106Y-113275899D01*
X120702772Y-113274478D01*
X120702769Y-113274477D01*
X120455147Y-113193302D01*
X120455141Y-113193301D01*
X120450814Y-113191882D01*
X120446322Y-113191102D01*
X120188860Y-113146399D01*
X120188852Y-113146398D01*
X120185079Y-113145743D01*
X120173817Y-113145182D01*
X120101422Y-113141578D01*
X120101414Y-113141578D01*
X120099851Y-113141500D01*
X119931488Y-113141500D01*
X119929220Y-113141665D01*
X119929208Y-113141665D01*
X119798116Y-113151177D01*
X119730996Y-113156047D01*
X119726541Y-113157031D01*
X119726538Y-113157031D01*
X119472088Y-113213209D01*
X119472084Y-113213210D01*
X119467628Y-113214194D01*
X119341520Y-113261972D01*
X119219682Y-113308132D01*
X119219679Y-113308133D01*
X119215412Y-113309750D01*
X118979632Y-113440714D01*
X118976000Y-113443486D01*
X118805057Y-113573946D01*
X118765227Y-113604343D01*
X118762034Y-113607609D01*
X118762032Y-113607611D01*
X118752415Y-113617449D01*
X118576688Y-113797208D01*
X118417966Y-114015270D01*
X118391669Y-114065253D01*
X118294510Y-114249921D01*
X118294507Y-114249927D01*
X118292385Y-114253961D01*
X118290865Y-114258266D01*
X118290863Y-114258270D01*
X118229515Y-114431993D01*
X118202575Y-114508280D01*
X118150419Y-114772900D01*
X118150192Y-114777453D01*
X118150192Y-114777456D01*
X118138760Y-115007107D01*
X118137009Y-115042277D01*
X115708500Y-115042277D01*
X115708500Y-112926000D01*
X115728502Y-112857879D01*
X115782158Y-112811386D01*
X115834500Y-112800000D01*
X126800000Y-112800000D01*
X126800000Y-108658884D01*
X126820002Y-108590763D01*
X126873658Y-108544270D01*
X126943932Y-108534166D01*
X127008512Y-108563660D01*
X127026825Y-108583317D01*
X127086739Y-108663261D01*
X127093919Y-108668642D01*
X127100269Y-108674992D01*
X127098634Y-108676627D01*
X127133579Y-108723359D01*
X127141500Y-108767329D01*
X127141500Y-108932930D01*
X127140067Y-108951880D01*
X127136801Y-108973349D01*
X127137394Y-108980641D01*
X127137394Y-108980644D01*
X127141085Y-109026018D01*
X127141500Y-109036233D01*
X127141500Y-109044293D01*
X127142901Y-109056306D01*
X127144789Y-109072507D01*
X127145222Y-109076882D01*
X127150441Y-109141040D01*
X127151140Y-109149637D01*
X127153396Y-109156601D01*
X127154587Y-109162560D01*
X127155971Y-109168415D01*
X127156818Y-109175681D01*
X127181735Y-109244327D01*
X127183154Y-109248460D01*
X127187427Y-109261652D01*
X127189389Y-109332621D01*
X127187152Y-109340143D01*
X127177203Y-109370139D01*
X127176503Y-109376975D01*
X127176502Y-109376978D01*
X127175438Y-109387363D01*
X127166500Y-109474600D01*
X127166500Y-110525400D01*
X127166837Y-110528646D01*
X127166837Y-110528650D01*
X127169258Y-110551978D01*
X127177474Y-110631166D01*
X127179655Y-110637702D01*
X127179655Y-110637704D01*
X127192794Y-110677086D01*
X127233450Y-110798946D01*
X127237301Y-110805168D01*
X127240407Y-110811800D01*
X127238299Y-110812787D01*
X127254000Y-110867987D01*
X127254000Y-112732293D01*
X127238049Y-112788569D01*
X127239820Y-112789395D01*
X127236725Y-112796032D01*
X127232885Y-112802262D01*
X127177203Y-112970139D01*
X127176503Y-112976975D01*
X127176502Y-112976978D01*
X127173512Y-113006166D01*
X127166500Y-113074600D01*
X127166500Y-114125400D01*
X127166837Y-114128646D01*
X127166837Y-114128650D01*
X127171882Y-114177267D01*
X127177474Y-114231166D01*
X127179655Y-114237702D01*
X127179655Y-114237704D01*
X127200563Y-114300372D01*
X127233450Y-114398946D01*
X127237301Y-114405168D01*
X127240407Y-114411800D01*
X127238299Y-114412787D01*
X127254000Y-114467987D01*
X127254000Y-115200657D01*
X127253263Y-115214264D01*
X127250026Y-115244066D01*
X127249176Y-115251888D01*
X127249713Y-115258023D01*
X127253550Y-115301888D01*
X127253879Y-115306714D01*
X127254000Y-115309186D01*
X127254000Y-115312269D01*
X127254301Y-115315337D01*
X127258190Y-115355006D01*
X127258312Y-115356319D01*
X127261838Y-115396623D01*
X127266413Y-115448913D01*
X127267900Y-115454032D01*
X127268420Y-115459333D01*
X127295291Y-115548334D01*
X127295626Y-115549467D01*
X127317290Y-115624032D01*
X127321591Y-115638836D01*
X127324044Y-115643568D01*
X127325584Y-115648669D01*
X127328478Y-115654112D01*
X127369231Y-115730760D01*
X127369843Y-115731926D01*
X127409771Y-115808953D01*
X127412608Y-115814426D01*
X127415931Y-115818589D01*
X127418434Y-115823296D01*
X127477255Y-115895418D01*
X127477946Y-115896274D01*
X127509238Y-115935473D01*
X127511742Y-115937977D01*
X127512384Y-115938695D01*
X127516085Y-115943028D01*
X127543435Y-115976562D01*
X127548183Y-115980490D01*
X127548184Y-115980491D01*
X127578763Y-116005788D01*
X127587542Y-116013777D01*
X127943152Y-116369387D01*
X127952242Y-116379517D01*
X127975968Y-116409025D01*
X128014456Y-116441320D01*
X128018075Y-116444478D01*
X128019890Y-116446124D01*
X128022075Y-116448309D01*
X128024455Y-116450264D01*
X128024465Y-116450273D01*
X128055236Y-116475549D01*
X128056251Y-116476391D01*
X128066393Y-116484901D01*
X128127474Y-116536154D01*
X128132148Y-116538723D01*
X128136261Y-116542102D01*
X128141698Y-116545017D01*
X128141699Y-116545018D01*
X128218047Y-116585955D01*
X128219177Y-116586568D01*
X128300787Y-116631433D01*
X128305869Y-116633045D01*
X128310563Y-116635562D01*
X128399531Y-116662762D01*
X128400559Y-116663082D01*
X128489306Y-116691235D01*
X128494602Y-116691829D01*
X128499698Y-116693387D01*
X128592257Y-116702790D01*
X128593393Y-116702911D01*
X128627008Y-116706681D01*
X128639730Y-116708108D01*
X128639734Y-116708108D01*
X128643227Y-116708500D01*
X128646754Y-116708500D01*
X128647739Y-116708555D01*
X128653419Y-116709002D01*
X128682825Y-116711989D01*
X128690337Y-116712752D01*
X128690339Y-116712752D01*
X128696462Y-116713374D01*
X128742108Y-116709059D01*
X128753967Y-116708500D01*
X131738157Y-116708500D01*
X131751764Y-116709237D01*
X131783262Y-116712659D01*
X131783267Y-116712659D01*
X131789388Y-116713324D01*
X131815638Y-116711027D01*
X131839388Y-116708950D01*
X131844214Y-116708621D01*
X131846686Y-116708500D01*
X131849769Y-116708500D01*
X131861738Y-116707326D01*
X131892506Y-116704310D01*
X131893819Y-116704188D01*
X131938084Y-116700315D01*
X131986413Y-116696087D01*
X131991532Y-116694600D01*
X131996833Y-116694080D01*
X132085834Y-116667209D01*
X132086967Y-116666874D01*
X132170414Y-116642630D01*
X132170418Y-116642628D01*
X132176336Y-116640909D01*
X132181068Y-116638456D01*
X132186169Y-116636916D01*
X132193173Y-116633192D01*
X132268260Y-116593269D01*
X132269426Y-116592657D01*
X132346453Y-116552729D01*
X132351926Y-116549892D01*
X132356089Y-116546569D01*
X132360796Y-116544066D01*
X132432918Y-116485245D01*
X132433774Y-116484554D01*
X132472973Y-116453262D01*
X132475477Y-116450758D01*
X132476195Y-116450116D01*
X132480528Y-116446415D01*
X132514062Y-116419065D01*
X132543291Y-116383733D01*
X132551272Y-116374963D01*
X133058110Y-115868125D01*
X133120422Y-115834100D01*
X133191237Y-115839164D01*
X133248073Y-115881711D01*
X133272884Y-115948231D01*
X133261493Y-116010270D01*
X133208338Y-116124783D01*
X133204775Y-116134470D01*
X133149389Y-116334183D01*
X133150912Y-116342607D01*
X133163292Y-116346000D01*
X134212885Y-116346000D01*
X134228124Y-116341525D01*
X134229329Y-116340135D01*
X134231000Y-116332452D01*
X134231000Y-115283102D01*
X134227082Y-115269758D01*
X134212806Y-115267771D01*
X134174324Y-115273660D01*
X134164288Y-115276051D01*
X133961868Y-115342212D01*
X133952359Y-115346209D01*
X133763463Y-115444542D01*
X133754745Y-115450032D01*
X133701287Y-115490170D01*
X133634802Y-115515076D01*
X133565406Y-115500084D01*
X133515132Y-115449954D01*
X133499941Y-115380602D01*
X133515217Y-115328711D01*
X133527309Y-115306714D01*
X133531433Y-115299213D01*
X133533045Y-115294131D01*
X133535562Y-115289437D01*
X133562747Y-115200523D01*
X133563139Y-115199265D01*
X133589372Y-115116567D01*
X133591235Y-115110694D01*
X133591829Y-115105403D01*
X133593388Y-115100302D01*
X133602790Y-115007737D01*
X133602925Y-115006470D01*
X133608108Y-114960270D01*
X133608108Y-114960265D01*
X133608500Y-114956773D01*
X133608500Y-114953248D01*
X133608555Y-114952263D01*
X133609004Y-114946559D01*
X133612752Y-114909666D01*
X133612752Y-114909661D01*
X133613374Y-114903538D01*
X133609059Y-114857891D01*
X133608500Y-114846033D01*
X133608500Y-113774688D01*
X133628502Y-113706567D01*
X133682158Y-113660074D01*
X133752432Y-113649970D01*
X133817012Y-113679464D01*
X133841643Y-113708383D01*
X133851522Y-113724348D01*
X133856705Y-113729522D01*
X133904937Y-113777671D01*
X133927782Y-113808856D01*
X133940815Y-113833998D01*
X133950108Y-113851926D01*
X134046738Y-113972973D01*
X134465772Y-114392006D01*
X134854595Y-114780829D01*
X134888620Y-114843142D01*
X134891500Y-114869925D01*
X134891500Y-115142532D01*
X134871498Y-115210653D01*
X134817842Y-115257146D01*
X134774367Y-115262658D01*
X134774843Y-115266996D01*
X134743540Y-115270432D01*
X134739000Y-115284989D01*
X134739000Y-117918517D01*
X134743064Y-117932359D01*
X134756478Y-117934393D01*
X134763184Y-117933534D01*
X134773262Y-117931392D01*
X134977255Y-117870191D01*
X134986842Y-117866433D01*
X135178095Y-117772739D01*
X135186945Y-117767464D01*
X135360328Y-117643792D01*
X135368193Y-117637145D01*
X135472897Y-117532805D01*
X135535268Y-117498889D01*
X135606075Y-117504077D01*
X135662837Y-117546723D01*
X135679819Y-117577826D01*
X135724385Y-117696705D01*
X135811739Y-117813261D01*
X135928295Y-117900615D01*
X136064684Y-117951745D01*
X136126866Y-117958500D01*
X137923134Y-117958500D01*
X137985316Y-117951745D01*
X138121705Y-117900615D01*
X138238261Y-117813261D01*
X138325615Y-117696705D01*
X138376745Y-117560316D01*
X138383500Y-117498134D01*
X138383500Y-115701866D01*
X138376745Y-115639684D01*
X138353894Y-115578729D01*
X138348711Y-115507923D01*
X138382631Y-115445554D01*
X138444887Y-115411425D01*
X138471876Y-115408500D01*
X153938157Y-115408500D01*
X153951764Y-115409237D01*
X153983262Y-115412659D01*
X153983267Y-115412659D01*
X153989388Y-115413324D01*
X154015638Y-115411027D01*
X154039388Y-115408950D01*
X154044214Y-115408621D01*
X154046686Y-115408500D01*
X154049769Y-115408500D01*
X154061738Y-115407326D01*
X154092506Y-115404310D01*
X154093819Y-115404188D01*
X154138084Y-115400315D01*
X154186413Y-115396087D01*
X154191532Y-115394600D01*
X154196833Y-115394080D01*
X154285834Y-115367209D01*
X154286967Y-115366874D01*
X154370414Y-115342630D01*
X154370418Y-115342628D01*
X154376336Y-115340909D01*
X154381068Y-115338456D01*
X154386169Y-115336916D01*
X154401601Y-115328711D01*
X154468260Y-115293269D01*
X154469426Y-115292657D01*
X154546453Y-115252729D01*
X154551926Y-115249892D01*
X154556089Y-115246569D01*
X154560796Y-115244066D01*
X154632918Y-115185245D01*
X154633774Y-115184554D01*
X154672973Y-115153262D01*
X154675477Y-115150758D01*
X154676195Y-115150116D01*
X154680528Y-115146415D01*
X154714062Y-115119065D01*
X154743288Y-115083737D01*
X154751277Y-115074958D01*
X155751879Y-114074355D01*
X155762022Y-114065253D01*
X155786718Y-114045397D01*
X155791525Y-114041532D01*
X155823792Y-114003078D01*
X155826972Y-113999431D01*
X155828615Y-113997619D01*
X155830809Y-113995425D01*
X155858142Y-113962151D01*
X155858848Y-113961300D01*
X155869620Y-113948463D01*
X155918654Y-113890026D01*
X155921222Y-113885356D01*
X155924603Y-113881239D01*
X155968477Y-113799414D01*
X155969106Y-113798255D01*
X156010962Y-113722119D01*
X156010965Y-113722111D01*
X156013933Y-113716713D01*
X156015545Y-113711631D01*
X156018062Y-113706937D01*
X156045262Y-113617969D01*
X156045608Y-113616858D01*
X156048542Y-113607611D01*
X156073735Y-113528194D01*
X156074329Y-113522898D01*
X156075887Y-113517802D01*
X156085290Y-113425243D01*
X156085411Y-113424107D01*
X156091000Y-113374273D01*
X156091000Y-113370746D01*
X156091055Y-113369761D01*
X156091502Y-113364081D01*
X156095874Y-113321038D01*
X156091559Y-113275391D01*
X156091000Y-113263533D01*
X156091000Y-112650201D01*
X156111002Y-112582080D01*
X156119566Y-112570310D01*
X156202740Y-112468873D01*
X156202744Y-112468867D01*
X156206124Y-112464745D01*
X156263091Y-112364668D01*
X156314173Y-112315362D01*
X156372593Y-112301000D01*
X156745657Y-112301000D01*
X156759264Y-112301737D01*
X156790762Y-112305159D01*
X156790767Y-112305159D01*
X156796888Y-112305824D01*
X156823138Y-112303527D01*
X156846888Y-112301450D01*
X156851714Y-112301121D01*
X156854186Y-112301000D01*
X156857269Y-112301000D01*
X156871547Y-112299600D01*
X156900006Y-112296810D01*
X156901319Y-112296688D01*
X156945584Y-112292815D01*
X156993913Y-112288587D01*
X156999032Y-112287100D01*
X157004333Y-112286580D01*
X157093334Y-112259709D01*
X157094467Y-112259374D01*
X157177914Y-112235130D01*
X157177918Y-112235128D01*
X157183836Y-112233409D01*
X157188568Y-112230956D01*
X157193669Y-112229416D01*
X157243019Y-112203177D01*
X157275760Y-112185769D01*
X157276926Y-112185157D01*
X157353953Y-112145229D01*
X157359426Y-112142392D01*
X157363589Y-112139069D01*
X157368296Y-112136566D01*
X157440418Y-112077745D01*
X157441274Y-112077054D01*
X157480473Y-112045762D01*
X157482977Y-112043258D01*
X157483695Y-112042616D01*
X157488028Y-112038915D01*
X157521562Y-112011565D01*
X157550791Y-111976233D01*
X157558772Y-111967463D01*
X158169383Y-111356851D01*
X158179527Y-111347749D01*
X158204218Y-111327897D01*
X158209025Y-111324032D01*
X158241292Y-111285578D01*
X158244472Y-111281931D01*
X158246115Y-111280119D01*
X158248309Y-111277925D01*
X158275642Y-111244651D01*
X158276348Y-111243800D01*
X158283357Y-111235448D01*
X158336154Y-111172526D01*
X158338722Y-111167856D01*
X158342103Y-111163739D01*
X158385977Y-111081914D01*
X158386606Y-111080755D01*
X158428462Y-111004619D01*
X158428465Y-111004611D01*
X158431433Y-110999213D01*
X158433045Y-110994131D01*
X158435562Y-110989437D01*
X158462747Y-110900523D01*
X158463139Y-110899265D01*
X158489372Y-110816567D01*
X158491235Y-110810694D01*
X158491829Y-110805403D01*
X158493388Y-110800302D01*
X158502790Y-110707737D01*
X158502925Y-110706470D01*
X158508108Y-110660270D01*
X158508108Y-110660265D01*
X158508500Y-110656773D01*
X158508500Y-110653248D01*
X158508555Y-110652263D01*
X158509004Y-110646559D01*
X158512752Y-110609666D01*
X158512752Y-110609661D01*
X158513374Y-110603538D01*
X158509059Y-110557891D01*
X158508500Y-110546033D01*
X158508500Y-108766350D01*
X158528502Y-108698229D01*
X158545326Y-108677333D01*
X158569133Y-108653484D01*
X158574305Y-108648303D01*
X158642264Y-108538054D01*
X158663275Y-108503968D01*
X158663276Y-108503966D01*
X158667115Y-108497738D01*
X158708254Y-108373708D01*
X158720632Y-108336389D01*
X158720632Y-108336387D01*
X158722797Y-108329861D01*
X158733500Y-108225400D01*
X158733500Y-107449600D01*
X158725017Y-107367842D01*
X158723238Y-107350692D01*
X158723237Y-107350688D01*
X158722526Y-107343834D01*
X158718514Y-107331807D01*
X158668868Y-107183002D01*
X158666550Y-107176054D01*
X158573478Y-107025652D01*
X158448303Y-106900695D01*
X158443765Y-106897898D01*
X158403176Y-106840647D01*
X158399946Y-106769724D01*
X158435572Y-106708313D01*
X158444068Y-106700938D01*
X158454207Y-106692902D01*
X158568739Y-106578171D01*
X158577751Y-106566760D01*
X158662816Y-106428757D01*
X158668963Y-106415576D01*
X158720138Y-106261290D01*
X158723005Y-106247914D01*
X158732672Y-106153562D01*
X158733000Y-106147146D01*
X158733000Y-106034615D01*
X158728525Y-106019376D01*
X158727135Y-106018171D01*
X158719452Y-106016500D01*
X156285116Y-106016500D01*
X156269877Y-106020975D01*
X156268672Y-106022365D01*
X156267001Y-106030048D01*
X156267001Y-106147095D01*
X156267338Y-106153614D01*
X156277257Y-106249206D01*
X156280149Y-106262600D01*
X156331588Y-106416784D01*
X156337761Y-106429962D01*
X156423063Y-106567807D01*
X156432099Y-106579208D01*
X156546828Y-106693738D01*
X156555762Y-106700794D01*
X156596823Y-106758712D01*
X156600053Y-106829635D01*
X156564426Y-106891046D01*
X156556593Y-106897846D01*
X156550652Y-106901522D01*
X156425695Y-107026697D01*
X156421855Y-107032927D01*
X156421854Y-107032928D01*
X156393475Y-107078968D01*
X156332885Y-107177262D01*
X156314452Y-107232837D01*
X156292982Y-107297568D01*
X156277203Y-107345139D01*
X156276503Y-107351975D01*
X156276502Y-107351978D01*
X156274877Y-107367842D01*
X156266500Y-107449600D01*
X156266500Y-108225400D01*
X156266837Y-108228646D01*
X156266837Y-108228650D01*
X156275991Y-108316872D01*
X156277474Y-108331166D01*
X156279655Y-108337702D01*
X156279655Y-108337704D01*
X156306313Y-108417606D01*
X156333450Y-108498946D01*
X156426522Y-108649348D01*
X156431704Y-108654521D01*
X156431708Y-108654526D01*
X156454517Y-108677295D01*
X156488597Y-108739577D01*
X156491500Y-108766468D01*
X156491500Y-110130074D01*
X156471498Y-110198195D01*
X156454595Y-110219169D01*
X156450602Y-110223162D01*
X156388290Y-110257188D01*
X156317475Y-110252123D01*
X156256987Y-110204434D01*
X156212100Y-110137761D01*
X156145059Y-110038181D01*
X156136870Y-110029596D01*
X156061203Y-109950278D01*
X155985924Y-109871365D01*
X155800958Y-109733746D01*
X155796207Y-109731330D01*
X155796203Y-109731328D01*
X155735436Y-109700433D01*
X155703446Y-109677211D01*
X154533070Y-108506835D01*
X154499044Y-108444523D01*
X154504109Y-108373708D01*
X154546656Y-108316872D01*
X154606155Y-108292761D01*
X154678184Y-108283534D01*
X154688262Y-108281392D01*
X154892255Y-108220191D01*
X154901842Y-108216433D01*
X155093095Y-108122739D01*
X155101945Y-108117464D01*
X155275328Y-107993792D01*
X155283200Y-107987139D01*
X155434052Y-107836812D01*
X155440730Y-107828965D01*
X155565003Y-107656020D01*
X155570313Y-107647183D01*
X155664670Y-107456267D01*
X155668469Y-107446672D01*
X155730377Y-107242910D01*
X155732555Y-107232837D01*
X155733986Y-107221962D01*
X155731775Y-107207778D01*
X155718617Y-107204000D01*
X153083225Y-107204000D01*
X153069694Y-107207973D01*
X153068257Y-107217966D01*
X153083995Y-107287799D01*
X153079459Y-107358651D01*
X153037337Y-107415802D01*
X152971004Y-107441108D01*
X152961078Y-107441500D01*
X151430482Y-107441500D01*
X151362361Y-107421498D01*
X151315868Y-107367842D01*
X151305764Y-107297568D01*
X151322027Y-107251364D01*
X151359145Y-107188601D01*
X151361358Y-107180986D01*
X151394825Y-107065789D01*
X151405562Y-107028831D01*
X151406220Y-107020479D01*
X151408307Y-106993958D01*
X151408307Y-106993950D01*
X151408500Y-106991502D01*
X151408500Y-105834500D01*
X151428502Y-105766379D01*
X151482158Y-105719886D01*
X151534500Y-105708500D01*
X151766502Y-105708500D01*
X151768950Y-105708307D01*
X151768958Y-105708307D01*
X151797421Y-105706067D01*
X151797426Y-105706066D01*
X151803831Y-105705562D01*
X151934034Y-105667735D01*
X151955988Y-105661357D01*
X151955990Y-105661356D01*
X151963601Y-105659145D01*
X152027404Y-105621412D01*
X152099980Y-105578491D01*
X152099983Y-105578489D01*
X152106807Y-105574453D01*
X152224453Y-105456807D01*
X152228489Y-105449983D01*
X152228491Y-105449980D01*
X152305108Y-105320427D01*
X152309145Y-105313601D01*
X152311415Y-105305790D01*
X152353767Y-105160010D01*
X152353767Y-105160009D01*
X152355562Y-105153831D01*
X152356067Y-105147420D01*
X152356169Y-105146859D01*
X152388086Y-105083441D01*
X152449223Y-105047347D01*
X152480118Y-105043500D01*
X153124274Y-105043500D01*
X153192395Y-105063502D01*
X153231707Y-105103665D01*
X153299987Y-105215088D01*
X153446250Y-105383938D01*
X153618126Y-105526632D01*
X153691955Y-105569774D01*
X153740679Y-105621412D01*
X153753750Y-105691195D01*
X153727019Y-105756967D01*
X153686562Y-105790327D01*
X153678457Y-105794546D01*
X153669738Y-105800036D01*
X153499433Y-105927905D01*
X153491726Y-105934748D01*
X153344590Y-106088717D01*
X153338104Y-106096727D01*
X153218098Y-106272649D01*
X153213000Y-106281623D01*
X153123338Y-106474783D01*
X153119775Y-106484470D01*
X153064389Y-106684183D01*
X153065912Y-106692607D01*
X153078292Y-106696000D01*
X155718344Y-106696000D01*
X155731875Y-106692027D01*
X155733180Y-106682947D01*
X155691214Y-106515875D01*
X155687894Y-106506124D01*
X155602972Y-106310814D01*
X155598105Y-106301739D01*
X155482426Y-106122926D01*
X155476136Y-106114757D01*
X155332806Y-105957240D01*
X155325273Y-105950215D01*
X155158139Y-105818222D01*
X155149556Y-105812520D01*
X155112602Y-105792120D01*
X155062631Y-105741687D01*
X155047859Y-105672245D01*
X155072975Y-105605839D01*
X155100327Y-105579232D01*
X155139603Y-105551217D01*
X155224887Y-105490385D01*
X156267000Y-105490385D01*
X156271475Y-105505624D01*
X156272865Y-105506829D01*
X156280548Y-105508500D01*
X157227885Y-105508500D01*
X157243124Y-105504025D01*
X157244329Y-105502635D01*
X157246000Y-105494952D01*
X157246000Y-104685116D01*
X157241525Y-104669877D01*
X157240135Y-104668672D01*
X157232452Y-104667001D01*
X156977905Y-104667001D01*
X156971386Y-104667338D01*
X156875794Y-104677257D01*
X156862400Y-104680149D01*
X156708216Y-104731588D01*
X156695038Y-104737761D01*
X156557193Y-104823063D01*
X156545792Y-104832099D01*
X156431261Y-104946829D01*
X156422249Y-104958240D01*
X156337184Y-105096243D01*
X156331037Y-105109424D01*
X156279862Y-105263710D01*
X156276995Y-105277086D01*
X156267328Y-105371438D01*
X156267000Y-105377855D01*
X156267000Y-105490385D01*
X155224887Y-105490385D01*
X155279860Y-105451173D01*
X155322683Y-105408500D01*
X155375252Y-105356114D01*
X155438096Y-105293489D01*
X155488530Y-105223303D01*
X155565435Y-105116277D01*
X155568453Y-105112077D01*
X155572611Y-105103665D01*
X155665136Y-104916453D01*
X155665137Y-104916451D01*
X155667430Y-104911811D01*
X155720311Y-104737761D01*
X155730865Y-104703023D01*
X155730865Y-104703021D01*
X155732370Y-104698069D01*
X155761529Y-104476590D01*
X155762227Y-104448022D01*
X155763074Y-104413365D01*
X155763074Y-104413361D01*
X155763156Y-104410000D01*
X155744852Y-104187361D01*
X155690431Y-103970702D01*
X155601354Y-103765840D01*
X155540713Y-103672103D01*
X155482822Y-103582617D01*
X155482820Y-103582614D01*
X155480014Y-103578277D01*
X155329670Y-103413051D01*
X155325619Y-103409852D01*
X155325615Y-103409848D01*
X155158414Y-103277800D01*
X155158410Y-103277798D01*
X155154359Y-103274598D01*
X155113053Y-103251796D01*
X155063084Y-103201364D01*
X155048312Y-103131921D01*
X155073428Y-103065516D01*
X155100780Y-103038909D01*
X155144603Y-103007650D01*
X155279860Y-102911173D01*
X155438096Y-102753489D01*
X155497594Y-102670689D01*
X155565435Y-102576277D01*
X155568453Y-102572077D01*
X155667430Y-102371811D01*
X155732370Y-102158069D01*
X155761529Y-101936590D01*
X155763156Y-101870000D01*
X155744852Y-101647361D01*
X155690431Y-101430702D01*
X155601354Y-101225840D01*
X155553276Y-101151522D01*
X155482822Y-101042617D01*
X155482820Y-101042614D01*
X155480014Y-101038277D01*
X155329670Y-100873051D01*
X155325619Y-100869852D01*
X155325615Y-100869848D01*
X155158414Y-100737800D01*
X155158410Y-100737798D01*
X155154359Y-100734598D01*
X155112569Y-100711529D01*
X155062598Y-100661097D01*
X155047826Y-100591654D01*
X155072942Y-100525248D01*
X155100294Y-100498641D01*
X155275328Y-100373792D01*
X155283200Y-100367139D01*
X155434052Y-100216812D01*
X155440730Y-100208965D01*
X155565003Y-100036020D01*
X155570313Y-100027183D01*
X155664670Y-99836267D01*
X155668469Y-99826672D01*
X155730377Y-99622910D01*
X155732555Y-99612837D01*
X155733986Y-99601962D01*
X155731775Y-99587778D01*
X155718617Y-99584000D01*
X153083225Y-99584000D01*
X153069694Y-99587973D01*
X153068257Y-99597966D01*
X153098565Y-99732446D01*
X153101645Y-99742275D01*
X153181770Y-99939603D01*
X153186413Y-99948794D01*
X153297694Y-100130388D01*
X153303777Y-100138699D01*
X153443213Y-100299667D01*
X153450580Y-100306883D01*
X153614434Y-100442916D01*
X153622881Y-100448831D01*
X153691969Y-100489203D01*
X153740693Y-100540842D01*
X153753764Y-100610625D01*
X153727033Y-100676396D01*
X153686584Y-100709752D01*
X153673607Y-100716507D01*
X153669474Y-100719610D01*
X153669471Y-100719612D01*
X153499100Y-100847530D01*
X153494965Y-100850635D01*
X153340629Y-101012138D01*
X153337715Y-101016410D01*
X153337714Y-101016411D01*
X153310631Y-101056114D01*
X153214743Y-101196680D01*
X153120688Y-101399305D01*
X153060989Y-101614570D01*
X153037251Y-101836695D01*
X153037548Y-101841848D01*
X153037548Y-101841851D01*
X153043011Y-101936590D01*
X153050110Y-102059715D01*
X153051247Y-102064761D01*
X153051248Y-102064767D01*
X153071119Y-102152939D01*
X153099222Y-102277639D01*
X153183266Y-102484616D01*
X153299987Y-102675088D01*
X153446250Y-102843938D01*
X153618126Y-102986632D01*
X153688595Y-103027811D01*
X153691445Y-103029476D01*
X153740169Y-103081114D01*
X153753240Y-103150897D01*
X153726509Y-103216669D01*
X153686055Y-103250027D01*
X153673607Y-103256507D01*
X153669474Y-103259610D01*
X153669471Y-103259612D01*
X153515722Y-103375050D01*
X153494965Y-103390635D01*
X153340629Y-103552138D01*
X153337715Y-103556410D01*
X153337714Y-103556411D01*
X153225095Y-103721504D01*
X153170184Y-103766507D01*
X153121007Y-103776500D01*
X152451715Y-103776500D01*
X152383594Y-103756498D01*
X152337101Y-103702842D01*
X152330718Y-103685653D01*
X152311357Y-103619012D01*
X152311356Y-103619010D01*
X152309145Y-103611399D01*
X152271888Y-103548401D01*
X152228491Y-103475020D01*
X152228489Y-103475017D01*
X152224453Y-103468193D01*
X152218845Y-103462585D01*
X152213989Y-103456325D01*
X152215496Y-103455156D01*
X152186379Y-103401833D01*
X152183500Y-103375050D01*
X152183500Y-103041350D01*
X152203502Y-102973229D01*
X152220326Y-102952333D01*
X152244133Y-102928484D01*
X152249305Y-102923303D01*
X152342115Y-102772738D01*
X152397797Y-102604861D01*
X152408500Y-102500400D01*
X152408500Y-101699600D01*
X152408163Y-101696350D01*
X152398238Y-101600692D01*
X152398237Y-101600688D01*
X152397526Y-101593834D01*
X152391849Y-101576816D01*
X152343868Y-101433002D01*
X152341550Y-101426054D01*
X152248478Y-101275652D01*
X152161891Y-101189216D01*
X152127812Y-101126934D01*
X152132815Y-101056114D01*
X152161736Y-101011025D01*
X152244134Y-100928483D01*
X152249305Y-100923303D01*
X152255095Y-100913910D01*
X152338275Y-100778968D01*
X152338276Y-100778966D01*
X152342115Y-100772738D01*
X152374070Y-100676396D01*
X152395632Y-100611389D01*
X152395632Y-100611387D01*
X152397797Y-100604861D01*
X152399117Y-100591985D01*
X152408172Y-100503598D01*
X152408500Y-100500400D01*
X152408500Y-99699600D01*
X152408163Y-99696350D01*
X152398238Y-99600692D01*
X152398237Y-99600688D01*
X152397526Y-99593834D01*
X152380228Y-99541984D01*
X152343868Y-99433002D01*
X152341550Y-99426054D01*
X152248478Y-99275652D01*
X152243296Y-99270479D01*
X152238751Y-99264745D01*
X152240424Y-99263419D01*
X152211402Y-99210375D01*
X152208500Y-99183489D01*
X152208500Y-98269926D01*
X152228502Y-98201805D01*
X152245404Y-98180831D01*
X152590829Y-97835405D01*
X152653142Y-97801380D01*
X152679925Y-97798500D01*
X153442393Y-97798500D01*
X153510514Y-97818502D01*
X153522877Y-97827555D01*
X153618126Y-97906632D01*
X153665817Y-97934500D01*
X153691955Y-97949774D01*
X153740679Y-98001412D01*
X153753750Y-98071195D01*
X153727019Y-98136967D01*
X153686562Y-98170327D01*
X153678457Y-98174546D01*
X153669738Y-98180036D01*
X153499433Y-98307905D01*
X153491726Y-98314748D01*
X153344590Y-98468717D01*
X153338104Y-98476727D01*
X153218098Y-98652649D01*
X153213000Y-98661623D01*
X153123338Y-98854783D01*
X153119775Y-98864470D01*
X153064389Y-99064183D01*
X153065912Y-99072607D01*
X153078292Y-99076000D01*
X155718344Y-99076000D01*
X155731875Y-99072027D01*
X155733180Y-99062947D01*
X155691214Y-98895875D01*
X155687894Y-98886124D01*
X155602972Y-98690814D01*
X155598105Y-98681739D01*
X155482426Y-98502926D01*
X155476136Y-98494757D01*
X155332806Y-98337240D01*
X155325273Y-98330215D01*
X155158139Y-98198222D01*
X155149556Y-98192520D01*
X155112602Y-98172120D01*
X155062631Y-98121687D01*
X155047859Y-98052245D01*
X155072975Y-97985839D01*
X155100327Y-97959232D01*
X155135000Y-97934500D01*
X155279860Y-97831173D01*
X155292576Y-97818502D01*
X155434435Y-97677137D01*
X155438096Y-97673489D01*
X155477883Y-97618120D01*
X155565435Y-97496277D01*
X155568453Y-97492077D01*
X155574338Y-97480171D01*
X155665136Y-97296453D01*
X155665137Y-97296451D01*
X155667430Y-97291811D01*
X155732370Y-97078069D01*
X155761529Y-96856590D01*
X155761611Y-96853240D01*
X155763074Y-96793365D01*
X155763074Y-96793361D01*
X155763156Y-96790000D01*
X155744852Y-96567361D01*
X155690431Y-96350702D01*
X155601354Y-96145840D01*
X155480014Y-95958277D01*
X155469804Y-95947056D01*
X155441306Y-95915737D01*
X155410254Y-95851891D01*
X155408500Y-95830938D01*
X155408500Y-95671009D01*
X155428502Y-95602888D01*
X155482158Y-95556395D01*
X155487694Y-95554097D01*
X155488296Y-95553768D01*
X155496705Y-95550615D01*
X155613261Y-95463261D01*
X155700615Y-95346705D01*
X155751745Y-95210316D01*
X155758500Y-95148134D01*
X155758500Y-93351866D01*
X155751745Y-93289684D01*
X155700615Y-93153295D01*
X155613261Y-93036739D01*
X155496705Y-92949385D01*
X155360316Y-92898255D01*
X155298134Y-92891500D01*
X153501866Y-92891500D01*
X153439684Y-92898255D01*
X153303295Y-92949385D01*
X153186739Y-93036739D01*
X153099385Y-93153295D01*
X153048255Y-93289684D01*
X153041500Y-93351866D01*
X153041500Y-95148134D01*
X153048255Y-95210316D01*
X153099385Y-95346705D01*
X153186739Y-95463261D01*
X153193919Y-95468642D01*
X153303295Y-95550615D01*
X153302429Y-95551771D01*
X153345798Y-95595237D01*
X153360813Y-95664628D01*
X153335929Y-95731120D01*
X153279046Y-95773604D01*
X153235144Y-95781500D01*
X152271850Y-95781500D01*
X152258242Y-95780763D01*
X152257662Y-95780700D01*
X152220612Y-95776675D01*
X152170570Y-95781053D01*
X152165788Y-95781379D01*
X152163310Y-95781500D01*
X152160231Y-95781500D01*
X152157177Y-95781799D01*
X152157166Y-95781800D01*
X152117529Y-95785687D01*
X152116215Y-95785809D01*
X152080688Y-95788917D01*
X152023587Y-95793913D01*
X152018468Y-95795400D01*
X152013167Y-95795920D01*
X151924166Y-95822791D01*
X151923033Y-95823126D01*
X151839586Y-95847370D01*
X151839582Y-95847372D01*
X151833664Y-95849091D01*
X151828932Y-95851544D01*
X151823831Y-95853084D01*
X151818388Y-95855978D01*
X151741740Y-95896731D01*
X151740574Y-95897343D01*
X151682856Y-95927262D01*
X151658074Y-95940108D01*
X151653911Y-95943431D01*
X151649204Y-95945934D01*
X151644429Y-95949828D01*
X151644428Y-95949829D01*
X151577102Y-96004739D01*
X151576075Y-96005567D01*
X151539792Y-96034531D01*
X151539787Y-96034536D01*
X151537028Y-96036738D01*
X151534527Y-96039239D01*
X151533809Y-96039881D01*
X151529461Y-96043594D01*
X151521641Y-96049972D01*
X151495938Y-96070935D01*
X151492015Y-96075677D01*
X151492013Y-96075679D01*
X151466703Y-96106273D01*
X151458713Y-96115053D01*
X151048595Y-96525171D01*
X150986283Y-96559197D01*
X150915468Y-96554132D01*
X150858632Y-96511585D01*
X150833821Y-96445065D01*
X150833500Y-96436076D01*
X150833500Y-96099600D01*
X150832528Y-96090229D01*
X150823238Y-96000692D01*
X150823237Y-96000688D01*
X150822526Y-95993834D01*
X150813588Y-95967042D01*
X150768868Y-95833002D01*
X150766550Y-95826054D01*
X150673478Y-95675652D01*
X150653658Y-95655866D01*
X150553483Y-95555866D01*
X150548303Y-95550695D01*
X150473147Y-95504368D01*
X150403968Y-95461725D01*
X150403966Y-95461724D01*
X150397738Y-95457885D01*
X150309075Y-95428477D01*
X150236389Y-95404368D01*
X150236387Y-95404368D01*
X150229861Y-95402203D01*
X150223025Y-95401503D01*
X150223022Y-95401502D01*
X150179969Y-95397091D01*
X150125400Y-95391500D01*
X149639500Y-95391500D01*
X149571379Y-95371498D01*
X149524886Y-95317842D01*
X149513500Y-95265500D01*
X149513500Y-94880427D01*
X149533502Y-94812306D01*
X149574618Y-94772550D01*
X149577994Y-94770896D01*
X149759860Y-94641173D01*
X149804985Y-94596206D01*
X149903400Y-94498134D01*
X149918096Y-94483489D01*
X149945742Y-94445016D01*
X150045435Y-94306277D01*
X150048453Y-94302077D01*
X150052019Y-94294863D01*
X150145136Y-94106453D01*
X150145137Y-94106451D01*
X150147430Y-94101811D01*
X150212370Y-93888069D01*
X150241529Y-93666590D01*
X150243156Y-93600000D01*
X150224852Y-93377361D01*
X150170431Y-93160702D01*
X150081354Y-92955840D01*
X149960014Y-92768277D01*
X149809670Y-92603051D01*
X149805619Y-92599852D01*
X149805615Y-92599848D01*
X149638414Y-92467800D01*
X149638410Y-92467798D01*
X149634359Y-92464598D01*
X149438789Y-92356638D01*
X149433920Y-92354914D01*
X149433916Y-92354912D01*
X149233087Y-92283795D01*
X149233083Y-92283794D01*
X149228212Y-92282069D01*
X149223119Y-92281162D01*
X149223116Y-92281161D01*
X149013373Y-92243800D01*
X149013367Y-92243799D01*
X149008284Y-92242894D01*
X148934452Y-92241992D01*
X148790081Y-92240228D01*
X148790079Y-92240228D01*
X148784911Y-92240165D01*
X148564091Y-92273955D01*
X148351756Y-92343357D01*
X148153607Y-92446507D01*
X148149474Y-92449610D01*
X148149471Y-92449612D01*
X147979100Y-92577530D01*
X147974965Y-92580635D01*
X147820629Y-92742138D01*
X147718490Y-92891869D01*
X147712898Y-92900066D01*
X147657987Y-92945069D01*
X147587462Y-92953240D01*
X147523715Y-92921986D01*
X147503018Y-92897502D01*
X147422426Y-92772926D01*
X147416136Y-92764757D01*
X147272806Y-92607240D01*
X147265273Y-92600215D01*
X147098139Y-92468222D01*
X147089552Y-92462517D01*
X146903117Y-92359599D01*
X146893705Y-92355369D01*
X146692959Y-92284280D01*
X146682988Y-92281646D01*
X146611837Y-92268972D01*
X146598540Y-92270432D01*
X146594000Y-92284989D01*
X146594000Y-93728000D01*
X146573998Y-93796121D01*
X146520342Y-93842614D01*
X146468000Y-93854000D01*
X146212000Y-93854000D01*
X146143879Y-93833998D01*
X146097386Y-93780342D01*
X146086000Y-93728000D01*
X146086000Y-92283102D01*
X146082082Y-92269758D01*
X146067806Y-92267771D01*
X146029324Y-92273660D01*
X146019288Y-92276051D01*
X145816868Y-92342212D01*
X145807364Y-92346207D01*
X145776663Y-92362189D01*
X145707003Y-92375902D01*
X145640988Y-92349777D01*
X145599577Y-92292109D01*
X145597140Y-92281564D01*
X145596439Y-92281744D01*
X145594467Y-92274065D01*
X145593474Y-92266203D01*
X145590556Y-92258832D01*
X145577200Y-92225097D01*
X145573355Y-92213870D01*
X145572721Y-92211687D01*
X145561018Y-92171407D01*
X145556984Y-92164585D01*
X145556981Y-92164579D01*
X145550706Y-92153968D01*
X145542010Y-92136218D01*
X145537472Y-92124756D01*
X145537469Y-92124751D01*
X145534552Y-92117383D01*
X145521901Y-92099970D01*
X145508573Y-92081625D01*
X145502057Y-92071707D01*
X145483575Y-92040457D01*
X145479542Y-92033637D01*
X145465218Y-92019313D01*
X145452376Y-92004278D01*
X145440472Y-91987893D01*
X145434363Y-91982840D01*
X145434360Y-91982836D01*
X145410834Y-91963374D01*
X145404893Y-91958137D01*
X145392348Y-91946356D01*
X145389508Y-91943603D01*
X145369770Y-91923865D01*
X145366573Y-91921385D01*
X145357551Y-91913680D01*
X145331100Y-91888841D01*
X145325321Y-91883414D01*
X145318375Y-91879595D01*
X145318372Y-91879593D01*
X145307566Y-91873652D01*
X145291047Y-91862801D01*
X145289197Y-91861366D01*
X145275041Y-91850386D01*
X145267772Y-91847241D01*
X145267768Y-91847238D01*
X145234463Y-91832826D01*
X145223813Y-91827609D01*
X145185060Y-91806305D01*
X145165437Y-91801267D01*
X145146734Y-91794863D01*
X145135420Y-91789967D01*
X145135419Y-91789967D01*
X145128145Y-91786819D01*
X145120322Y-91785580D01*
X145120312Y-91785577D01*
X145084476Y-91779901D01*
X145072856Y-91777495D01*
X145037711Y-91768472D01*
X145037710Y-91768472D01*
X145030030Y-91766500D01*
X145009776Y-91766500D01*
X144990065Y-91764949D01*
X144977886Y-91763020D01*
X144970057Y-91761780D01*
X144940786Y-91764547D01*
X144926039Y-91765941D01*
X144914181Y-91766500D01*
X142078767Y-91766500D01*
X142067584Y-91765973D01*
X142060091Y-91764298D01*
X142052165Y-91764547D01*
X142052164Y-91764547D01*
X141992014Y-91766438D01*
X141988055Y-91766500D01*
X141960144Y-91766500D01*
X141956210Y-91766997D01*
X141956209Y-91766997D01*
X141956144Y-91767005D01*
X141944307Y-91767938D01*
X141900276Y-91769322D01*
X141900109Y-91769327D01*
X141900103Y-91769151D01*
X141833806Y-91760587D01*
X141779489Y-91714868D01*
X141758500Y-91645235D01*
X141758500Y-90678880D01*
X141778502Y-90610759D01*
X141832158Y-90564266D01*
X141902432Y-90554162D01*
X141937750Y-90564685D01*
X141946924Y-90568963D01*
X142101210Y-90620138D01*
X142114586Y-90623005D01*
X142208938Y-90632672D01*
X142215354Y-90633000D01*
X142327885Y-90633000D01*
X142343124Y-90628525D01*
X142344329Y-90627135D01*
X142346000Y-90619452D01*
X142346000Y-88185116D01*
X142341525Y-88169877D01*
X142340135Y-88168672D01*
X142332452Y-88167001D01*
X142215405Y-88167001D01*
X142208886Y-88167338D01*
X142113294Y-88177257D01*
X142099900Y-88180149D01*
X141945716Y-88231588D01*
X141932538Y-88237761D01*
X141794693Y-88323063D01*
X141783292Y-88332099D01*
X141668761Y-88446829D01*
X141659749Y-88458240D01*
X141579860Y-88587845D01*
X141527088Y-88635338D01*
X141457017Y-88646762D01*
X141391893Y-88618488D01*
X141383505Y-88610824D01*
X141211776Y-88439095D01*
X141177750Y-88376783D01*
X141182815Y-88305968D01*
X141211776Y-88260905D01*
X141677276Y-87795405D01*
X141739588Y-87761379D01*
X141766371Y-87758500D01*
X142898134Y-87758500D01*
X142960316Y-87751745D01*
X143096705Y-87700615D01*
X143213261Y-87613261D01*
X143300615Y-87496705D01*
X143322799Y-87437529D01*
X143344598Y-87379382D01*
X143387240Y-87322618D01*
X143453802Y-87297918D01*
X143523150Y-87313126D01*
X143557817Y-87341114D01*
X143586250Y-87373938D01*
X143723996Y-87488297D01*
X143753465Y-87512762D01*
X143758126Y-87516632D01*
X143762593Y-87519242D01*
X143844070Y-87566853D01*
X143892794Y-87618491D01*
X143906500Y-87675641D01*
X143906500Y-88232335D01*
X143886498Y-88300456D01*
X143863016Y-88326387D01*
X143863152Y-88326522D01*
X143738195Y-88451697D01*
X143735398Y-88456235D01*
X143678147Y-88496824D01*
X143607224Y-88500054D01*
X143545813Y-88464428D01*
X143538438Y-88455932D01*
X143530402Y-88445793D01*
X143415671Y-88331261D01*
X143404260Y-88322249D01*
X143266257Y-88237184D01*
X143253076Y-88231037D01*
X143098790Y-88179862D01*
X143085414Y-88176995D01*
X142991062Y-88167328D01*
X142984645Y-88167000D01*
X142872115Y-88167000D01*
X142856876Y-88171475D01*
X142855671Y-88172865D01*
X142854000Y-88180548D01*
X142854000Y-90614884D01*
X142858475Y-90630123D01*
X142859865Y-90631328D01*
X142867548Y-90632999D01*
X142984595Y-90632999D01*
X142991114Y-90632662D01*
X143086706Y-90622743D01*
X143100100Y-90619851D01*
X143254284Y-90568412D01*
X143267462Y-90562239D01*
X143405307Y-90476937D01*
X143416708Y-90467901D01*
X143531238Y-90353172D01*
X143538294Y-90344238D01*
X143596212Y-90303177D01*
X143667135Y-90299947D01*
X143728546Y-90335574D01*
X143735346Y-90343407D01*
X143739022Y-90349348D01*
X143864197Y-90474305D01*
X143870427Y-90478145D01*
X143870428Y-90478146D01*
X144007788Y-90562816D01*
X144014762Y-90567115D01*
X144094505Y-90593564D01*
X144176111Y-90620632D01*
X144176113Y-90620632D01*
X144182639Y-90622797D01*
X144189475Y-90623497D01*
X144189478Y-90623498D01*
X144232531Y-90627909D01*
X144287100Y-90633500D01*
X145062900Y-90633500D01*
X145066146Y-90633163D01*
X145066150Y-90633163D01*
X145161808Y-90623238D01*
X145161812Y-90623237D01*
X145168666Y-90622526D01*
X145175202Y-90620345D01*
X145175204Y-90620345D01*
X145307306Y-90576272D01*
X145336446Y-90566550D01*
X145486848Y-90473478D01*
X145611805Y-90348303D01*
X145704615Y-90197738D01*
X145760297Y-90029861D01*
X145771000Y-89925400D01*
X145771000Y-88874600D01*
X145770663Y-88871350D01*
X145760738Y-88775692D01*
X145760737Y-88775688D01*
X145760026Y-88768834D01*
X145755276Y-88754595D01*
X145706368Y-88608002D01*
X145706367Y-88608000D01*
X145704050Y-88601054D01*
X145610978Y-88450652D01*
X145485803Y-88325695D01*
X145468792Y-88315209D01*
X145341468Y-88236725D01*
X145341466Y-88236724D01*
X145335238Y-88232885D01*
X145259832Y-88207874D01*
X145201473Y-88167443D01*
X145174236Y-88101879D01*
X145173500Y-88088281D01*
X145173500Y-87680427D01*
X145193502Y-87612306D01*
X145234618Y-87572550D01*
X145237994Y-87570896D01*
X145419860Y-87441173D01*
X145578096Y-87283489D01*
X145708453Y-87102077D01*
X145709776Y-87103028D01*
X145756645Y-87059857D01*
X145826580Y-87047625D01*
X145892026Y-87075144D01*
X145919875Y-87106994D01*
X145979987Y-87205088D01*
X146126250Y-87373938D01*
X146263996Y-87488297D01*
X146293465Y-87512762D01*
X146298126Y-87516632D01*
X146302593Y-87519242D01*
X146384070Y-87566853D01*
X146432794Y-87618491D01*
X146446500Y-87675641D01*
X146446500Y-88197007D01*
X146426498Y-88265128D01*
X146386803Y-88304151D01*
X146350652Y-88326522D01*
X146225695Y-88451697D01*
X146221855Y-88457927D01*
X146221854Y-88457928D01*
X146151077Y-88572750D01*
X146132885Y-88602262D01*
X146114039Y-88659080D01*
X146080914Y-88758952D01*
X146077203Y-88770139D01*
X146076503Y-88776975D01*
X146076502Y-88776978D01*
X146072639Y-88814686D01*
X146066500Y-88874600D01*
X146066500Y-89925400D01*
X146066837Y-89928646D01*
X146066837Y-89928650D01*
X146076618Y-90022914D01*
X146077474Y-90031166D01*
X146133450Y-90198946D01*
X146226522Y-90349348D01*
X146351697Y-90474305D01*
X146357927Y-90478145D01*
X146357928Y-90478146D01*
X146495288Y-90562816D01*
X146502262Y-90567115D01*
X146582005Y-90593564D01*
X146663611Y-90620632D01*
X146663613Y-90620632D01*
X146670139Y-90622797D01*
X146676975Y-90623497D01*
X146676978Y-90623498D01*
X146720031Y-90627909D01*
X146774600Y-90633500D01*
X147550400Y-90633500D01*
X147553646Y-90633163D01*
X147553650Y-90633163D01*
X147649308Y-90623238D01*
X147649312Y-90623237D01*
X147656166Y-90622526D01*
X147662702Y-90620345D01*
X147662704Y-90620345D01*
X147794806Y-90576272D01*
X147823946Y-90566550D01*
X147974348Y-90473478D01*
X148099305Y-90348303D01*
X148102102Y-90343765D01*
X148159353Y-90303176D01*
X148230276Y-90299946D01*
X148291687Y-90335572D01*
X148299062Y-90344068D01*
X148307098Y-90354207D01*
X148421829Y-90468739D01*
X148433240Y-90477751D01*
X148571243Y-90562816D01*
X148584424Y-90568963D01*
X148738710Y-90620138D01*
X148752086Y-90623005D01*
X148846438Y-90632672D01*
X148852854Y-90633000D01*
X148965385Y-90633000D01*
X148980624Y-90628525D01*
X148981829Y-90627135D01*
X148983500Y-90619452D01*
X148983500Y-90614884D01*
X149491500Y-90614884D01*
X149495975Y-90630123D01*
X149497365Y-90631328D01*
X149505048Y-90632999D01*
X149622095Y-90632999D01*
X149628614Y-90632662D01*
X149724206Y-90622743D01*
X149737600Y-90619851D01*
X149891784Y-90568412D01*
X149904962Y-90562239D01*
X150042807Y-90476937D01*
X150054208Y-90467901D01*
X150168739Y-90353171D01*
X150177751Y-90341760D01*
X150262816Y-90203757D01*
X150268963Y-90190576D01*
X150320138Y-90036290D01*
X150323005Y-90022914D01*
X150332672Y-89928562D01*
X150333000Y-89922146D01*
X150333000Y-89672115D01*
X150328525Y-89656876D01*
X150327135Y-89655671D01*
X150319452Y-89654000D01*
X149509615Y-89654000D01*
X149494376Y-89658475D01*
X149493171Y-89659865D01*
X149491500Y-89667548D01*
X149491500Y-90614884D01*
X148983500Y-90614884D01*
X148983500Y-89127885D01*
X149491500Y-89127885D01*
X149495975Y-89143124D01*
X149497365Y-89144329D01*
X149505048Y-89146000D01*
X150314884Y-89146000D01*
X150330123Y-89141525D01*
X150331328Y-89140135D01*
X150332999Y-89132452D01*
X150332999Y-88877905D01*
X150332662Y-88871386D01*
X150322743Y-88775794D01*
X150319851Y-88762400D01*
X150268412Y-88608216D01*
X150262239Y-88595038D01*
X150176937Y-88457193D01*
X150167901Y-88445792D01*
X150053171Y-88331261D01*
X150041760Y-88322249D01*
X149903757Y-88237184D01*
X149890576Y-88231037D01*
X149736290Y-88179862D01*
X149722914Y-88176995D01*
X149628562Y-88167328D01*
X149622145Y-88167000D01*
X149509615Y-88167000D01*
X149494376Y-88171475D01*
X149493171Y-88172865D01*
X149491500Y-88180548D01*
X149491500Y-89127885D01*
X148983500Y-89127885D01*
X148983500Y-88185116D01*
X148979025Y-88169877D01*
X148977635Y-88168672D01*
X148969952Y-88167001D01*
X148852905Y-88167001D01*
X148846386Y-88167338D01*
X148750794Y-88177257D01*
X148737400Y-88180149D01*
X148583216Y-88231588D01*
X148570038Y-88237761D01*
X148432193Y-88323063D01*
X148420792Y-88332099D01*
X148306262Y-88446828D01*
X148299206Y-88455762D01*
X148241288Y-88496823D01*
X148170365Y-88500053D01*
X148108954Y-88464426D01*
X148102154Y-88456593D01*
X148098478Y-88450652D01*
X147973303Y-88325695D01*
X147956292Y-88315209D01*
X147828968Y-88236725D01*
X147828966Y-88236724D01*
X147822738Y-88232885D01*
X147815789Y-88230580D01*
X147799834Y-88225288D01*
X147741474Y-88184858D01*
X147714236Y-88119294D01*
X147713500Y-88105695D01*
X147713500Y-88042277D01*
X153137009Y-88042277D01*
X153162625Y-88310769D01*
X153163710Y-88315203D01*
X153163711Y-88315209D01*
X153208152Y-88496823D01*
X153226731Y-88572750D01*
X153327985Y-88822733D01*
X153394738Y-88936739D01*
X153449440Y-89030162D01*
X153464265Y-89055482D01*
X153571589Y-89189684D01*
X153621318Y-89251866D01*
X153632716Y-89266119D01*
X153829809Y-89450234D01*
X154051416Y-89603968D01*
X154055499Y-89605999D01*
X154055502Y-89606001D01*
X154151985Y-89654000D01*
X154292894Y-89724101D01*
X154297228Y-89725522D01*
X154297231Y-89725523D01*
X154544853Y-89806698D01*
X154544859Y-89806699D01*
X154549186Y-89808118D01*
X154553677Y-89808898D01*
X154553678Y-89808898D01*
X154811140Y-89853601D01*
X154811148Y-89853602D01*
X154814921Y-89854257D01*
X154818758Y-89854448D01*
X154898578Y-89858422D01*
X154898586Y-89858422D01*
X154900149Y-89858500D01*
X155068512Y-89858500D01*
X155070780Y-89858335D01*
X155070792Y-89858335D01*
X155201884Y-89848823D01*
X155269004Y-89843953D01*
X155273459Y-89842969D01*
X155273462Y-89842969D01*
X155527912Y-89786791D01*
X155527916Y-89786790D01*
X155532372Y-89785806D01*
X155658480Y-89738028D01*
X155780318Y-89691868D01*
X155780321Y-89691867D01*
X155784588Y-89690250D01*
X156020368Y-89559286D01*
X156234773Y-89395657D01*
X156423312Y-89202792D01*
X156582034Y-88984730D01*
X156654167Y-88847628D01*
X156705490Y-88750079D01*
X156705493Y-88750073D01*
X156707615Y-88746039D01*
X156712001Y-88733621D01*
X156795902Y-88496033D01*
X156795902Y-88496032D01*
X156797425Y-88491720D01*
X156827989Y-88336650D01*
X156848700Y-88231572D01*
X156848701Y-88231566D01*
X156849581Y-88227100D01*
X156851684Y-88184858D01*
X156862764Y-87962292D01*
X156862764Y-87962286D01*
X156862991Y-87957723D01*
X156837375Y-87689231D01*
X156831797Y-87666433D01*
X156774355Y-87431688D01*
X156773269Y-87427250D01*
X156672015Y-87177267D01*
X156535735Y-86944518D01*
X156417928Y-86797208D01*
X156370136Y-86737447D01*
X156370135Y-86737445D01*
X156367284Y-86733881D01*
X156170191Y-86549766D01*
X155948584Y-86396032D01*
X155944501Y-86394001D01*
X155944498Y-86393999D01*
X155779606Y-86311967D01*
X155707106Y-86275899D01*
X155702772Y-86274478D01*
X155702769Y-86274477D01*
X155455147Y-86193302D01*
X155455141Y-86193301D01*
X155450814Y-86191882D01*
X155446322Y-86191102D01*
X155188860Y-86146399D01*
X155188852Y-86146398D01*
X155185079Y-86145743D01*
X155173817Y-86145182D01*
X155101422Y-86141578D01*
X155101414Y-86141578D01*
X155099851Y-86141500D01*
X154931488Y-86141500D01*
X154929220Y-86141665D01*
X154929208Y-86141665D01*
X154798116Y-86151177D01*
X154730996Y-86156047D01*
X154726541Y-86157031D01*
X154726538Y-86157031D01*
X154472088Y-86213209D01*
X154472084Y-86213210D01*
X154467628Y-86214194D01*
X154341520Y-86261972D01*
X154219682Y-86308132D01*
X154219679Y-86308133D01*
X154215412Y-86309750D01*
X153979632Y-86440714D01*
X153765227Y-86604343D01*
X153762034Y-86607609D01*
X153762032Y-86607611D01*
X153712309Y-86658475D01*
X153576688Y-86797208D01*
X153417966Y-87015270D01*
X153394768Y-87059362D01*
X153294510Y-87249921D01*
X153294507Y-87249927D01*
X153292385Y-87253961D01*
X153290865Y-87258266D01*
X153290863Y-87258270D01*
X153204125Y-87503891D01*
X153202575Y-87508280D01*
X153180926Y-87618120D01*
X153152690Y-87761379D01*
X153150419Y-87772900D01*
X153150192Y-87777453D01*
X153150192Y-87777456D01*
X153140991Y-87962292D01*
X153137009Y-88042277D01*
X147713500Y-88042277D01*
X147713500Y-87680427D01*
X147733502Y-87612306D01*
X147774618Y-87572550D01*
X147777994Y-87570896D01*
X147959860Y-87441173D01*
X148118096Y-87283489D01*
X148248453Y-87102077D01*
X148249640Y-87102930D01*
X148296960Y-87059362D01*
X148366897Y-87047145D01*
X148432338Y-87074678D01*
X148460166Y-87106511D01*
X148517694Y-87200388D01*
X148523777Y-87208699D01*
X148663213Y-87369667D01*
X148670580Y-87376883D01*
X148834434Y-87512916D01*
X148842881Y-87518831D01*
X149026756Y-87626279D01*
X149036042Y-87630729D01*
X149235001Y-87706703D01*
X149244899Y-87709579D01*
X149348250Y-87730606D01*
X149362299Y-87729410D01*
X149366000Y-87719065D01*
X149366000Y-87718517D01*
X149874000Y-87718517D01*
X149878064Y-87732359D01*
X149891478Y-87734393D01*
X149898184Y-87733534D01*
X149908262Y-87731392D01*
X150112255Y-87670191D01*
X150121842Y-87666433D01*
X150313095Y-87572739D01*
X150321945Y-87567464D01*
X150495328Y-87443792D01*
X150503200Y-87437139D01*
X150654052Y-87286812D01*
X150660730Y-87278965D01*
X150785003Y-87106020D01*
X150790313Y-87097183D01*
X150884670Y-86906267D01*
X150888469Y-86896672D01*
X150950377Y-86692910D01*
X150952555Y-86682837D01*
X150953986Y-86671962D01*
X150951775Y-86657778D01*
X150938617Y-86654000D01*
X149892115Y-86654000D01*
X149876876Y-86658475D01*
X149875671Y-86659865D01*
X149874000Y-86667548D01*
X149874000Y-87718517D01*
X149366000Y-87718517D01*
X149366000Y-86272000D01*
X149386002Y-86203879D01*
X149439658Y-86157386D01*
X149492000Y-86146000D01*
X150938344Y-86146000D01*
X150951875Y-86142027D01*
X150953180Y-86132947D01*
X150911214Y-85965875D01*
X150907894Y-85956124D01*
X150822972Y-85760814D01*
X150818105Y-85751739D01*
X150702426Y-85572926D01*
X150696136Y-85564757D01*
X150552806Y-85407240D01*
X150545273Y-85400215D01*
X150378139Y-85268222D01*
X150369552Y-85262517D01*
X150183117Y-85159599D01*
X150173705Y-85155369D01*
X149972959Y-85084280D01*
X149962989Y-85081646D01*
X149833307Y-85058547D01*
X149769750Y-85026909D01*
X149733387Y-84965932D01*
X149735763Y-84894975D01*
X149776124Y-84836567D01*
X149841656Y-84809252D01*
X149855403Y-84808500D01*
X159065500Y-84808500D01*
X159133621Y-84828502D01*
G37*
%TD.AperFunction*%
%TA.AperFunction,Conductor*%
G36*
X130533621Y-109766002D02*
G01*
X130580114Y-109819658D01*
X130591500Y-109872000D01*
X130591500Y-111214884D01*
X130595975Y-111230123D01*
X130597365Y-111231328D01*
X130605048Y-111232999D01*
X130722096Y-111232999D01*
X130731854Y-111232494D01*
X130731937Y-111234092D01*
X130795591Y-111245800D01*
X130847388Y-111294355D01*
X130859803Y-111323122D01*
X130870569Y-111360180D01*
X130874602Y-111366999D01*
X130874604Y-111367004D01*
X130880880Y-111377615D01*
X130889575Y-111395363D01*
X130897035Y-111414204D01*
X130901697Y-111420620D01*
X130901697Y-111420621D01*
X130923023Y-111449974D01*
X130929539Y-111459894D01*
X130952045Y-111497949D01*
X130966366Y-111512270D01*
X130979206Y-111527303D01*
X130991115Y-111543694D01*
X131019950Y-111567548D01*
X131025180Y-111571875D01*
X131033961Y-111579865D01*
X131364221Y-111910126D01*
X131398246Y-111972438D01*
X131400469Y-112012063D01*
X131391500Y-112099600D01*
X131391500Y-112465359D01*
X131371498Y-112533480D01*
X131317842Y-112579973D01*
X131247568Y-112590077D01*
X131182988Y-112560583D01*
X131176481Y-112554531D01*
X131153171Y-112531261D01*
X131141760Y-112522249D01*
X131003757Y-112437184D01*
X130990576Y-112431037D01*
X130836290Y-112379862D01*
X130822914Y-112376995D01*
X130728562Y-112367328D01*
X130722145Y-112367000D01*
X130609615Y-112367000D01*
X130594376Y-112371475D01*
X130593171Y-112372865D01*
X130591500Y-112380548D01*
X130591500Y-113728000D01*
X130571498Y-113796121D01*
X130517842Y-113842614D01*
X130465500Y-113854000D01*
X130209500Y-113854000D01*
X130141379Y-113833998D01*
X130094886Y-113780342D01*
X130083500Y-113728000D01*
X130083500Y-112385116D01*
X130079025Y-112369877D01*
X130077635Y-112368672D01*
X130069952Y-112367001D01*
X129952905Y-112367001D01*
X129946386Y-112367338D01*
X129850794Y-112377257D01*
X129837400Y-112380149D01*
X129683216Y-112431588D01*
X129670038Y-112437761D01*
X129532193Y-112523063D01*
X129520792Y-112532099D01*
X129486173Y-112566778D01*
X129423890Y-112600857D01*
X129353070Y-112595854D01*
X129296197Y-112553356D01*
X129271329Y-112486858D01*
X129271000Y-112477760D01*
X129271000Y-111122163D01*
X129291002Y-111054042D01*
X129344658Y-111007549D01*
X129414932Y-110997445D01*
X129479512Y-111026939D01*
X129486018Y-111032990D01*
X129521829Y-111068739D01*
X129533240Y-111077751D01*
X129671243Y-111162816D01*
X129684424Y-111168963D01*
X129838710Y-111220138D01*
X129852086Y-111223005D01*
X129946438Y-111232672D01*
X129952854Y-111233000D01*
X130065385Y-111233000D01*
X130080624Y-111228525D01*
X130081829Y-111227135D01*
X130083500Y-111219452D01*
X130083500Y-109872000D01*
X130103502Y-109803879D01*
X130157158Y-109757386D01*
X130209500Y-109746000D01*
X130465500Y-109746000D01*
X130533621Y-109766002D01*
G37*
%TD.AperFunction*%
%TA.AperFunction,Conductor*%
G36*
X145051673Y-94876522D02*
G01*
X145080443Y-94898048D01*
X146005146Y-95822752D01*
X146929595Y-96747201D01*
X146963621Y-96809513D01*
X146966500Y-96836296D01*
X146966500Y-97100400D01*
X146966837Y-97103646D01*
X146966837Y-97103650D01*
X146975415Y-97186320D01*
X146977474Y-97206166D01*
X146979655Y-97212702D01*
X146979655Y-97212704D01*
X147006676Y-97293695D01*
X147033450Y-97373946D01*
X147126522Y-97524348D01*
X147251697Y-97649305D01*
X147257927Y-97653145D01*
X147257928Y-97653146D01*
X147395090Y-97737694D01*
X147402262Y-97742115D01*
X147435520Y-97753146D01*
X147563611Y-97795632D01*
X147563613Y-97795632D01*
X147570139Y-97797797D01*
X147576975Y-97798497D01*
X147576978Y-97798498D01*
X147612058Y-97802092D01*
X147674600Y-97808500D01*
X148300400Y-97808500D01*
X148303646Y-97808163D01*
X148303650Y-97808163D01*
X148399308Y-97798238D01*
X148399312Y-97798237D01*
X148406166Y-97797526D01*
X148412702Y-97795345D01*
X148412704Y-97795345D01*
X148544806Y-97751272D01*
X148573946Y-97741550D01*
X148724348Y-97648478D01*
X148810784Y-97561891D01*
X148873066Y-97527812D01*
X148943886Y-97532815D01*
X148988975Y-97561736D01*
X149055839Y-97628483D01*
X149076697Y-97649305D01*
X149082927Y-97653145D01*
X149082928Y-97653146D01*
X149220090Y-97737694D01*
X149227262Y-97742115D01*
X149260520Y-97753146D01*
X149388611Y-97795632D01*
X149388613Y-97795632D01*
X149395139Y-97797797D01*
X149401975Y-97798497D01*
X149401978Y-97798498D01*
X149437058Y-97802092D01*
X149499600Y-97808500D01*
X150065500Y-97808500D01*
X150133621Y-97828502D01*
X150180114Y-97882158D01*
X150191500Y-97934500D01*
X150191500Y-98965500D01*
X150171498Y-99033621D01*
X150117842Y-99080114D01*
X150065500Y-99091500D01*
X147961842Y-99091500D01*
X147948235Y-99090763D01*
X147916737Y-99087341D01*
X147916732Y-99087341D01*
X147910611Y-99086676D01*
X147892611Y-99088251D01*
X147860609Y-99091050D01*
X147855784Y-99091379D01*
X147853313Y-99091500D01*
X147850231Y-99091500D01*
X147827763Y-99093703D01*
X147807489Y-99095691D01*
X147806174Y-99095813D01*
X147773913Y-99098636D01*
X147713587Y-99103913D01*
X147708468Y-99105400D01*
X147703167Y-99105920D01*
X147614194Y-99132782D01*
X147613054Y-99133120D01*
X147523663Y-99159091D01*
X147518929Y-99161545D01*
X147513831Y-99163084D01*
X147508387Y-99165978D01*
X147508386Y-99165979D01*
X147431831Y-99206684D01*
X147430663Y-99207298D01*
X147366780Y-99240412D01*
X147348074Y-99250108D01*
X147343911Y-99253431D01*
X147339204Y-99255934D01*
X147267082Y-99314755D01*
X147266226Y-99315446D01*
X147227027Y-99346738D01*
X147224523Y-99349242D01*
X147223805Y-99349884D01*
X147219472Y-99353585D01*
X147185938Y-99380935D01*
X147182011Y-99385682D01*
X147182009Y-99385684D01*
X147156713Y-99416262D01*
X147148723Y-99425042D01*
X142930621Y-103643145D01*
X142920478Y-103652247D01*
X142890975Y-103675968D01*
X142877462Y-103692072D01*
X142858709Y-103714421D01*
X142855528Y-103718069D01*
X142853885Y-103719881D01*
X142851691Y-103722075D01*
X142824358Y-103755349D01*
X142823696Y-103756147D01*
X142763846Y-103827474D01*
X142761278Y-103832144D01*
X142757897Y-103836261D01*
X142727027Y-103893834D01*
X142714023Y-103918086D01*
X142713394Y-103919245D01*
X142671538Y-103995381D01*
X142671535Y-103995389D01*
X142668567Y-104000787D01*
X142666955Y-104005869D01*
X142664438Y-104010563D01*
X142637238Y-104099531D01*
X142636918Y-104100559D01*
X142608765Y-104189306D01*
X142608171Y-104194602D01*
X142606613Y-104199698D01*
X142597246Y-104291914D01*
X142597218Y-104292187D01*
X142597089Y-104293393D01*
X142591500Y-104343227D01*
X142591500Y-104346754D01*
X142591445Y-104347739D01*
X142590998Y-104353419D01*
X142586626Y-104396462D01*
X142588224Y-104413365D01*
X142590941Y-104442109D01*
X142591500Y-104453967D01*
X142591500Y-109619654D01*
X142590763Y-109633261D01*
X142586676Y-109670885D01*
X142588855Y-109695792D01*
X142591050Y-109720885D01*
X142591379Y-109725711D01*
X142591500Y-109728183D01*
X142591500Y-109731266D01*
X142591801Y-109734334D01*
X142595690Y-109774003D01*
X142595812Y-109775316D01*
X142598340Y-109804205D01*
X142603913Y-109867910D01*
X142605400Y-109873029D01*
X142605920Y-109878330D01*
X142621911Y-109931296D01*
X142622451Y-110002288D01*
X142584523Y-110062304D01*
X142541163Y-110087234D01*
X142408218Y-110131587D01*
X142395038Y-110137761D01*
X142257193Y-110223063D01*
X142245792Y-110232099D01*
X142131261Y-110346829D01*
X142122249Y-110358240D01*
X142037184Y-110496243D01*
X142031037Y-110509424D01*
X141979862Y-110663710D01*
X141976995Y-110677086D01*
X141967328Y-110771438D01*
X141967000Y-110777855D01*
X141967000Y-111027885D01*
X141971475Y-111043124D01*
X141972865Y-111044329D01*
X141980548Y-111046000D01*
X143190500Y-111046000D01*
X143258621Y-111066002D01*
X143305114Y-111119658D01*
X143316500Y-111172000D01*
X143316500Y-112514884D01*
X143320975Y-112530123D01*
X143322365Y-112531328D01*
X143330048Y-112532999D01*
X143447095Y-112532999D01*
X143453614Y-112532662D01*
X143549206Y-112522743D01*
X143562600Y-112519851D01*
X143716784Y-112468412D01*
X143729962Y-112462239D01*
X143867807Y-112376937D01*
X143879208Y-112367901D01*
X143993738Y-112253172D01*
X144000794Y-112244238D01*
X144058712Y-112203177D01*
X144129635Y-112199947D01*
X144191046Y-112235574D01*
X144197846Y-112243407D01*
X144201522Y-112249348D01*
X144326697Y-112374305D01*
X144332927Y-112378145D01*
X144332928Y-112378146D01*
X144470288Y-112462816D01*
X144477262Y-112467115D01*
X144509356Y-112477760D01*
X144638611Y-112520632D01*
X144638613Y-112520632D01*
X144645139Y-112522797D01*
X144651975Y-112523497D01*
X144651978Y-112523498D01*
X144695031Y-112527909D01*
X144749600Y-112533500D01*
X145525400Y-112533500D01*
X145528646Y-112533163D01*
X145528650Y-112533163D01*
X145624308Y-112523238D01*
X145624312Y-112523237D01*
X145631166Y-112522526D01*
X145637702Y-112520345D01*
X145637704Y-112520345D01*
X145769806Y-112476272D01*
X145798946Y-112466550D01*
X145949348Y-112373478D01*
X145984783Y-112337982D01*
X146047064Y-112303903D01*
X146073955Y-112301000D01*
X148518000Y-112301000D01*
X148586121Y-112321002D01*
X148632614Y-112374658D01*
X148644000Y-112427000D01*
X148644000Y-112590634D01*
X148650755Y-112652816D01*
X148701885Y-112789205D01*
X148789239Y-112905761D01*
X148905795Y-112993115D01*
X149042184Y-113044245D01*
X149104366Y-113051000D01*
X150900634Y-113051000D01*
X150962816Y-113044245D01*
X151099205Y-112993115D01*
X151215761Y-112905761D01*
X151303115Y-112789205D01*
X151311122Y-112767846D01*
X151347920Y-112669689D01*
X151390562Y-112612925D01*
X151457123Y-112588225D01*
X151526472Y-112603433D01*
X151557072Y-112626947D01*
X151635734Y-112709406D01*
X151643686Y-112716441D01*
X151820025Y-112847641D01*
X151829062Y-112853245D01*
X152024984Y-112952857D01*
X152034835Y-112956857D01*
X152244740Y-113022034D01*
X152255124Y-113024317D01*
X152270543Y-113026361D01*
X152284707Y-113024165D01*
X152288500Y-113010978D01*
X152288500Y-111164500D01*
X152308502Y-111096379D01*
X152362158Y-111049886D01*
X152414500Y-111038500D01*
X152670500Y-111038500D01*
X152738621Y-111058502D01*
X152785114Y-111112158D01*
X152796500Y-111164500D01*
X152796500Y-113008692D01*
X152800473Y-113022223D01*
X152811080Y-113023748D01*
X152928921Y-112999023D01*
X152939117Y-112995963D01*
X153143529Y-112915237D01*
X153153061Y-112910506D01*
X153340962Y-112796484D01*
X153349552Y-112790220D01*
X153515552Y-112646173D01*
X153522972Y-112638542D01*
X153662326Y-112468589D01*
X153668350Y-112459822D01*
X153702065Y-112400594D01*
X153753147Y-112351288D01*
X153822777Y-112337426D01*
X153888848Y-112363409D01*
X153916087Y-112392559D01*
X154016958Y-112542389D01*
X154016961Y-112542393D01*
X154019941Y-112546819D01*
X154023628Y-112550684D01*
X154039169Y-112566975D01*
X154071717Y-112630071D01*
X154074000Y-112653947D01*
X154074000Y-112847574D01*
X154053998Y-112915695D01*
X154037096Y-112936669D01*
X153619171Y-113354595D01*
X153556858Y-113388620D01*
X153530075Y-113391500D01*
X138034500Y-113391500D01*
X137966379Y-113371498D01*
X137919886Y-113317842D01*
X137908500Y-113265500D01*
X137908500Y-112299600D01*
X137907413Y-112289123D01*
X137898238Y-112200692D01*
X137898237Y-112200688D01*
X137897526Y-112193834D01*
X137894836Y-112185769D01*
X137843868Y-112033002D01*
X137841550Y-112026054D01*
X137748478Y-111875652D01*
X137711559Y-111838797D01*
X137702420Y-111822095D01*
X141967001Y-111822095D01*
X141967338Y-111828614D01*
X141977257Y-111924206D01*
X141980149Y-111937600D01*
X142031588Y-112091784D01*
X142037761Y-112104962D01*
X142123063Y-112242807D01*
X142132099Y-112254208D01*
X142246829Y-112368739D01*
X142258240Y-112377751D01*
X142396243Y-112462816D01*
X142409424Y-112468963D01*
X142563710Y-112520138D01*
X142577086Y-112523005D01*
X142671438Y-112532672D01*
X142677854Y-112533000D01*
X142790385Y-112533000D01*
X142805624Y-112528525D01*
X142806829Y-112527135D01*
X142808500Y-112519452D01*
X142808500Y-111572115D01*
X142804025Y-111556876D01*
X142802635Y-111555671D01*
X142794952Y-111554000D01*
X141985116Y-111554000D01*
X141969877Y-111558475D01*
X141968672Y-111559865D01*
X141967001Y-111567548D01*
X141967001Y-111822095D01*
X137702420Y-111822095D01*
X137677480Y-111776514D01*
X137682483Y-111705694D01*
X137711404Y-111660606D01*
X137768739Y-111603171D01*
X137777751Y-111591760D01*
X137862816Y-111453757D01*
X137868963Y-111440576D01*
X137920138Y-111286290D01*
X137923005Y-111272914D01*
X137932672Y-111178562D01*
X137933000Y-111172146D01*
X137933000Y-110922115D01*
X137928525Y-110906876D01*
X137927135Y-110905671D01*
X137919452Y-110904000D01*
X136709500Y-110904000D01*
X136641379Y-110883998D01*
X136594886Y-110830342D01*
X136583500Y-110778000D01*
X136583500Y-110522000D01*
X136603502Y-110453879D01*
X136657158Y-110407386D01*
X136709500Y-110396000D01*
X137914884Y-110396000D01*
X137930123Y-110391525D01*
X137931328Y-110390135D01*
X137932999Y-110382452D01*
X137932999Y-110127905D01*
X137932662Y-110121386D01*
X137922743Y-110025794D01*
X137919851Y-110012400D01*
X137868412Y-109858216D01*
X137862239Y-109845038D01*
X137776937Y-109707193D01*
X137767901Y-109695792D01*
X137653171Y-109581261D01*
X137641760Y-109572249D01*
X137503757Y-109487184D01*
X137490574Y-109481036D01*
X137402438Y-109451803D01*
X137344078Y-109411373D01*
X137316841Y-109345808D01*
X137329374Y-109275927D01*
X137350253Y-109245959D01*
X137353661Y-109242330D01*
X137356413Y-109239491D01*
X137376135Y-109219769D01*
X137378619Y-109216567D01*
X137386317Y-109207555D01*
X137411161Y-109181098D01*
X137416586Y-109175321D01*
X137426347Y-109157566D01*
X137437198Y-109141047D01*
X137449614Y-109125041D01*
X137467174Y-109084463D01*
X137472391Y-109073813D01*
X137493695Y-109035060D01*
X137496449Y-109024336D01*
X137498733Y-109015438D01*
X137505137Y-108996734D01*
X137510033Y-108985420D01*
X137510033Y-108985419D01*
X137513181Y-108978145D01*
X137514420Y-108970322D01*
X137514423Y-108970312D01*
X137520099Y-108934476D01*
X137522505Y-108922856D01*
X137531528Y-108887711D01*
X137531528Y-108887710D01*
X137533500Y-108880030D01*
X137533500Y-108868760D01*
X137534241Y-108866237D01*
X137534493Y-108864240D01*
X137534815Y-108864281D01*
X137553502Y-108800639D01*
X137607158Y-108754146D01*
X137677432Y-108744042D01*
X137703729Y-108750778D01*
X137839684Y-108801745D01*
X137901866Y-108808500D01*
X138898134Y-108808500D01*
X138960316Y-108801745D01*
X139033883Y-108774166D01*
X139088301Y-108753766D01*
X139088304Y-108753764D01*
X139096705Y-108750615D01*
X139096964Y-108751307D01*
X139159374Y-108737657D01*
X139203385Y-108750580D01*
X139203538Y-108750172D01*
X139209112Y-108752262D01*
X139211034Y-108752826D01*
X139211939Y-108753321D01*
X139332394Y-108798478D01*
X139347649Y-108802105D01*
X139398514Y-108807631D01*
X139405328Y-108808000D01*
X139627885Y-108808000D01*
X139643124Y-108803525D01*
X139644329Y-108802135D01*
X139646000Y-108794452D01*
X139646000Y-108789884D01*
X140154000Y-108789884D01*
X140158475Y-108805123D01*
X140159865Y-108806328D01*
X140167548Y-108807999D01*
X140394669Y-108807999D01*
X140401490Y-108807629D01*
X140452352Y-108802105D01*
X140467604Y-108798479D01*
X140588054Y-108753324D01*
X140603649Y-108744786D01*
X140705724Y-108668285D01*
X140718285Y-108655724D01*
X140794786Y-108553649D01*
X140803324Y-108538054D01*
X140848478Y-108417606D01*
X140852105Y-108402351D01*
X140857631Y-108351486D01*
X140858000Y-108344672D01*
X140858000Y-107822115D01*
X140853525Y-107806876D01*
X140852135Y-107805671D01*
X140844452Y-107804000D01*
X140172115Y-107804000D01*
X140156876Y-107808475D01*
X140155671Y-107809865D01*
X140154000Y-107817548D01*
X140154000Y-108789884D01*
X139646000Y-108789884D01*
X139646000Y-107277885D01*
X140154000Y-107277885D01*
X140158475Y-107293124D01*
X140159865Y-107294329D01*
X140167548Y-107296000D01*
X140839884Y-107296000D01*
X140855123Y-107291525D01*
X140856328Y-107290135D01*
X140857999Y-107282452D01*
X140857999Y-106755331D01*
X140857629Y-106748510D01*
X140852105Y-106697648D01*
X140848479Y-106682396D01*
X140803324Y-106561946D01*
X140794786Y-106546351D01*
X140718285Y-106444276D01*
X140705724Y-106431715D01*
X140603649Y-106355214D01*
X140588054Y-106346676D01*
X140467606Y-106301522D01*
X140452351Y-106297895D01*
X140401486Y-106292369D01*
X140394672Y-106292000D01*
X140172115Y-106292000D01*
X140156876Y-106296475D01*
X140155671Y-106297865D01*
X140154000Y-106305548D01*
X140154000Y-107277885D01*
X139646000Y-107277885D01*
X139646000Y-106310116D01*
X139641525Y-106294877D01*
X139640135Y-106293672D01*
X139632452Y-106292001D01*
X139405331Y-106292001D01*
X139398510Y-106292371D01*
X139347648Y-106297895D01*
X139332396Y-106301521D01*
X139211939Y-106346679D01*
X139211034Y-106347174D01*
X139210034Y-106347393D01*
X139203538Y-106349828D01*
X139203186Y-106348890D01*
X139141677Y-106362343D01*
X139096788Y-106349162D01*
X139096705Y-106349385D01*
X139093663Y-106348244D01*
X139093656Y-106348242D01*
X139088304Y-106346236D01*
X139088301Y-106346234D01*
X138991955Y-106310116D01*
X138960316Y-106298255D01*
X138898134Y-106291500D01*
X137901866Y-106291500D01*
X137839684Y-106298255D01*
X137808045Y-106310116D01*
X137711699Y-106346234D01*
X137711696Y-106346236D01*
X137703295Y-106349385D01*
X137702976Y-106348534D01*
X137641151Y-106362055D01*
X137596834Y-106349042D01*
X137596705Y-106349385D01*
X137592019Y-106347628D01*
X137592015Y-106347627D01*
X137588304Y-106346236D01*
X137588301Y-106346234D01*
X137491955Y-106310116D01*
X137460316Y-106298255D01*
X137398134Y-106291500D01*
X136401866Y-106291500D01*
X136339684Y-106298255D01*
X136308045Y-106310116D01*
X136211699Y-106346234D01*
X136211696Y-106346236D01*
X136203295Y-106349385D01*
X136202976Y-106348534D01*
X136141151Y-106362055D01*
X136096834Y-106349042D01*
X136096705Y-106349385D01*
X136092019Y-106347628D01*
X136092015Y-106347627D01*
X136088304Y-106346236D01*
X136088301Y-106346234D01*
X135991955Y-106310116D01*
X135960316Y-106298255D01*
X135898134Y-106291500D01*
X134901866Y-106291500D01*
X134839684Y-106298255D01*
X134808045Y-106310116D01*
X134711699Y-106346234D01*
X134711696Y-106346236D01*
X134703295Y-106349385D01*
X134702976Y-106348534D01*
X134641151Y-106362055D01*
X134596834Y-106349042D01*
X134596705Y-106349385D01*
X134592019Y-106347628D01*
X134592015Y-106347627D01*
X134588304Y-106346236D01*
X134588301Y-106346234D01*
X134491955Y-106310116D01*
X134460316Y-106298255D01*
X134398134Y-106291500D01*
X133401866Y-106291500D01*
X133339684Y-106298255D01*
X133308045Y-106310116D01*
X133211699Y-106346234D01*
X133211696Y-106346236D01*
X133203295Y-106349385D01*
X133202976Y-106348534D01*
X133141151Y-106362055D01*
X133096834Y-106349042D01*
X133096705Y-106349385D01*
X133092019Y-106347628D01*
X133092015Y-106347627D01*
X133088304Y-106346236D01*
X133088301Y-106346234D01*
X132991955Y-106310116D01*
X132960316Y-106298255D01*
X132898134Y-106291500D01*
X131901866Y-106291500D01*
X131839684Y-106298255D01*
X131808045Y-106310116D01*
X131711699Y-106346234D01*
X131711696Y-106346236D01*
X131703295Y-106349385D01*
X131702976Y-106348534D01*
X131641151Y-106362055D01*
X131596834Y-106349042D01*
X131596705Y-106349385D01*
X131592019Y-106347628D01*
X131592015Y-106347627D01*
X131588304Y-106346236D01*
X131588301Y-106346234D01*
X131491955Y-106310116D01*
X131460316Y-106298255D01*
X131398134Y-106291500D01*
X130401866Y-106291500D01*
X130339684Y-106298255D01*
X130308045Y-106310116D01*
X130211699Y-106346234D01*
X130211696Y-106346236D01*
X130203295Y-106349385D01*
X130202976Y-106348534D01*
X130141151Y-106362055D01*
X130096834Y-106349042D01*
X130096705Y-106349385D01*
X130092019Y-106347628D01*
X130092015Y-106347627D01*
X130088304Y-106346236D01*
X130088301Y-106346234D01*
X129991955Y-106310116D01*
X129960316Y-106298255D01*
X129898134Y-106291500D01*
X128901866Y-106291500D01*
X128839684Y-106298255D01*
X128832285Y-106301029D01*
X128832284Y-106301029D01*
X128828725Y-106302363D01*
X128825762Y-106302580D01*
X128824600Y-106302856D01*
X128824555Y-106302668D01*
X128757918Y-106307543D01*
X128695550Y-106273620D01*
X128661423Y-106211363D01*
X128658500Y-106184379D01*
X128658500Y-99776371D01*
X128667808Y-99744669D01*
X132002001Y-99744669D01*
X132002371Y-99751490D01*
X132007895Y-99802352D01*
X132011521Y-99817604D01*
X132056676Y-99938054D01*
X132065214Y-99953649D01*
X132141715Y-100055724D01*
X132154276Y-100068285D01*
X132256351Y-100144786D01*
X132271946Y-100153324D01*
X132392394Y-100198478D01*
X132407649Y-100202105D01*
X132458514Y-100207631D01*
X132465328Y-100208000D01*
X134237885Y-100208000D01*
X134253124Y-100203525D01*
X134254329Y-100202135D01*
X134256000Y-100194452D01*
X134256000Y-100189884D01*
X134764000Y-100189884D01*
X134768475Y-100205123D01*
X134769865Y-100206328D01*
X134777548Y-100207999D01*
X136554669Y-100207999D01*
X136561490Y-100207629D01*
X136612352Y-100202105D01*
X136627604Y-100198479D01*
X136748054Y-100153324D01*
X136763649Y-100144786D01*
X136865724Y-100068285D01*
X136878285Y-100055724D01*
X136954786Y-99953649D01*
X136963324Y-99938054D01*
X137008478Y-99817606D01*
X137012105Y-99802351D01*
X137017631Y-99751486D01*
X137018000Y-99744672D01*
X137018000Y-97972115D01*
X137013525Y-97956876D01*
X137012135Y-97955671D01*
X137004452Y-97954000D01*
X134782115Y-97954000D01*
X134766876Y-97958475D01*
X134765671Y-97959865D01*
X134764000Y-97967548D01*
X134764000Y-100189884D01*
X134256000Y-100189884D01*
X134256000Y-97972115D01*
X134251525Y-97956876D01*
X134250135Y-97955671D01*
X134242452Y-97954000D01*
X132020116Y-97954000D01*
X132004877Y-97958475D01*
X132003672Y-97959865D01*
X132002001Y-97967548D01*
X132002001Y-99744669D01*
X128667808Y-99744669D01*
X128678502Y-99708250D01*
X128695405Y-99687276D01*
X131786905Y-96595776D01*
X131849217Y-96561750D01*
X131920032Y-96566815D01*
X131976868Y-96609362D01*
X132001679Y-96675882D01*
X132002000Y-96684871D01*
X132002000Y-97427885D01*
X132006475Y-97443124D01*
X132007865Y-97444329D01*
X132015548Y-97446000D01*
X136999884Y-97446000D01*
X137015123Y-97441525D01*
X137016328Y-97440135D01*
X137017999Y-97432452D01*
X137017999Y-96118093D01*
X137038001Y-96049972D01*
X137091657Y-96003479D01*
X137161931Y-95993375D01*
X137226511Y-96022869D01*
X137233091Y-96028995D01*
X137765845Y-96561750D01*
X138296348Y-97092253D01*
X138303888Y-97100539D01*
X138308000Y-97107018D01*
X138313777Y-97112443D01*
X138357651Y-97153643D01*
X138360493Y-97156398D01*
X138380230Y-97176135D01*
X138383427Y-97178615D01*
X138392447Y-97186318D01*
X138424679Y-97216586D01*
X138431625Y-97220405D01*
X138431628Y-97220407D01*
X138442434Y-97226348D01*
X138458953Y-97237199D01*
X138474959Y-97249614D01*
X138482228Y-97252759D01*
X138482232Y-97252762D01*
X138515537Y-97267174D01*
X138526187Y-97272391D01*
X138564940Y-97293695D01*
X138572615Y-97295666D01*
X138572616Y-97295666D01*
X138579346Y-97297394D01*
X138581793Y-97298022D01*
X138584562Y-97298733D01*
X138603267Y-97305137D01*
X138621855Y-97313181D01*
X138629678Y-97314420D01*
X138629688Y-97314423D01*
X138665524Y-97320099D01*
X138677144Y-97322505D01*
X138712289Y-97331528D01*
X138719970Y-97333500D01*
X138740224Y-97333500D01*
X138759934Y-97335051D01*
X138779943Y-97338220D01*
X138787835Y-97337474D01*
X138823961Y-97334059D01*
X138835819Y-97333500D01*
X141695803Y-97333500D01*
X141763924Y-97353502D01*
X141810417Y-97407158D01*
X141815326Y-97419623D01*
X141822170Y-97440135D01*
X141833450Y-97473946D01*
X141926522Y-97624348D01*
X141931704Y-97629521D01*
X141950694Y-97648478D01*
X142051697Y-97749305D01*
X142057927Y-97753145D01*
X142057928Y-97753146D01*
X142195090Y-97837694D01*
X142202262Y-97842115D01*
X142282005Y-97868564D01*
X142363611Y-97895632D01*
X142363613Y-97895632D01*
X142370139Y-97897797D01*
X142376975Y-97898497D01*
X142376978Y-97898498D01*
X142420031Y-97902909D01*
X142474600Y-97908500D01*
X143100400Y-97908500D01*
X143103646Y-97908163D01*
X143103650Y-97908163D01*
X143199308Y-97898238D01*
X143199312Y-97898237D01*
X143206166Y-97897526D01*
X143212702Y-97895345D01*
X143212704Y-97895345D01*
X143354547Y-97848022D01*
X143373946Y-97841550D01*
X143524348Y-97748478D01*
X143610784Y-97661891D01*
X143673066Y-97627812D01*
X143743886Y-97632815D01*
X143788976Y-97661736D01*
X143876697Y-97749305D01*
X143882927Y-97753145D01*
X143882928Y-97753146D01*
X144020090Y-97837694D01*
X144027262Y-97842115D01*
X144107005Y-97868564D01*
X144188611Y-97895632D01*
X144188613Y-97895632D01*
X144195139Y-97897797D01*
X144201975Y-97898497D01*
X144201978Y-97898498D01*
X144245031Y-97902909D01*
X144299600Y-97908500D01*
X144925400Y-97908500D01*
X144928646Y-97908163D01*
X144928650Y-97908163D01*
X145024308Y-97898238D01*
X145024312Y-97898237D01*
X145031166Y-97897526D01*
X145037702Y-97895345D01*
X145037704Y-97895345D01*
X145179547Y-97848022D01*
X145198946Y-97841550D01*
X145349348Y-97748478D01*
X145474305Y-97623303D01*
X145530083Y-97532815D01*
X145563275Y-97478968D01*
X145563276Y-97478966D01*
X145567115Y-97472738D01*
X145606664Y-97353502D01*
X145620632Y-97311389D01*
X145620632Y-97311387D01*
X145622797Y-97304861D01*
X145623659Y-97296453D01*
X145628955Y-97244758D01*
X145633500Y-97200400D01*
X145633500Y-96199600D01*
X145633163Y-96196350D01*
X145623238Y-96100692D01*
X145623237Y-96100688D01*
X145622526Y-96093834D01*
X145607893Y-96049972D01*
X145573310Y-95946317D01*
X145566550Y-95926054D01*
X145473478Y-95775652D01*
X145348303Y-95650695D01*
X145342072Y-95646854D01*
X145203968Y-95561725D01*
X145203966Y-95561724D01*
X145197738Y-95557885D01*
X145037254Y-95504655D01*
X145036389Y-95504368D01*
X145036387Y-95504368D01*
X145029861Y-95502203D01*
X145023025Y-95501503D01*
X145023022Y-95501502D01*
X144979969Y-95497091D01*
X144925400Y-95491500D01*
X144559500Y-95491500D01*
X144491379Y-95471498D01*
X144444886Y-95417842D01*
X144433500Y-95365500D01*
X144433500Y-95084500D01*
X144453502Y-95016379D01*
X144507158Y-94969886D01*
X144559500Y-94958500D01*
X144698134Y-94958500D01*
X144760316Y-94951745D01*
X144896705Y-94900615D01*
X144903888Y-94895232D01*
X144903891Y-94895230D01*
X144915784Y-94886316D01*
X144982290Y-94861469D01*
X145051673Y-94876522D01*
G37*
%TD.AperFunction*%
%TA.AperFunction,Conductor*%
G36*
X127008512Y-91063660D02*
G01*
X127026825Y-91083317D01*
X127086739Y-91163261D01*
X127203295Y-91250615D01*
X127339684Y-91301745D01*
X127401866Y-91308500D01*
X127560406Y-91308500D01*
X127628527Y-91328502D01*
X127649501Y-91345405D01*
X130652878Y-94348782D01*
X130686904Y-94411094D01*
X130689092Y-94424703D01*
X130706458Y-94589928D01*
X130765473Y-94771556D01*
X130860960Y-94936944D01*
X130865378Y-94941851D01*
X130865379Y-94941852D01*
X130988747Y-95078866D01*
X130986574Y-95080822D01*
X131017109Y-95130403D01*
X131015747Y-95201387D01*
X130984649Y-95252670D01*
X127411089Y-98826230D01*
X127396677Y-98838616D01*
X127385082Y-98847149D01*
X127385077Y-98847154D01*
X127379182Y-98851492D01*
X127374443Y-98857070D01*
X127374440Y-98857073D01*
X127344965Y-98891768D01*
X127338035Y-98899284D01*
X127332340Y-98904979D01*
X127330060Y-98907861D01*
X127314719Y-98927251D01*
X127311928Y-98930655D01*
X127282325Y-98965500D01*
X127264667Y-98986285D01*
X127261339Y-98992801D01*
X127257972Y-98997850D01*
X127254805Y-99002979D01*
X127250266Y-99008716D01*
X127219345Y-99074875D01*
X127217442Y-99078769D01*
X127184231Y-99143808D01*
X127182492Y-99150916D01*
X127180393Y-99156559D01*
X127178476Y-99162322D01*
X127175378Y-99168950D01*
X127173888Y-99176112D01*
X127173888Y-99176113D01*
X127160514Y-99240412D01*
X127159544Y-99244696D01*
X127142192Y-99315610D01*
X127141500Y-99326764D01*
X127141464Y-99326762D01*
X127141225Y-99330755D01*
X127140851Y-99334947D01*
X127139360Y-99342115D01*
X127139558Y-99349432D01*
X127141454Y-99419521D01*
X127141500Y-99422928D01*
X127141500Y-106332671D01*
X127121498Y-106400792D01*
X127099593Y-106424332D01*
X127100269Y-106425008D01*
X127093919Y-106431358D01*
X127086739Y-106436739D01*
X127081358Y-106443919D01*
X127026826Y-106516681D01*
X126969967Y-106559196D01*
X126899149Y-106564222D01*
X126836855Y-106530162D01*
X126802865Y-106467831D01*
X126800000Y-106441116D01*
X126800000Y-91158884D01*
X126820002Y-91090763D01*
X126873658Y-91044270D01*
X126943932Y-91034166D01*
X127008512Y-91063660D01*
G37*
%TD.AperFunction*%
%TA.AperFunction,Conductor*%
G36*
X150096812Y-101128502D02*
G01*
X150143305Y-101182158D01*
X150153409Y-101252432D01*
X150135951Y-101300616D01*
X150057885Y-101427262D01*
X150002203Y-101595139D01*
X150001503Y-101601975D01*
X150001502Y-101601978D01*
X150000212Y-101614570D01*
X149991500Y-101699600D01*
X149991500Y-102500400D01*
X149991837Y-102503646D01*
X149991837Y-102503650D01*
X149999373Y-102576277D01*
X150002474Y-102606166D01*
X150004655Y-102612702D01*
X150004655Y-102612704D01*
X150025468Y-102675088D01*
X150058450Y-102773946D01*
X150151522Y-102924348D01*
X150276697Y-103049305D01*
X150282927Y-103053145D01*
X150282928Y-103053146D01*
X150328301Y-103081114D01*
X150427262Y-103142115D01*
X150461156Y-103153357D01*
X150588611Y-103195632D01*
X150588613Y-103195632D01*
X150595139Y-103197797D01*
X150601975Y-103198497D01*
X150601978Y-103198498D01*
X150645031Y-103202909D01*
X150699600Y-103208500D01*
X150790500Y-103208500D01*
X150858621Y-103228502D01*
X150905114Y-103282158D01*
X150916500Y-103334500D01*
X150916500Y-103375050D01*
X150896498Y-103443171D01*
X150885941Y-103456271D01*
X150886011Y-103456325D01*
X150881155Y-103462585D01*
X150875547Y-103468193D01*
X150871511Y-103475017D01*
X150871509Y-103475020D01*
X150828112Y-103548401D01*
X150790855Y-103611399D01*
X150788644Y-103619010D01*
X150788643Y-103619012D01*
X150779749Y-103649625D01*
X150744438Y-103771169D01*
X150743934Y-103777574D01*
X150743933Y-103777579D01*
X150743618Y-103781584D01*
X150741500Y-103808498D01*
X150741500Y-104965500D01*
X150721498Y-105033621D01*
X150667842Y-105080114D01*
X150615500Y-105091500D01*
X150584000Y-105091500D01*
X150515879Y-105071498D01*
X150469386Y-105017842D01*
X150458000Y-104965500D01*
X150458000Y-104734615D01*
X150453525Y-104719376D01*
X150452135Y-104718171D01*
X150444452Y-104716500D01*
X149522000Y-104716500D01*
X149453879Y-104696498D01*
X149407386Y-104642842D01*
X149396000Y-104590500D01*
X149396000Y-104190385D01*
X149904000Y-104190385D01*
X149908475Y-104205624D01*
X149909865Y-104206829D01*
X149917548Y-104208500D01*
X150439884Y-104208500D01*
X150455123Y-104204025D01*
X150456328Y-104202635D01*
X150457999Y-104194952D01*
X150457999Y-103811017D01*
X150457805Y-103806080D01*
X150455570Y-103777664D01*
X150453270Y-103765069D01*
X150410893Y-103619210D01*
X150404648Y-103604779D01*
X150328089Y-103475322D01*
X150318449Y-103462896D01*
X150212104Y-103356551D01*
X150199678Y-103346911D01*
X150070221Y-103270352D01*
X150055790Y-103264107D01*
X149921395Y-103225061D01*
X149907294Y-103225101D01*
X149904000Y-103232370D01*
X149904000Y-104190385D01*
X149396000Y-104190385D01*
X149396000Y-103238122D01*
X149392027Y-103224591D01*
X149384129Y-103223456D01*
X149244210Y-103264107D01*
X149229779Y-103270352D01*
X149100322Y-103346911D01*
X149087896Y-103356551D01*
X148981551Y-103462896D01*
X148971911Y-103475322D01*
X148895352Y-103604779D01*
X148889107Y-103619210D01*
X148867938Y-103692072D01*
X148829724Y-103751907D01*
X148765228Y-103781584D01*
X148694925Y-103771680D01*
X148639797Y-103723221D01*
X148552332Y-103581880D01*
X148548478Y-103575652D01*
X148423303Y-103450695D01*
X148368429Y-103416870D01*
X148278968Y-103361725D01*
X148278966Y-103361724D01*
X148272738Y-103357885D01*
X148192995Y-103331436D01*
X148111389Y-103304368D01*
X148111387Y-103304368D01*
X148104861Y-103302203D01*
X148098025Y-103301503D01*
X148098022Y-103301502D01*
X148054969Y-103297091D01*
X148000400Y-103291500D01*
X146999600Y-103291500D01*
X146996354Y-103291837D01*
X146996350Y-103291837D01*
X146900692Y-103301762D01*
X146900688Y-103301763D01*
X146893834Y-103302474D01*
X146887298Y-103304655D01*
X146887296Y-103304655D01*
X146760640Y-103346911D01*
X146726054Y-103358450D01*
X146719826Y-103362304D01*
X146719824Y-103362305D01*
X146703117Y-103372644D01*
X146636814Y-103391500D01*
X146338925Y-103391500D01*
X146270804Y-103371498D01*
X146224311Y-103317842D01*
X146214207Y-103247568D01*
X146243701Y-103182988D01*
X146249830Y-103176405D01*
X148280829Y-101145405D01*
X148343141Y-101111380D01*
X148369924Y-101108500D01*
X150028691Y-101108500D01*
X150096812Y-101128502D01*
G37*
%TD.AperFunction*%
%TA.AperFunction,Conductor*%
G36*
X142383621Y-93053502D02*
G01*
X142430114Y-93107158D01*
X142441500Y-93159500D01*
X142441500Y-94498134D01*
X142448255Y-94560316D01*
X142499385Y-94696705D01*
X142586739Y-94813261D01*
X142703295Y-94900615D01*
X142839684Y-94951745D01*
X142901866Y-94958500D01*
X143040500Y-94958500D01*
X143108621Y-94978502D01*
X143155114Y-95032158D01*
X143166500Y-95084500D01*
X143166500Y-95365500D01*
X143146498Y-95433621D01*
X143092842Y-95480114D01*
X143040500Y-95491500D01*
X142474600Y-95491500D01*
X142471354Y-95491837D01*
X142471350Y-95491837D01*
X142375692Y-95501762D01*
X142375688Y-95501763D01*
X142368834Y-95502474D01*
X142362298Y-95504655D01*
X142362296Y-95504655D01*
X142275838Y-95533500D01*
X142201054Y-95558450D01*
X142050652Y-95651522D01*
X141925695Y-95776697D01*
X141921855Y-95782927D01*
X141921854Y-95782928D01*
X141841755Y-95912873D01*
X141832885Y-95927262D01*
X141822598Y-95958277D01*
X141815337Y-95980168D01*
X141774906Y-96038527D01*
X141709342Y-96065764D01*
X141695744Y-96066500D01*
X139114594Y-96066500D01*
X139046473Y-96046498D01*
X139025499Y-96029595D01*
X138432849Y-95436944D01*
X137503652Y-94507747D01*
X137496112Y-94499461D01*
X137492000Y-94492982D01*
X137442348Y-94446356D01*
X137439507Y-94443602D01*
X137419770Y-94423865D01*
X137416573Y-94421385D01*
X137407551Y-94413680D01*
X137402557Y-94408990D01*
X137375321Y-94383414D01*
X137368375Y-94379595D01*
X137368372Y-94379593D01*
X137357566Y-94373652D01*
X137341047Y-94362801D01*
X137340583Y-94362441D01*
X137325041Y-94350386D01*
X137317772Y-94347241D01*
X137317768Y-94347238D01*
X137284463Y-94332826D01*
X137273813Y-94327609D01*
X137235060Y-94306305D01*
X137215437Y-94301267D01*
X137196734Y-94294863D01*
X137185420Y-94289967D01*
X137185419Y-94289967D01*
X137178145Y-94286819D01*
X137170322Y-94285580D01*
X137170312Y-94285577D01*
X137134476Y-94279901D01*
X137122856Y-94277495D01*
X137087711Y-94268472D01*
X137087710Y-94268472D01*
X137080030Y-94266500D01*
X137059776Y-94266500D01*
X137040065Y-94264949D01*
X137027886Y-94263020D01*
X137020057Y-94261780D01*
X137012165Y-94262526D01*
X136976039Y-94265941D01*
X136964181Y-94266500D01*
X135831018Y-94266500D01*
X135762897Y-94246498D01*
X135716404Y-94192842D01*
X135706300Y-94122568D01*
X135735794Y-94057988D01*
X135779769Y-94025393D01*
X135850722Y-93993803D01*
X135850724Y-93993802D01*
X135856752Y-93991118D01*
X135902935Y-93957564D01*
X135969803Y-93933706D01*
X135976996Y-93933500D01*
X141021233Y-93933500D01*
X141032416Y-93934027D01*
X141039909Y-93935702D01*
X141047835Y-93935453D01*
X141047836Y-93935453D01*
X141107986Y-93933562D01*
X141111945Y-93933500D01*
X141139856Y-93933500D01*
X141143791Y-93933003D01*
X141143856Y-93932995D01*
X141155693Y-93932062D01*
X141187951Y-93931048D01*
X141191970Y-93930922D01*
X141199889Y-93930673D01*
X141219343Y-93925021D01*
X141238700Y-93921013D01*
X141250930Y-93919468D01*
X141250931Y-93919468D01*
X141258797Y-93918474D01*
X141266168Y-93915555D01*
X141266170Y-93915555D01*
X141299912Y-93902196D01*
X141311142Y-93898351D01*
X141345983Y-93888229D01*
X141345984Y-93888229D01*
X141353593Y-93886018D01*
X141360412Y-93881985D01*
X141360417Y-93881983D01*
X141371028Y-93875707D01*
X141388776Y-93867012D01*
X141407617Y-93859552D01*
X141443387Y-93833564D01*
X141453307Y-93827048D01*
X141484535Y-93808580D01*
X141484538Y-93808578D01*
X141491362Y-93804542D01*
X141505683Y-93790221D01*
X141520717Y-93777380D01*
X141525424Y-93773960D01*
X141537107Y-93765472D01*
X141565298Y-93731395D01*
X141573288Y-93722616D01*
X142225499Y-93070405D01*
X142287811Y-93036379D01*
X142314594Y-93033500D01*
X142315500Y-93033500D01*
X142383621Y-93053502D01*
G37*
%TD.AperFunction*%
%TA.AperFunction,Conductor*%
G36*
X134703166Y-91250958D02*
G01*
X134703295Y-91250615D01*
X134707981Y-91252372D01*
X134707985Y-91252373D01*
X134711696Y-91253764D01*
X134711699Y-91253766D01*
X134775727Y-91277769D01*
X134832492Y-91320411D01*
X134857191Y-91386973D01*
X134841983Y-91456321D01*
X134792678Y-91505462D01*
X134792101Y-91505649D01*
X134786584Y-91508997D01*
X134783944Y-91510317D01*
X134780351Y-91511962D01*
X134774945Y-91514669D01*
X134768063Y-91517167D01*
X134761943Y-91521180D01*
X134761942Y-91521180D01*
X134707024Y-91557186D01*
X134703320Y-91559523D01*
X134640893Y-91597405D01*
X134632516Y-91604803D01*
X134632492Y-91604776D01*
X134629500Y-91607429D01*
X134626267Y-91610132D01*
X134620148Y-91614144D01*
X134615116Y-91619456D01*
X134566872Y-91670383D01*
X134564494Y-91672825D01*
X133647198Y-92590121D01*
X133584886Y-92624147D01*
X133514071Y-92619082D01*
X133457235Y-92576535D01*
X133438272Y-92539968D01*
X133436570Y-92534732D01*
X133434527Y-92528444D01*
X133339040Y-92363056D01*
X133265827Y-92281744D01*
X133215675Y-92226045D01*
X133215674Y-92226044D01*
X133211253Y-92221134D01*
X133056752Y-92108882D01*
X133050724Y-92106198D01*
X133050722Y-92106197D01*
X132888319Y-92033891D01*
X132888318Y-92033891D01*
X132882288Y-92031206D01*
X132788887Y-92011353D01*
X132701944Y-91992872D01*
X132701939Y-91992872D01*
X132695487Y-91991500D01*
X132504513Y-91991500D01*
X132498061Y-91992872D01*
X132498056Y-91992872D01*
X132411113Y-92011353D01*
X132317712Y-92031206D01*
X132311682Y-92033891D01*
X132311681Y-92033891D01*
X132149278Y-92106197D01*
X132149276Y-92106198D01*
X132143248Y-92108882D01*
X131988747Y-92221134D01*
X131984332Y-92226037D01*
X131979420Y-92230460D01*
X131978295Y-92229211D01*
X131924986Y-92262051D01*
X131891800Y-92266500D01*
X131514595Y-92266500D01*
X131446474Y-92246498D01*
X131425500Y-92229595D01*
X130719500Y-91523595D01*
X130685474Y-91461283D01*
X130690539Y-91390468D01*
X130733086Y-91333632D01*
X130799606Y-91308821D01*
X130808595Y-91308500D01*
X131398134Y-91308500D01*
X131460316Y-91301745D01*
X131545799Y-91269699D01*
X131588301Y-91253766D01*
X131588304Y-91253764D01*
X131596705Y-91250615D01*
X131597024Y-91251466D01*
X131658849Y-91237945D01*
X131703166Y-91250958D01*
X131703295Y-91250615D01*
X131707981Y-91252372D01*
X131707985Y-91252373D01*
X131711696Y-91253764D01*
X131711699Y-91253766D01*
X131754201Y-91269699D01*
X131839684Y-91301745D01*
X131901866Y-91308500D01*
X132898134Y-91308500D01*
X132960316Y-91301745D01*
X133045799Y-91269699D01*
X133088301Y-91253766D01*
X133088304Y-91253764D01*
X133096705Y-91250615D01*
X133097024Y-91251466D01*
X133158849Y-91237945D01*
X133203166Y-91250958D01*
X133203295Y-91250615D01*
X133207981Y-91252372D01*
X133207985Y-91252373D01*
X133211696Y-91253764D01*
X133211699Y-91253766D01*
X133254201Y-91269699D01*
X133339684Y-91301745D01*
X133401866Y-91308500D01*
X134398134Y-91308500D01*
X134460316Y-91301745D01*
X134545799Y-91269699D01*
X134588301Y-91253766D01*
X134588304Y-91253764D01*
X134596705Y-91250615D01*
X134597024Y-91251466D01*
X134658849Y-91237945D01*
X134703166Y-91250958D01*
G37*
%TD.AperFunction*%
%TA.AperFunction,Conductor*%
G36*
X128770250Y-84828502D02*
G01*
X128816743Y-84882158D01*
X128826847Y-84952432D01*
X128797353Y-85017012D01*
X128791224Y-85023595D01*
X128360224Y-85454595D01*
X128297912Y-85488621D01*
X128271129Y-85491500D01*
X127874600Y-85491500D01*
X127871354Y-85491837D01*
X127871350Y-85491837D01*
X127775692Y-85501762D01*
X127775688Y-85501763D01*
X127768834Y-85502474D01*
X127762298Y-85504655D01*
X127762296Y-85504655D01*
X127698648Y-85525890D01*
X127601054Y-85558450D01*
X127450652Y-85651522D01*
X127325695Y-85776697D01*
X127321855Y-85782927D01*
X127321854Y-85782928D01*
X127314621Y-85794663D01*
X127232885Y-85927262D01*
X127177203Y-86095139D01*
X127166500Y-86199600D01*
X127166500Y-87200400D01*
X127166837Y-87203646D01*
X127166837Y-87203650D01*
X127176641Y-87298134D01*
X127177474Y-87306166D01*
X127179655Y-87312702D01*
X127179655Y-87312704D01*
X127201067Y-87376883D01*
X127233450Y-87473946D01*
X127326522Y-87624348D01*
X127451697Y-87749305D01*
X127457927Y-87753145D01*
X127457928Y-87753146D01*
X127595090Y-87837694D01*
X127602262Y-87842115D01*
X127682005Y-87868564D01*
X127763611Y-87895632D01*
X127763613Y-87895632D01*
X127770139Y-87897797D01*
X127776975Y-87898497D01*
X127776978Y-87898498D01*
X127820031Y-87902909D01*
X127874600Y-87908500D01*
X128500400Y-87908500D01*
X128503646Y-87908163D01*
X128503650Y-87908163D01*
X128599308Y-87898238D01*
X128599312Y-87898237D01*
X128606166Y-87897526D01*
X128612702Y-87895345D01*
X128612704Y-87895345D01*
X128744806Y-87851272D01*
X128773946Y-87841550D01*
X128924348Y-87748478D01*
X129010784Y-87661891D01*
X129073066Y-87627812D01*
X129143886Y-87632815D01*
X129188975Y-87661736D01*
X129234021Y-87706703D01*
X129276697Y-87749305D01*
X129282928Y-87753146D01*
X129282931Y-87753148D01*
X129319117Y-87775454D01*
X129366610Y-87828226D01*
X129379000Y-87882713D01*
X129379000Y-88665500D01*
X129358998Y-88733621D01*
X129305342Y-88780114D01*
X129253000Y-88791500D01*
X128901866Y-88791500D01*
X128839684Y-88798255D01*
X128801680Y-88812502D01*
X128711699Y-88846234D01*
X128711696Y-88846236D01*
X128703295Y-88849385D01*
X128702976Y-88848534D01*
X128641151Y-88862055D01*
X128596834Y-88849042D01*
X128596705Y-88849385D01*
X128592019Y-88847628D01*
X128592015Y-88847627D01*
X128588304Y-88846236D01*
X128588301Y-88846234D01*
X128498320Y-88812502D01*
X128460316Y-88798255D01*
X128398134Y-88791500D01*
X127401866Y-88791500D01*
X127339684Y-88798255D01*
X127203295Y-88849385D01*
X127086739Y-88936739D01*
X127081358Y-88943919D01*
X127026826Y-89016681D01*
X126969967Y-89059196D01*
X126899149Y-89064222D01*
X126836855Y-89030162D01*
X126802865Y-88967831D01*
X126800000Y-88941116D01*
X126800000Y-84934500D01*
X126820002Y-84866379D01*
X126873658Y-84819886D01*
X126926000Y-84808500D01*
X128702129Y-84808500D01*
X128770250Y-84828502D01*
G37*
%TD.AperFunction*%
%TD*%
M02*
