%TF.GenerationSoftware,KiCad,Pcbnew,6.0.8-f2edbf62ab~116~ubuntu22.04.1*%
%TF.CreationDate,2022-10-18T22:53:01+02:00*%
%TF.ProjectId,ble-han-port-if,626c652d-6861-46e2-9d70-6f72742d6966,rev?*%
%TF.SameCoordinates,Original*%
%TF.FileFunction,Soldermask,Top*%
%TF.FilePolarity,Negative*%
%FSLAX46Y46*%
G04 Gerber Fmt 4.6, Leading zero omitted, Abs format (unit mm)*
G04 Created by KiCad (PCBNEW 6.0.8-f2edbf62ab~116~ubuntu22.04.1) date 2022-10-18 22:53:01*
%MOMM*%
%LPD*%
G01*
G04 APERTURE LIST*
G04 Aperture macros list*
%AMRoundRect*
0 Rectangle with rounded corners*
0 $1 Rounding radius*
0 $2 $3 $4 $5 $6 $7 $8 $9 X,Y pos of 4 corners*
0 Add a 4 corners polygon primitive as box body*
4,1,4,$2,$3,$4,$5,$6,$7,$8,$9,$2,$3,0*
0 Add four circle primitives for the rounded corners*
1,1,$1+$1,$2,$3*
1,1,$1+$1,$4,$5*
1,1,$1+$1,$6,$7*
1,1,$1+$1,$8,$9*
0 Add four rect primitives between the rounded corners*
20,1,$1+$1,$2,$3,$4,$5,0*
20,1,$1+$1,$4,$5,$6,$7,0*
20,1,$1+$1,$6,$7,$8,$9,0*
20,1,$1+$1,$8,$9,$2,$3,0*%
G04 Aperture macros list end*
%ADD10R,1.700000X1.700000*%
%ADD11O,1.700000X1.700000*%
%ADD12RoundRect,0.250000X0.262500X0.450000X-0.262500X0.450000X-0.262500X-0.450000X0.262500X-0.450000X0*%
%ADD13RoundRect,0.250000X-0.262500X-0.450000X0.262500X-0.450000X0.262500X0.450000X-0.262500X0.450000X0*%
%ADD14RoundRect,0.250000X0.450000X-0.350000X0.450000X0.350000X-0.450000X0.350000X-0.450000X-0.350000X0*%
%ADD15RoundRect,0.250000X-0.350000X-0.450000X0.350000X-0.450000X0.350000X0.450000X-0.350000X0.450000X0*%
%ADD16RoundRect,0.250000X0.350000X0.450000X-0.350000X0.450000X-0.350000X-0.450000X0.350000X-0.450000X0*%
%ADD17RoundRect,0.150000X-0.150000X0.587500X-0.150000X-0.587500X0.150000X-0.587500X0.150000X0.587500X0*%
%ADD18R,0.900000X1.500000*%
%ADD19R,4.000000X4.000000*%
%ADD20C,2.700000*%
%ADD21RoundRect,0.250000X-0.337500X-0.475000X0.337500X-0.475000X0.337500X0.475000X-0.337500X0.475000X0*%
%ADD22R,1.700000X2.500000*%
%ADD23O,1.700000X2.500000*%
%ADD24RoundRect,0.250000X0.475000X-0.337500X0.475000X0.337500X-0.475000X0.337500X-0.475000X-0.337500X0*%
%ADD25RoundRect,0.250000X0.337500X0.475000X-0.337500X0.475000X-0.337500X-0.475000X0.337500X-0.475000X0*%
G04 APERTURE END LIST*
D10*
%TO.C,C8*%
X137025000Y-116600000D03*
D11*
X134485000Y-116600000D03*
%TD*%
D10*
%TO.C,J2*%
X142000000Y-86400000D03*
D11*
X144540000Y-86400000D03*
X147080000Y-86400000D03*
X149620000Y-86400000D03*
%TD*%
D12*
%TO.C,R9*%
X149812500Y-96600000D03*
X147987500Y-96600000D03*
%TD*%
D13*
%TO.C,R8*%
X142787500Y-96700000D03*
X144612500Y-96700000D03*
%TD*%
D14*
%TO.C,R7*%
X147500000Y-106400000D03*
X147500000Y-104400000D03*
%TD*%
D15*
%TO.C,R5*%
X132400000Y-86600000D03*
X134400000Y-86600000D03*
%TD*%
D13*
%TO.C,R2*%
X128187500Y-86700000D03*
X130012500Y-86700000D03*
%TD*%
D11*
%TO.C,J3*%
X154400000Y-106950000D03*
X154400000Y-104410000D03*
X154400000Y-101870000D03*
X154400000Y-99330000D03*
X154400000Y-96790000D03*
D10*
X154400000Y-94250000D03*
%TD*%
D16*
%TO.C,R4*%
X138600000Y-86600000D03*
X136600000Y-86600000D03*
%TD*%
D17*
%TO.C,Q1*%
X151550000Y-104462500D03*
X149650000Y-104462500D03*
X150600000Y-106337500D03*
%TD*%
D18*
%TO.C,U1*%
X127900000Y-107550000D03*
X129400000Y-107550000D03*
X130900000Y-107550000D03*
X132400000Y-107550000D03*
X133900000Y-107550000D03*
X135400000Y-107550000D03*
X136900000Y-107550000D03*
X138400000Y-107550000D03*
X139900000Y-107550000D03*
X139900000Y-90050000D03*
X138400000Y-90050000D03*
X136900000Y-90050000D03*
X135400000Y-90050000D03*
X133900000Y-90050000D03*
X132400000Y-90050000D03*
X130900000Y-90050000D03*
X129400000Y-90050000D03*
X127900000Y-90050000D03*
D19*
X134510000Y-97700000D03*
%TD*%
D20*
%TO.C,H2*%
X155000000Y-88000000D03*
%TD*%
D10*
%TO.C,J1*%
X143800000Y-93600000D03*
D11*
X146340000Y-93600000D03*
X148880000Y-93600000D03*
%TD*%
D20*
%TO.C,H1*%
X120000000Y-115000000D03*
%TD*%
D15*
%TO.C,R1*%
X136800000Y-112800000D03*
X134800000Y-112800000D03*
%TD*%
D21*
%TO.C,C5*%
X128262500Y-113600000D03*
X130337500Y-113600000D03*
%TD*%
%TO.C,C4*%
X128262500Y-110000000D03*
X130337500Y-110000000D03*
%TD*%
D22*
%TO.C,U4*%
X150002500Y-111292500D03*
D23*
X152542500Y-111292500D03*
X155082500Y-111292500D03*
%TD*%
D24*
%TO.C,C2*%
X157500000Y-107837500D03*
X157500000Y-105762500D03*
%TD*%
D25*
%TO.C,C6*%
X144675000Y-89400000D03*
X142600000Y-89400000D03*
%TD*%
D21*
%TO.C,C3*%
X134762500Y-110650000D03*
X136837500Y-110650000D03*
%TD*%
D14*
%TO.C,R3*%
X132600000Y-112500000D03*
X132600000Y-110500000D03*
%TD*%
D21*
%TO.C,C7*%
X147162500Y-89400000D03*
X149237500Y-89400000D03*
%TD*%
D25*
%TO.C,C1*%
X145137500Y-111300000D03*
X143062500Y-111300000D03*
%TD*%
D14*
%TO.C,R6*%
X151200000Y-102100000D03*
X151200000Y-100100000D03*
%TD*%
M02*
