M48
; DRILL file {KiCad 6.0.8-f2edbf62ab~116~ubuntu22.04.1} date tis 18 okt 2022 22:52:53
; FORMAT={-:-/ absolute / inch / decimal}
; #@! TF.CreationDate,2022-10-18T22:52:53+02:00
; #@! TF.GenerationSoftware,Kicad,Pcbnew,6.0.8-f2edbf62ab~116~ubuntu22.04.1
; #@! TF.FileFunction,MixedPlating,1,2
FMAT,2
INCH
; #@! TA.AperFunction,Plated,PTH,ViaDrill
T1C0.0157
; #@! TA.AperFunction,Plated,PTH,ComponentDrill
T2C0.0394
; #@! TA.AperFunction,Plated,PTH,ComponentDrill
T3C0.0472
; #@! TA.AperFunction,NonPlated,NPTH,ComponentDrill
T4C0.1063
%
G90
G05
T1
X4.878Y-4.5
X5.0059Y-4.624
X5.0256Y-3.4764
X5.0709Y-3.75
X5.1142Y-4.3976
X5.1811Y-3.7165
X5.2126Y-3.3504
X5.2126Y-3.4921
X5.2205Y-3.6575
X5.2441Y-3.8937
X5.248Y-3.8071
X5.248Y-3.8465
X5.2638Y-3.7362
X5.2677Y-3.6142
X5.2953Y-3.8071
X5.2953Y-3.8504
X5.2953Y-3.8898
X5.3307Y-3.6693
X5.3504Y-3.8071
X5.3504Y-3.8465
X5.3504Y-3.8937
X5.4213Y-3.4902
X5.4646Y-3.9409
X5.4843Y-3.7303
X5.5079Y-4.2992
X5.5118Y-3.4094
X5.6024Y-3.5827
X5.6339Y-4.4449
X5.8248Y-4.6102
X5.8898Y-4.0512
X5.9331Y-3.5236
X6.1949Y-4.6043
T2
X5.2947Y-4.5906
X5.3947Y-4.5906
X5.5906Y-3.4016
X5.6614Y-3.685
X5.6906Y-3.4016
X5.7614Y-3.685
X5.7906Y-3.4016
X5.8614Y-3.685
X5.8906Y-3.4016
X6.0787Y-3.7106
X6.0787Y-3.8106
X6.0787Y-3.9106
X6.0787Y-4.0106
X6.0787Y-4.1106
X6.0787Y-4.2106
T3
X5.9056Y-4.3816
X6.0056Y-4.3816
X6.1056Y-4.3816
T4
X4.7244Y-4.5276
X6.1024Y-3.4646
T0
M30
