%TF.GenerationSoftware,KiCad,Pcbnew,6.0.8-f2edbf62ab~116~ubuntu22.04.1*%
%TF.CreationDate,2022-10-18T22:53:01+02:00*%
%TF.ProjectId,ble-han-port-if,626c652d-6861-46e2-9d70-6f72742d6966,rev?*%
%TF.SameCoordinates,Original*%
%TF.FileFunction,Copper,L2,Bot*%
%TF.FilePolarity,Positive*%
%FSLAX46Y46*%
G04 Gerber Fmt 4.6, Leading zero omitted, Abs format (unit mm)*
G04 Created by KiCad (PCBNEW 6.0.8-f2edbf62ab~116~ubuntu22.04.1) date 2022-10-18 22:53:01*
%MOMM*%
%LPD*%
G01*
G04 APERTURE LIST*
%TA.AperFunction,ComponentPad*%
%ADD10R,1.700000X1.700000*%
%TD*%
%TA.AperFunction,ComponentPad*%
%ADD11O,1.700000X1.700000*%
%TD*%
%TA.AperFunction,ComponentPad*%
%ADD12R,1.700000X2.500000*%
%TD*%
%TA.AperFunction,ComponentPad*%
%ADD13O,1.700000X2.500000*%
%TD*%
%TA.AperFunction,ViaPad*%
%ADD14C,0.800000*%
%TD*%
%TA.AperFunction,Conductor*%
%ADD15C,0.250000*%
%TD*%
G04 APERTURE END LIST*
D10*
%TO.P,C8,1*%
%TO.N,+3V3*%
X137025000Y-116600000D03*
D11*
%TO.P,C8,2*%
%TO.N,GND*%
X134485000Y-116600000D03*
%TD*%
D10*
%TO.P,J2,1,Pin_1*%
%TO.N,+3V3*%
X142000000Y-86400000D03*
D11*
%TO.P,J2,2,Pin_2*%
%TO.N,/USB D-*%
X144540000Y-86400000D03*
%TO.P,J2,3,Pin_3*%
%TO.N,/USB D+*%
X147080000Y-86400000D03*
%TO.P,J2,4,Pin_4*%
%TO.N,GND*%
X149620000Y-86400000D03*
%TD*%
%TO.P,J3,6,Pin_6*%
%TO.N,GND*%
X154400000Y-106950000D03*
%TO.P,J3,5,Pin_5*%
%TO.N,/TX*%
X154400000Y-104410000D03*
%TO.P,J3,4,Pin_4*%
%TO.N,unconnected-(J3-Pad4)*%
X154400000Y-101870000D03*
%TO.P,J3,3,Pin_3*%
%TO.N,GND*%
X154400000Y-99330000D03*
%TO.P,J3,2,Pin_2*%
%TO.N,+5V*%
X154400000Y-96790000D03*
D10*
%TO.P,J3,1,Pin_1*%
X154400000Y-94250000D03*
%TD*%
%TO.P,J1,1,Pin_1*%
%TO.N,Net-(J1-Pad1)*%
X143800000Y-93600000D03*
D11*
%TO.P,J1,2,Pin_2*%
%TO.N,GND*%
X146340000Y-93600000D03*
%TO.P,J1,3,Pin_3*%
%TO.N,Net-(J1-Pad3)*%
X148880000Y-93600000D03*
%TD*%
D12*
%TO.P,U4,1,IN*%
%TO.N,+5V*%
X150002500Y-111292500D03*
D13*
%TO.P,U4,2,GND*%
%TO.N,GND*%
X152542500Y-111292500D03*
%TO.P,U4,3,OUT*%
%TO.N,+3V3*%
X155082500Y-111292500D03*
%TD*%
D14*
%TO.N,GND*%
X127650000Y-88300000D03*
X133800000Y-91800000D03*
X139300000Y-94750000D03*
X138800000Y-100100000D03*
X128800000Y-95250000D03*
X127150000Y-117450000D03*
X123900000Y-114300000D03*
X147950000Y-117100000D03*
X157350000Y-116950000D03*
X135900000Y-97700000D03*
X134500000Y-98800000D03*
X134500000Y-96700000D03*
X133300000Y-97700000D03*
X134500000Y-97800000D03*
X133200000Y-98900000D03*
X135900000Y-98900000D03*
X135900000Y-96700000D03*
X133300000Y-96700000D03*
%TO.N,/ledb*%
X132600000Y-92900000D03*
X135400000Y-93200000D03*
%TO.N,/leda*%
X131600000Y-94400000D03*
X133700000Y-94900000D03*
%TO.N,Net-(R4-Pad1)*%
X140000000Y-86600000D03*
X137700000Y-88650000D03*
%TO.N,Net-(R5-Pad1)*%
X132400000Y-88700000D03*
X132400000Y-85100000D03*
%TO.N,GND*%
X149600000Y-102900000D03*
X129900000Y-111700000D03*
X139900000Y-109200000D03*
X143100000Y-112900000D03*
X142300000Y-91000000D03*
X150700000Y-89500000D03*
%TD*%
D15*
%TO.N,Net-(R4-Pad1)*%
X139400000Y-88500000D02*
X137850000Y-88500000D01*
X137850000Y-88500000D02*
X137700000Y-88650000D01*
%TO.N,/ledb*%
X135400000Y-93200000D02*
X132900000Y-93200000D01*
X132900000Y-93200000D02*
X132600000Y-92900000D01*
%TO.N,/leda*%
X132100000Y-94900000D02*
X131600000Y-94400000D01*
X133700000Y-94900000D02*
X132100000Y-94900000D01*
%TO.N,Net-(R4-Pad1)*%
X140000000Y-86600000D02*
X140000000Y-87900000D01*
X140000000Y-87900000D02*
X139400000Y-88500000D01*
%TO.N,Net-(R5-Pad1)*%
X132400000Y-88700000D02*
X132400000Y-85100000D01*
%TD*%
%TA.AperFunction,Conductor*%
%TO.N,GND*%
G36*
X131445317Y-84828502D02*
G01*
X131491810Y-84882158D01*
X131502506Y-84947670D01*
X131489013Y-85076050D01*
X131486496Y-85100000D01*
X131487186Y-85106565D01*
X131504177Y-85268222D01*
X131506458Y-85289928D01*
X131565473Y-85471556D01*
X131568776Y-85477278D01*
X131568777Y-85477279D01*
X131584945Y-85505283D01*
X131660960Y-85636944D01*
X131734137Y-85718215D01*
X131764853Y-85782221D01*
X131766500Y-85802524D01*
X131766500Y-87997476D01*
X131746498Y-88065597D01*
X131734142Y-88081779D01*
X131660960Y-88163056D01*
X131651745Y-88179017D01*
X131592807Y-88281101D01*
X131565473Y-88328444D01*
X131506458Y-88510072D01*
X131486496Y-88700000D01*
X131487186Y-88706565D01*
X131499396Y-88822733D01*
X131506458Y-88889928D01*
X131565473Y-89071556D01*
X131660960Y-89236944D01*
X131788747Y-89378866D01*
X131943248Y-89491118D01*
X131949276Y-89493802D01*
X131949278Y-89493803D01*
X132101338Y-89561504D01*
X132117712Y-89568794D01*
X132211112Y-89588647D01*
X132298056Y-89607128D01*
X132298061Y-89607128D01*
X132304513Y-89608500D01*
X132495487Y-89608500D01*
X132501939Y-89607128D01*
X132501944Y-89607128D01*
X132588888Y-89588647D01*
X132682288Y-89568794D01*
X132698662Y-89561504D01*
X132850722Y-89493803D01*
X132850724Y-89493802D01*
X132856752Y-89491118D01*
X133011253Y-89378866D01*
X133139040Y-89236944D01*
X133234527Y-89071556D01*
X133293542Y-88889928D01*
X133300605Y-88822733D01*
X133312814Y-88706565D01*
X133313504Y-88700000D01*
X133293542Y-88510072D01*
X133234527Y-88328444D01*
X133207194Y-88281101D01*
X133148255Y-88179017D01*
X133139040Y-88163056D01*
X133065863Y-88081785D01*
X133035147Y-88017779D01*
X133033500Y-87997476D01*
X133033500Y-85802524D01*
X133053502Y-85734403D01*
X133065858Y-85718221D01*
X133139040Y-85636944D01*
X133215055Y-85505283D01*
X133231223Y-85477279D01*
X133231224Y-85477278D01*
X133234527Y-85471556D01*
X133293542Y-85289928D01*
X133295824Y-85268222D01*
X133312814Y-85106565D01*
X133313504Y-85100000D01*
X133310987Y-85076050D01*
X133297494Y-84947670D01*
X133310266Y-84877832D01*
X133358768Y-84825985D01*
X133422804Y-84808500D01*
X140984179Y-84808500D01*
X141052300Y-84828502D01*
X141098793Y-84882158D01*
X141108897Y-84952432D01*
X141079403Y-85017012D01*
X141028408Y-85052482D01*
X140911705Y-85096232D01*
X140911704Y-85096233D01*
X140903295Y-85099385D01*
X140786739Y-85186739D01*
X140699385Y-85303295D01*
X140648255Y-85439684D01*
X140641500Y-85501866D01*
X140641500Y-85698105D01*
X140621498Y-85766226D01*
X140567842Y-85812719D01*
X140497568Y-85822823D01*
X140456824Y-85808720D01*
X140456752Y-85808882D01*
X140450724Y-85806198D01*
X140450722Y-85806197D01*
X140288319Y-85733891D01*
X140288318Y-85733891D01*
X140282288Y-85731206D01*
X140188888Y-85711353D01*
X140101944Y-85692872D01*
X140101939Y-85692872D01*
X140095487Y-85691500D01*
X139904513Y-85691500D01*
X139898061Y-85692872D01*
X139898056Y-85692872D01*
X139811112Y-85711353D01*
X139717712Y-85731206D01*
X139711682Y-85733891D01*
X139711681Y-85733891D01*
X139549278Y-85806197D01*
X139549276Y-85806198D01*
X139543248Y-85808882D01*
X139388747Y-85921134D01*
X139260960Y-86063056D01*
X139165473Y-86228444D01*
X139106458Y-86410072D01*
X139105768Y-86416633D01*
X139105768Y-86416635D01*
X139103237Y-86440714D01*
X139086496Y-86600000D01*
X139106458Y-86789928D01*
X139165473Y-86971556D01*
X139260960Y-87136944D01*
X139334137Y-87218215D01*
X139364853Y-87282221D01*
X139366500Y-87302524D01*
X139366500Y-87585405D01*
X139346498Y-87653526D01*
X139329595Y-87674501D01*
X139174499Y-87829596D01*
X139112187Y-87863621D01*
X139085404Y-87866500D01*
X138200645Y-87866500D01*
X138149396Y-87855607D01*
X137988319Y-87783891D01*
X137988318Y-87783891D01*
X137982288Y-87781206D01*
X137887683Y-87761097D01*
X137801944Y-87742872D01*
X137801939Y-87742872D01*
X137795487Y-87741500D01*
X137604513Y-87741500D01*
X137598061Y-87742872D01*
X137598056Y-87742872D01*
X137512317Y-87761097D01*
X137417712Y-87781206D01*
X137411682Y-87783891D01*
X137411681Y-87783891D01*
X137249278Y-87856197D01*
X137249276Y-87856198D01*
X137243248Y-87858882D01*
X137237907Y-87862762D01*
X137237906Y-87862763D01*
X137187843Y-87899136D01*
X137088747Y-87971134D01*
X137084326Y-87976044D01*
X137084325Y-87976045D01*
X136967464Y-88105833D01*
X136960960Y-88113056D01*
X136928791Y-88168774D01*
X136895117Y-88227100D01*
X136865473Y-88278444D01*
X136806458Y-88460072D01*
X136805768Y-88466633D01*
X136805768Y-88466635D01*
X136787186Y-88643435D01*
X136786496Y-88650000D01*
X136787186Y-88656565D01*
X136797015Y-88750079D01*
X136806458Y-88839928D01*
X136865473Y-89021556D01*
X136868776Y-89027278D01*
X136868777Y-89027279D01*
X136884718Y-89054890D01*
X136960960Y-89186944D01*
X136965378Y-89191851D01*
X136965379Y-89191852D01*
X137084325Y-89323955D01*
X137088747Y-89328866D01*
X137243248Y-89441118D01*
X137249276Y-89443802D01*
X137249278Y-89443803D01*
X137346833Y-89487237D01*
X137417712Y-89518794D01*
X137511112Y-89538647D01*
X137598056Y-89557128D01*
X137598061Y-89557128D01*
X137604513Y-89558500D01*
X137795487Y-89558500D01*
X137801939Y-89557128D01*
X137801944Y-89557128D01*
X137888888Y-89538647D01*
X137982288Y-89518794D01*
X138053167Y-89487237D01*
X138150722Y-89443803D01*
X138150724Y-89443802D01*
X138156752Y-89441118D01*
X138311253Y-89328866D01*
X138315675Y-89323955D01*
X138434621Y-89191852D01*
X138434622Y-89191851D01*
X138439040Y-89186944D01*
X138440414Y-89184565D01*
X138495504Y-89142085D01*
X138541216Y-89133500D01*
X139321233Y-89133500D01*
X139332416Y-89134027D01*
X139339909Y-89135702D01*
X139347835Y-89135453D01*
X139347836Y-89135453D01*
X139407986Y-89133562D01*
X139411945Y-89133500D01*
X139439856Y-89133500D01*
X139443791Y-89133003D01*
X139443856Y-89132995D01*
X139455693Y-89132062D01*
X139487951Y-89131048D01*
X139491970Y-89130922D01*
X139499889Y-89130673D01*
X139519343Y-89125021D01*
X139538700Y-89121013D01*
X139550930Y-89119468D01*
X139550931Y-89119468D01*
X139558797Y-89118474D01*
X139566168Y-89115555D01*
X139566170Y-89115555D01*
X139599912Y-89102196D01*
X139611142Y-89098351D01*
X139645983Y-89088229D01*
X139645984Y-89088229D01*
X139653593Y-89086018D01*
X139660412Y-89081985D01*
X139660417Y-89081983D01*
X139671028Y-89075707D01*
X139688776Y-89067012D01*
X139707617Y-89059552D01*
X139743387Y-89033564D01*
X139753307Y-89027048D01*
X139784535Y-89008580D01*
X139784538Y-89008578D01*
X139791362Y-89004542D01*
X139805683Y-88990221D01*
X139820717Y-88977380D01*
X139830694Y-88970131D01*
X139837107Y-88965472D01*
X139865298Y-88931395D01*
X139873288Y-88922616D01*
X140392247Y-88403657D01*
X140400537Y-88396113D01*
X140407018Y-88392000D01*
X140453659Y-88342332D01*
X140456413Y-88339491D01*
X140476134Y-88319770D01*
X140478612Y-88316575D01*
X140486318Y-88307553D01*
X140511158Y-88281101D01*
X140516586Y-88275321D01*
X140526346Y-88257568D01*
X140537199Y-88241045D01*
X140544753Y-88231306D01*
X140549613Y-88225041D01*
X140567176Y-88184457D01*
X140572383Y-88173827D01*
X140593695Y-88135060D01*
X140595666Y-88127383D01*
X140595668Y-88127378D01*
X140598732Y-88115442D01*
X140605138Y-88096730D01*
X140610033Y-88085419D01*
X140613181Y-88078145D01*
X140614421Y-88070317D01*
X140614423Y-88070310D01*
X140618863Y-88042277D01*
X153137009Y-88042277D01*
X153162625Y-88310769D01*
X153163710Y-88315203D01*
X153163711Y-88315209D01*
X153209858Y-88503794D01*
X153226731Y-88572750D01*
X153327985Y-88822733D01*
X153391609Y-88931395D01*
X153444401Y-89021556D01*
X153464265Y-89055482D01*
X153499875Y-89100010D01*
X153584686Y-89206060D01*
X153632716Y-89266119D01*
X153829809Y-89450234D01*
X154051416Y-89603968D01*
X154055499Y-89605999D01*
X154055502Y-89606001D01*
X154171013Y-89663466D01*
X154292894Y-89724101D01*
X154297228Y-89725522D01*
X154297231Y-89725523D01*
X154544853Y-89806698D01*
X154544859Y-89806699D01*
X154549186Y-89808118D01*
X154553677Y-89808898D01*
X154553678Y-89808898D01*
X154811140Y-89853601D01*
X154811148Y-89853602D01*
X154814921Y-89854257D01*
X154818758Y-89854448D01*
X154898578Y-89858422D01*
X154898586Y-89858422D01*
X154900149Y-89858500D01*
X155068512Y-89858500D01*
X155070780Y-89858335D01*
X155070792Y-89858335D01*
X155201884Y-89848823D01*
X155269004Y-89843953D01*
X155273459Y-89842969D01*
X155273462Y-89842969D01*
X155527912Y-89786791D01*
X155527916Y-89786790D01*
X155532372Y-89785806D01*
X155658480Y-89738028D01*
X155780318Y-89691868D01*
X155780321Y-89691867D01*
X155784588Y-89690250D01*
X156020368Y-89559286D01*
X156234773Y-89395657D01*
X156247392Y-89382749D01*
X156420117Y-89206060D01*
X156423312Y-89202792D01*
X156582034Y-88984730D01*
X156665190Y-88826676D01*
X156705490Y-88750079D01*
X156705493Y-88750073D01*
X156707615Y-88746039D01*
X156743849Y-88643435D01*
X156795902Y-88496033D01*
X156795902Y-88496032D01*
X156797425Y-88491720D01*
X156831316Y-88319770D01*
X156848700Y-88231572D01*
X156848701Y-88231566D01*
X156849581Y-88227100D01*
X156852769Y-88163056D01*
X156862764Y-87962292D01*
X156862764Y-87962286D01*
X156862991Y-87957723D01*
X156837375Y-87689231D01*
X156832468Y-87669174D01*
X156774355Y-87431688D01*
X156773269Y-87427250D01*
X156672015Y-87177267D01*
X156535735Y-86944518D01*
X156417127Y-86796206D01*
X156370136Y-86737447D01*
X156370135Y-86737445D01*
X156367284Y-86733881D01*
X156170191Y-86549766D01*
X155948584Y-86396032D01*
X155944501Y-86394001D01*
X155944498Y-86393999D01*
X155779606Y-86311967D01*
X155707106Y-86275899D01*
X155702772Y-86274478D01*
X155702769Y-86274477D01*
X155455147Y-86193302D01*
X155455141Y-86193301D01*
X155450814Y-86191882D01*
X155446322Y-86191102D01*
X155188860Y-86146399D01*
X155188852Y-86146398D01*
X155185079Y-86145743D01*
X155173817Y-86145182D01*
X155101422Y-86141578D01*
X155101414Y-86141578D01*
X155099851Y-86141500D01*
X154931488Y-86141500D01*
X154929220Y-86141665D01*
X154929208Y-86141665D01*
X154798116Y-86151177D01*
X154730996Y-86156047D01*
X154726541Y-86157031D01*
X154726538Y-86157031D01*
X154472088Y-86213209D01*
X154472084Y-86213210D01*
X154467628Y-86214194D01*
X154430016Y-86228444D01*
X154219682Y-86308132D01*
X154219679Y-86308133D01*
X154215412Y-86309750D01*
X153979632Y-86440714D01*
X153765227Y-86604343D01*
X153762034Y-86607609D01*
X153762032Y-86607611D01*
X153712309Y-86658475D01*
X153576688Y-86797208D01*
X153417966Y-87015270D01*
X153394768Y-87059362D01*
X153294510Y-87249921D01*
X153294507Y-87249927D01*
X153292385Y-87253961D01*
X153290865Y-87258266D01*
X153290863Y-87258270D01*
X153204125Y-87503891D01*
X153202575Y-87508280D01*
X153177463Y-87635691D01*
X153154589Y-87751745D01*
X153150419Y-87772900D01*
X153150192Y-87777453D01*
X153150192Y-87777456D01*
X153137976Y-88022856D01*
X153137009Y-88042277D01*
X140618863Y-88042277D01*
X140620099Y-88034476D01*
X140622505Y-88022856D01*
X140631528Y-87987711D01*
X140631528Y-87987710D01*
X140633500Y-87980030D01*
X140633500Y-87959776D01*
X140635051Y-87940065D01*
X140636980Y-87927886D01*
X140638220Y-87920057D01*
X140634059Y-87876038D01*
X140633500Y-87864181D01*
X140633500Y-87750305D01*
X140653502Y-87682184D01*
X140707158Y-87635691D01*
X140777432Y-87625587D01*
X140835064Y-87649479D01*
X140903295Y-87700615D01*
X141039684Y-87751745D01*
X141101866Y-87758500D01*
X142898134Y-87758500D01*
X142960316Y-87751745D01*
X143096705Y-87700615D01*
X143213261Y-87613261D01*
X143300615Y-87496705D01*
X143322799Y-87437529D01*
X143344598Y-87379382D01*
X143387240Y-87322618D01*
X143453802Y-87297918D01*
X143523150Y-87313126D01*
X143557817Y-87341114D01*
X143586250Y-87373938D01*
X143662376Y-87437139D01*
X143753465Y-87512762D01*
X143758126Y-87516632D01*
X143951000Y-87629338D01*
X144159692Y-87709030D01*
X144164760Y-87710061D01*
X144164763Y-87710062D01*
X144259862Y-87729410D01*
X144378597Y-87753567D01*
X144383772Y-87753757D01*
X144383774Y-87753757D01*
X144596673Y-87761564D01*
X144596677Y-87761564D01*
X144601837Y-87761753D01*
X144606957Y-87761097D01*
X144606959Y-87761097D01*
X144818288Y-87734025D01*
X144818289Y-87734025D01*
X144823416Y-87733368D01*
X144828366Y-87731883D01*
X145032429Y-87670661D01*
X145032434Y-87670659D01*
X145037384Y-87669174D01*
X145237994Y-87570896D01*
X145419860Y-87441173D01*
X145578096Y-87283489D01*
X145708453Y-87102077D01*
X145709776Y-87103028D01*
X145756645Y-87059857D01*
X145826580Y-87047625D01*
X145892026Y-87075144D01*
X145919875Y-87106994D01*
X145979987Y-87205088D01*
X146126250Y-87373938D01*
X146202376Y-87437139D01*
X146293465Y-87512762D01*
X146298126Y-87516632D01*
X146491000Y-87629338D01*
X146699692Y-87709030D01*
X146704760Y-87710061D01*
X146704763Y-87710062D01*
X146799862Y-87729410D01*
X146918597Y-87753567D01*
X146923772Y-87753757D01*
X146923774Y-87753757D01*
X147136673Y-87761564D01*
X147136677Y-87761564D01*
X147141837Y-87761753D01*
X147146957Y-87761097D01*
X147146959Y-87761097D01*
X147358288Y-87734025D01*
X147358289Y-87734025D01*
X147363416Y-87733368D01*
X147368366Y-87731883D01*
X147572429Y-87670661D01*
X147572434Y-87670659D01*
X147577384Y-87669174D01*
X147777994Y-87570896D01*
X147959860Y-87441173D01*
X148118096Y-87283489D01*
X148248453Y-87102077D01*
X148249640Y-87102930D01*
X148296960Y-87059362D01*
X148366897Y-87047145D01*
X148432338Y-87074678D01*
X148460166Y-87106511D01*
X148517694Y-87200388D01*
X148523777Y-87208699D01*
X148663213Y-87369667D01*
X148670580Y-87376883D01*
X148834434Y-87512916D01*
X148842881Y-87518831D01*
X149026756Y-87626279D01*
X149036042Y-87630729D01*
X149235001Y-87706703D01*
X149244899Y-87709579D01*
X149348250Y-87730606D01*
X149362299Y-87729410D01*
X149366000Y-87719065D01*
X149366000Y-87718517D01*
X149874000Y-87718517D01*
X149878064Y-87732359D01*
X149891478Y-87734393D01*
X149898184Y-87733534D01*
X149908262Y-87731392D01*
X150112255Y-87670191D01*
X150121842Y-87666433D01*
X150313095Y-87572739D01*
X150321945Y-87567464D01*
X150495328Y-87443792D01*
X150503200Y-87437139D01*
X150654052Y-87286812D01*
X150660730Y-87278965D01*
X150785003Y-87106020D01*
X150790313Y-87097183D01*
X150884670Y-86906267D01*
X150888469Y-86896672D01*
X150950377Y-86692910D01*
X150952555Y-86682837D01*
X150953986Y-86671962D01*
X150951775Y-86657778D01*
X150938617Y-86654000D01*
X149892115Y-86654000D01*
X149876876Y-86658475D01*
X149875671Y-86659865D01*
X149874000Y-86667548D01*
X149874000Y-87718517D01*
X149366000Y-87718517D01*
X149366000Y-86272000D01*
X149386002Y-86203879D01*
X149439658Y-86157386D01*
X149492000Y-86146000D01*
X150938344Y-86146000D01*
X150951875Y-86142027D01*
X150953180Y-86132947D01*
X150911214Y-85965875D01*
X150907894Y-85956124D01*
X150822972Y-85760814D01*
X150818105Y-85751739D01*
X150702426Y-85572926D01*
X150696136Y-85564757D01*
X150552806Y-85407240D01*
X150545273Y-85400215D01*
X150378139Y-85268222D01*
X150369552Y-85262517D01*
X150183117Y-85159599D01*
X150173705Y-85155369D01*
X149972959Y-85084280D01*
X149962989Y-85081646D01*
X149833307Y-85058547D01*
X149769750Y-85026909D01*
X149733387Y-84965932D01*
X149735763Y-84894975D01*
X149776124Y-84836567D01*
X149841656Y-84809252D01*
X149855403Y-84808500D01*
X159065500Y-84808500D01*
X159133621Y-84828502D01*
X159180114Y-84882158D01*
X159191500Y-84934500D01*
X159191500Y-90325008D01*
X159171498Y-90393129D01*
X159117842Y-90439622D01*
X159085886Y-90449348D01*
X159070225Y-90451915D01*
X159012618Y-90461359D01*
X159012609Y-90461361D01*
X159009254Y-90461911D01*
X159005964Y-90462824D01*
X159005966Y-90462824D01*
X158677311Y-90554074D01*
X158677308Y-90554075D01*
X158674016Y-90554989D01*
X158350807Y-90683768D01*
X158043416Y-90846736D01*
X158040601Y-90848644D01*
X158040597Y-90848647D01*
X157758272Y-91040068D01*
X157758265Y-91040074D01*
X157755447Y-91041984D01*
X157490276Y-91267223D01*
X157251012Y-91519811D01*
X157040460Y-91796787D01*
X157038697Y-91799717D01*
X157038695Y-91799720D01*
X156900240Y-92029834D01*
X156861088Y-92094904D01*
X156715001Y-92410668D01*
X156673200Y-92534729D01*
X156616236Y-92703794D01*
X156603910Y-92740375D01*
X156529117Y-93080160D01*
X156528747Y-93083559D01*
X156528746Y-93083567D01*
X156509877Y-93257068D01*
X156491500Y-93426040D01*
X156491500Y-93773960D01*
X156503910Y-93888069D01*
X156527884Y-94108500D01*
X156529117Y-94119840D01*
X156603910Y-94459625D01*
X156605001Y-94462864D01*
X156605003Y-94462870D01*
X156624955Y-94522084D01*
X156715001Y-94789332D01*
X156861088Y-95105096D01*
X156862842Y-95108011D01*
X156862844Y-95108015D01*
X157038695Y-95400280D01*
X157040460Y-95403213D01*
X157251012Y-95680189D01*
X157490276Y-95932777D01*
X157755447Y-96158016D01*
X157758265Y-96159926D01*
X157758272Y-96159932D01*
X158039637Y-96350702D01*
X158043416Y-96353264D01*
X158350807Y-96516232D01*
X158674016Y-96645011D01*
X158677308Y-96645925D01*
X158677311Y-96645926D01*
X158879303Y-96702008D01*
X159009254Y-96738089D01*
X159012609Y-96738639D01*
X159012618Y-96738641D01*
X159070225Y-96748085D01*
X159085885Y-96750652D01*
X159149872Y-96781411D01*
X159187072Y-96841882D01*
X159191500Y-96874992D01*
X159191500Y-98825008D01*
X159171498Y-98893129D01*
X159117842Y-98939622D01*
X159085886Y-98949348D01*
X159070225Y-98951915D01*
X159012618Y-98961359D01*
X159012609Y-98961361D01*
X159009254Y-98961911D01*
X159005964Y-98962824D01*
X159005966Y-98962824D01*
X158677311Y-99054074D01*
X158677308Y-99054075D01*
X158674016Y-99054989D01*
X158350807Y-99183768D01*
X158043416Y-99346736D01*
X158040601Y-99348644D01*
X158040597Y-99348647D01*
X157758272Y-99540068D01*
X157758265Y-99540074D01*
X157755447Y-99541984D01*
X157701305Y-99587973D01*
X157531219Y-99732446D01*
X157490276Y-99767223D01*
X157251012Y-100019811D01*
X157040460Y-100296787D01*
X157038697Y-100299717D01*
X157038695Y-100299720D01*
X156924687Y-100489203D01*
X156861088Y-100594904D01*
X156715001Y-100910668D01*
X156713909Y-100913910D01*
X156617051Y-101201375D01*
X156603910Y-101240375D01*
X156529117Y-101580160D01*
X156528747Y-101583559D01*
X156528746Y-101583567D01*
X156524816Y-101619707D01*
X156491500Y-101926040D01*
X156491500Y-102273960D01*
X156529117Y-102619840D01*
X156603910Y-102959625D01*
X156605001Y-102962864D01*
X156605003Y-102962870D01*
X156613889Y-102989242D01*
X156715001Y-103289332D01*
X156861088Y-103605096D01*
X156862842Y-103608011D01*
X156862844Y-103608015D01*
X156955189Y-103761492D01*
X157040460Y-103903213D01*
X157251012Y-104180189D01*
X157490276Y-104432777D01*
X157755447Y-104658016D01*
X157758265Y-104659926D01*
X157758272Y-104659932D01*
X158040597Y-104851353D01*
X158043416Y-104853264D01*
X158350807Y-105016232D01*
X158674016Y-105145011D01*
X158677308Y-105145925D01*
X158677311Y-105145926D01*
X158879303Y-105202008D01*
X159009254Y-105238089D01*
X159012609Y-105238639D01*
X159012618Y-105238641D01*
X159070225Y-105248085D01*
X159085885Y-105250652D01*
X159149872Y-105281411D01*
X159187072Y-105341882D01*
X159191500Y-105374992D01*
X159191500Y-118165500D01*
X159171498Y-118233621D01*
X159117842Y-118280114D01*
X159065500Y-118291500D01*
X115834500Y-118291500D01*
X115766379Y-118271498D01*
X115719886Y-118217842D01*
X115708500Y-118165500D01*
X115708500Y-116867966D01*
X133153257Y-116867966D01*
X133183565Y-117002446D01*
X133186645Y-117012275D01*
X133266770Y-117209603D01*
X133271413Y-117218794D01*
X133382694Y-117400388D01*
X133388777Y-117408699D01*
X133528213Y-117569667D01*
X133535580Y-117576883D01*
X133699434Y-117712916D01*
X133707881Y-117718831D01*
X133891756Y-117826279D01*
X133901042Y-117830729D01*
X134100001Y-117906703D01*
X134109899Y-117909579D01*
X134213250Y-117930606D01*
X134227299Y-117929410D01*
X134231000Y-117919065D01*
X134231000Y-117918517D01*
X134739000Y-117918517D01*
X134743064Y-117932359D01*
X134756478Y-117934393D01*
X134763184Y-117933534D01*
X134773262Y-117931392D01*
X134977255Y-117870191D01*
X134986842Y-117866433D01*
X135178095Y-117772739D01*
X135186945Y-117767464D01*
X135360328Y-117643792D01*
X135368193Y-117637145D01*
X135472897Y-117532805D01*
X135535268Y-117498889D01*
X135606075Y-117504077D01*
X135662837Y-117546723D01*
X135679819Y-117577826D01*
X135724385Y-117696705D01*
X135811739Y-117813261D01*
X135928295Y-117900615D01*
X136064684Y-117951745D01*
X136126866Y-117958500D01*
X137923134Y-117958500D01*
X137985316Y-117951745D01*
X138121705Y-117900615D01*
X138238261Y-117813261D01*
X138325615Y-117696705D01*
X138376745Y-117560316D01*
X138383500Y-117498134D01*
X138383500Y-115701866D01*
X138376745Y-115639684D01*
X138325615Y-115503295D01*
X138238261Y-115386739D01*
X138121705Y-115299385D01*
X137985316Y-115248255D01*
X137923134Y-115241500D01*
X136126866Y-115241500D01*
X136064684Y-115248255D01*
X135928295Y-115299385D01*
X135811739Y-115386739D01*
X135724385Y-115503295D01*
X135721233Y-115511703D01*
X135721232Y-115511705D01*
X135679722Y-115622433D01*
X135637081Y-115679198D01*
X135570519Y-115703898D01*
X135501170Y-115688691D01*
X135468546Y-115663004D01*
X135417799Y-115607234D01*
X135410273Y-115600215D01*
X135243139Y-115468222D01*
X135234552Y-115462517D01*
X135048117Y-115359599D01*
X135038705Y-115355369D01*
X134837959Y-115284280D01*
X134827988Y-115281646D01*
X134756837Y-115268972D01*
X134743540Y-115270432D01*
X134739000Y-115284989D01*
X134739000Y-117918517D01*
X134231000Y-117918517D01*
X134231000Y-116872115D01*
X134226525Y-116856876D01*
X134225135Y-116855671D01*
X134217452Y-116854000D01*
X133168225Y-116854000D01*
X133154694Y-116857973D01*
X133153257Y-116867966D01*
X115708500Y-116867966D01*
X115708500Y-115042277D01*
X118137009Y-115042277D01*
X118162625Y-115310769D01*
X118163710Y-115315203D01*
X118163711Y-115315209D01*
X118211793Y-115511703D01*
X118226731Y-115572750D01*
X118327985Y-115822733D01*
X118464265Y-116055482D01*
X118576377Y-116195671D01*
X118584686Y-116206060D01*
X118632716Y-116266119D01*
X118829809Y-116450234D01*
X119051416Y-116603968D01*
X119055499Y-116605999D01*
X119055502Y-116606001D01*
X119171013Y-116663466D01*
X119292894Y-116724101D01*
X119297228Y-116725522D01*
X119297231Y-116725523D01*
X119544853Y-116806698D01*
X119544859Y-116806699D01*
X119549186Y-116808118D01*
X119553677Y-116808898D01*
X119553678Y-116808898D01*
X119811140Y-116853601D01*
X119811148Y-116853602D01*
X119814921Y-116854257D01*
X119818758Y-116854448D01*
X119898578Y-116858422D01*
X119898586Y-116858422D01*
X119900149Y-116858500D01*
X120068512Y-116858500D01*
X120070780Y-116858335D01*
X120070792Y-116858335D01*
X120201884Y-116848823D01*
X120269004Y-116843953D01*
X120273459Y-116842969D01*
X120273462Y-116842969D01*
X120527912Y-116786791D01*
X120527916Y-116786790D01*
X120532372Y-116785806D01*
X120658480Y-116738028D01*
X120780318Y-116691868D01*
X120780321Y-116691867D01*
X120784588Y-116690250D01*
X121020368Y-116559286D01*
X121234773Y-116395657D01*
X121294868Y-116334183D01*
X133149389Y-116334183D01*
X133150912Y-116342607D01*
X133163292Y-116346000D01*
X134212885Y-116346000D01*
X134228124Y-116341525D01*
X134229329Y-116340135D01*
X134231000Y-116332452D01*
X134231000Y-115283102D01*
X134227082Y-115269758D01*
X134212806Y-115267771D01*
X134174324Y-115273660D01*
X134164288Y-115276051D01*
X133961868Y-115342212D01*
X133952359Y-115346209D01*
X133763463Y-115444542D01*
X133754738Y-115450036D01*
X133584433Y-115577905D01*
X133576726Y-115584748D01*
X133429590Y-115738717D01*
X133423104Y-115746727D01*
X133303098Y-115922649D01*
X133298000Y-115931623D01*
X133208338Y-116124783D01*
X133204775Y-116134470D01*
X133149389Y-116334183D01*
X121294868Y-116334183D01*
X121423312Y-116202792D01*
X121582034Y-115984730D01*
X121665190Y-115826676D01*
X121705490Y-115750079D01*
X121705493Y-115750073D01*
X121707615Y-115746039D01*
X121723215Y-115701866D01*
X121795902Y-115496033D01*
X121795902Y-115496032D01*
X121797425Y-115491720D01*
X121840404Y-115273660D01*
X121848700Y-115231572D01*
X121848701Y-115231566D01*
X121849581Y-115227100D01*
X121858782Y-115042277D01*
X121862764Y-114962292D01*
X121862764Y-114962286D01*
X121862991Y-114957723D01*
X121837375Y-114689231D01*
X121792042Y-114503967D01*
X121774355Y-114431688D01*
X121773269Y-114427250D01*
X121672015Y-114177267D01*
X121535735Y-113944518D01*
X121417928Y-113797208D01*
X121370136Y-113737447D01*
X121370135Y-113737445D01*
X121367284Y-113733881D01*
X121170191Y-113549766D01*
X120948584Y-113396032D01*
X120944501Y-113394001D01*
X120944498Y-113393999D01*
X120779606Y-113311967D01*
X120707106Y-113275899D01*
X120702772Y-113274478D01*
X120702769Y-113274477D01*
X120455147Y-113193302D01*
X120455141Y-113193301D01*
X120450814Y-113191882D01*
X120446322Y-113191102D01*
X120188860Y-113146399D01*
X120188852Y-113146398D01*
X120185079Y-113145743D01*
X120173817Y-113145182D01*
X120101422Y-113141578D01*
X120101414Y-113141578D01*
X120099851Y-113141500D01*
X119931488Y-113141500D01*
X119929220Y-113141665D01*
X119929208Y-113141665D01*
X119798116Y-113151177D01*
X119730996Y-113156047D01*
X119726541Y-113157031D01*
X119726538Y-113157031D01*
X119472088Y-113213209D01*
X119472084Y-113213210D01*
X119467628Y-113214194D01*
X119341520Y-113261972D01*
X119219682Y-113308132D01*
X119219679Y-113308133D01*
X119215412Y-113309750D01*
X118979632Y-113440714D01*
X118765227Y-113604343D01*
X118576688Y-113797208D01*
X118417966Y-114015270D01*
X118415844Y-114019304D01*
X118294510Y-114249921D01*
X118294507Y-114249927D01*
X118292385Y-114253961D01*
X118290865Y-114258266D01*
X118290863Y-114258270D01*
X118204098Y-114503967D01*
X118202575Y-114508280D01*
X118150419Y-114772900D01*
X118150192Y-114777453D01*
X118150192Y-114777456D01*
X118140991Y-114962292D01*
X118137009Y-115042277D01*
X115708500Y-115042277D01*
X115708500Y-112926000D01*
X115728502Y-112857879D01*
X115782158Y-112811386D01*
X115834500Y-112800000D01*
X126800000Y-112800000D01*
X126800000Y-112590634D01*
X148644000Y-112590634D01*
X148650755Y-112652816D01*
X148701885Y-112789205D01*
X148789239Y-112905761D01*
X148905795Y-112993115D01*
X149042184Y-113044245D01*
X149104366Y-113051000D01*
X150900634Y-113051000D01*
X150962816Y-113044245D01*
X151099205Y-112993115D01*
X151215761Y-112905761D01*
X151303115Y-112789205D01*
X151332891Y-112709778D01*
X151347920Y-112669689D01*
X151390562Y-112612925D01*
X151457123Y-112588225D01*
X151526472Y-112603433D01*
X151557072Y-112626947D01*
X151635734Y-112709406D01*
X151643686Y-112716441D01*
X151820025Y-112847641D01*
X151829062Y-112853245D01*
X152024984Y-112952857D01*
X152034835Y-112956857D01*
X152244740Y-113022034D01*
X152255124Y-113024317D01*
X152270543Y-113026361D01*
X152284707Y-113024165D01*
X152288500Y-113010978D01*
X152288500Y-113008692D01*
X152796500Y-113008692D01*
X152800473Y-113022223D01*
X152811080Y-113023748D01*
X152928921Y-112999023D01*
X152939117Y-112995963D01*
X153143529Y-112915237D01*
X153153061Y-112910506D01*
X153340962Y-112796484D01*
X153349552Y-112790220D01*
X153515552Y-112646173D01*
X153522972Y-112638542D01*
X153662326Y-112468589D01*
X153668350Y-112459822D01*
X153702065Y-112400594D01*
X153753147Y-112351288D01*
X153822777Y-112337426D01*
X153888848Y-112363409D01*
X153916087Y-112392559D01*
X154019941Y-112546819D01*
X154023620Y-112550676D01*
X154023622Y-112550678D01*
X154064979Y-112594031D01*
X154179076Y-112713635D01*
X154364042Y-112851254D01*
X154368793Y-112853670D01*
X154368797Y-112853672D01*
X154377072Y-112857879D01*
X154569551Y-112955740D01*
X154574645Y-112957322D01*
X154574648Y-112957323D01*
X154740083Y-113008692D01*
X154789727Y-113024107D01*
X154795016Y-113024808D01*
X155012989Y-113053698D01*
X155012994Y-113053698D01*
X155018274Y-113054398D01*
X155023603Y-113054198D01*
X155023605Y-113054198D01*
X155133466Y-113050073D01*
X155248658Y-113045749D01*
X155474291Y-112998407D01*
X155479250Y-112996449D01*
X155479252Y-112996448D01*
X155683756Y-112915685D01*
X155683758Y-112915684D01*
X155688721Y-112913724D01*
X155694025Y-112910506D01*
X155840776Y-112821455D01*
X155885817Y-112794123D01*
X155901174Y-112780797D01*
X156055912Y-112646523D01*
X156055914Y-112646521D01*
X156059945Y-112643023D01*
X156105703Y-112587217D01*
X156202740Y-112468873D01*
X156202744Y-112468867D01*
X156206124Y-112464745D01*
X156208927Y-112459822D01*
X156317532Y-112269029D01*
X156320175Y-112264386D01*
X156398837Y-112047675D01*
X156421523Y-111922220D01*
X156439123Y-111824892D01*
X156439124Y-111824885D01*
X156439861Y-111820808D01*
X156441000Y-111796656D01*
X156441000Y-110834610D01*
X156426420Y-110662780D01*
X156425082Y-110657625D01*
X156425081Y-110657619D01*
X156369843Y-110444797D01*
X156369842Y-110444793D01*
X156368501Y-110439628D01*
X156273812Y-110229425D01*
X156145059Y-110038181D01*
X156103262Y-109994366D01*
X156061203Y-109950278D01*
X155985924Y-109871365D01*
X155800958Y-109733746D01*
X155796207Y-109731330D01*
X155796203Y-109731328D01*
X155698204Y-109681503D01*
X155595449Y-109629260D01*
X155590355Y-109627678D01*
X155590352Y-109627677D01*
X155380371Y-109562476D01*
X155375273Y-109560893D01*
X155369984Y-109560192D01*
X155152011Y-109531302D01*
X155152006Y-109531302D01*
X155146726Y-109530602D01*
X155141397Y-109530802D01*
X155141395Y-109530802D01*
X155046384Y-109534369D01*
X154916342Y-109539251D01*
X154690709Y-109586593D01*
X154685750Y-109588551D01*
X154685748Y-109588552D01*
X154481244Y-109669315D01*
X154481242Y-109669316D01*
X154476279Y-109671276D01*
X154471720Y-109674043D01*
X154471717Y-109674044D01*
X154376613Y-109731755D01*
X154279183Y-109790877D01*
X154275153Y-109794374D01*
X154181984Y-109875222D01*
X154105055Y-109941977D01*
X154070984Y-109983530D01*
X153962260Y-110116127D01*
X153962256Y-110116133D01*
X153958876Y-110120255D01*
X153956236Y-110124893D01*
X153922347Y-110184428D01*
X153871265Y-110233734D01*
X153801635Y-110247596D01*
X153735564Y-110221613D01*
X153708325Y-110192463D01*
X153607650Y-110042925D01*
X153600981Y-110034630D01*
X153449272Y-109875600D01*
X153441314Y-109868559D01*
X153264975Y-109737359D01*
X153255938Y-109731755D01*
X153060016Y-109632143D01*
X153050165Y-109628143D01*
X152840260Y-109562966D01*
X152829876Y-109560683D01*
X152814457Y-109558639D01*
X152800293Y-109560835D01*
X152796500Y-109574022D01*
X152796500Y-113008692D01*
X152288500Y-113008692D01*
X152288500Y-109576308D01*
X152284527Y-109562777D01*
X152273920Y-109561252D01*
X152156079Y-109585977D01*
X152145883Y-109589037D01*
X151941471Y-109669763D01*
X151931939Y-109674494D01*
X151744038Y-109788516D01*
X151735448Y-109794780D01*
X151569448Y-109938827D01*
X151562033Y-109946453D01*
X151561767Y-109946777D01*
X151561620Y-109946877D01*
X151558313Y-109950278D01*
X151557620Y-109949604D01*
X151503108Y-109986773D01*
X151432138Y-109988707D01*
X151371388Y-109951965D01*
X151346348Y-109911118D01*
X151306268Y-109804205D01*
X151306267Y-109804203D01*
X151303115Y-109795795D01*
X151215761Y-109679239D01*
X151099205Y-109591885D01*
X150962816Y-109540755D01*
X150900634Y-109534000D01*
X149104366Y-109534000D01*
X149042184Y-109540755D01*
X148905795Y-109591885D01*
X148789239Y-109679239D01*
X148701885Y-109795795D01*
X148650755Y-109932184D01*
X148644000Y-109994366D01*
X148644000Y-112590634D01*
X126800000Y-112590634D01*
X126800000Y-107217966D01*
X153068257Y-107217966D01*
X153098565Y-107352446D01*
X153101645Y-107362275D01*
X153181770Y-107559603D01*
X153186413Y-107568794D01*
X153297694Y-107750388D01*
X153303777Y-107758699D01*
X153443213Y-107919667D01*
X153450580Y-107926883D01*
X153614434Y-108062916D01*
X153622881Y-108068831D01*
X153806756Y-108176279D01*
X153816042Y-108180729D01*
X154015001Y-108256703D01*
X154024899Y-108259579D01*
X154128250Y-108280606D01*
X154142299Y-108279410D01*
X154146000Y-108269065D01*
X154146000Y-108268517D01*
X154654000Y-108268517D01*
X154658064Y-108282359D01*
X154671478Y-108284393D01*
X154678184Y-108283534D01*
X154688262Y-108281392D01*
X154892255Y-108220191D01*
X154901842Y-108216433D01*
X155093095Y-108122739D01*
X155101945Y-108117464D01*
X155275328Y-107993792D01*
X155283200Y-107987139D01*
X155434052Y-107836812D01*
X155440730Y-107828965D01*
X155565003Y-107656020D01*
X155570313Y-107647183D01*
X155664670Y-107456267D01*
X155668469Y-107446672D01*
X155730377Y-107242910D01*
X155732555Y-107232837D01*
X155733986Y-107221962D01*
X155731775Y-107207778D01*
X155718617Y-107204000D01*
X154672115Y-107204000D01*
X154656876Y-107208475D01*
X154655671Y-107209865D01*
X154654000Y-107217548D01*
X154654000Y-108268517D01*
X154146000Y-108268517D01*
X154146000Y-107222115D01*
X154141525Y-107206876D01*
X154140135Y-107205671D01*
X154132452Y-107204000D01*
X153083225Y-107204000D01*
X153069694Y-107207973D01*
X153068257Y-107217966D01*
X126800000Y-107217966D01*
X126800000Y-104376695D01*
X153037251Y-104376695D01*
X153037548Y-104381848D01*
X153037548Y-104381851D01*
X153043011Y-104476590D01*
X153050110Y-104599715D01*
X153051247Y-104604761D01*
X153051248Y-104604767D01*
X153071119Y-104692939D01*
X153099222Y-104817639D01*
X153137461Y-104911811D01*
X153179862Y-105016232D01*
X153183266Y-105024616D01*
X153299987Y-105215088D01*
X153446250Y-105383938D01*
X153618126Y-105526632D01*
X153691955Y-105569774D01*
X153740679Y-105621412D01*
X153753750Y-105691195D01*
X153727019Y-105756967D01*
X153686562Y-105790327D01*
X153678457Y-105794546D01*
X153669738Y-105800036D01*
X153499433Y-105927905D01*
X153491726Y-105934748D01*
X153344590Y-106088717D01*
X153338104Y-106096727D01*
X153218098Y-106272649D01*
X153213000Y-106281623D01*
X153123338Y-106474783D01*
X153119775Y-106484470D01*
X153064389Y-106684183D01*
X153065912Y-106692607D01*
X153078292Y-106696000D01*
X155718344Y-106696000D01*
X155731875Y-106692027D01*
X155733180Y-106682947D01*
X155691214Y-106515875D01*
X155687894Y-106506124D01*
X155602972Y-106310814D01*
X155598105Y-106301739D01*
X155482426Y-106122926D01*
X155476136Y-106114757D01*
X155332806Y-105957240D01*
X155325273Y-105950215D01*
X155158139Y-105818222D01*
X155149556Y-105812520D01*
X155112602Y-105792120D01*
X155062631Y-105741687D01*
X155047859Y-105672245D01*
X155072975Y-105605839D01*
X155100327Y-105579232D01*
X155123797Y-105562491D01*
X155279860Y-105451173D01*
X155438096Y-105293489D01*
X155497594Y-105210689D01*
X155565435Y-105116277D01*
X155568453Y-105112077D01*
X155667430Y-104911811D01*
X155732370Y-104698069D01*
X155761529Y-104476590D01*
X155761762Y-104467042D01*
X155763074Y-104413365D01*
X155763074Y-104413361D01*
X155763156Y-104410000D01*
X155744852Y-104187361D01*
X155690431Y-103970702D01*
X155601354Y-103765840D01*
X155526171Y-103649625D01*
X155482822Y-103582617D01*
X155482820Y-103582614D01*
X155480014Y-103578277D01*
X155329670Y-103413051D01*
X155325619Y-103409852D01*
X155325615Y-103409848D01*
X155158414Y-103277800D01*
X155158410Y-103277798D01*
X155154359Y-103274598D01*
X155113053Y-103251796D01*
X155063084Y-103201364D01*
X155048312Y-103131921D01*
X155073428Y-103065516D01*
X155100780Y-103038909D01*
X155144603Y-103007650D01*
X155279860Y-102911173D01*
X155438096Y-102753489D01*
X155497594Y-102670689D01*
X155565435Y-102576277D01*
X155568453Y-102572077D01*
X155667430Y-102371811D01*
X155732370Y-102158069D01*
X155761529Y-101936590D01*
X155763156Y-101870000D01*
X155744852Y-101647361D01*
X155690431Y-101430702D01*
X155601354Y-101225840D01*
X155480014Y-101038277D01*
X155329670Y-100873051D01*
X155325619Y-100869852D01*
X155325615Y-100869848D01*
X155158414Y-100737800D01*
X155158410Y-100737798D01*
X155154359Y-100734598D01*
X155112569Y-100711529D01*
X155062598Y-100661097D01*
X155047826Y-100591654D01*
X155072942Y-100525248D01*
X155100294Y-100498641D01*
X155275328Y-100373792D01*
X155283200Y-100367139D01*
X155434052Y-100216812D01*
X155440730Y-100208965D01*
X155565003Y-100036020D01*
X155570313Y-100027183D01*
X155664670Y-99836267D01*
X155668469Y-99826672D01*
X155730377Y-99622910D01*
X155732555Y-99612837D01*
X155733986Y-99601962D01*
X155731775Y-99587778D01*
X155718617Y-99584000D01*
X153083225Y-99584000D01*
X153069694Y-99587973D01*
X153068257Y-99597966D01*
X153098565Y-99732446D01*
X153101645Y-99742275D01*
X153181770Y-99939603D01*
X153186413Y-99948794D01*
X153297694Y-100130388D01*
X153303777Y-100138699D01*
X153443213Y-100299667D01*
X153450580Y-100306883D01*
X153614434Y-100442916D01*
X153622881Y-100448831D01*
X153691969Y-100489203D01*
X153740693Y-100540842D01*
X153753764Y-100610625D01*
X153727033Y-100676396D01*
X153686584Y-100709752D01*
X153673607Y-100716507D01*
X153669474Y-100719610D01*
X153669471Y-100719612D01*
X153499100Y-100847530D01*
X153494965Y-100850635D01*
X153340629Y-101012138D01*
X153214743Y-101196680D01*
X153120688Y-101399305D01*
X153060989Y-101614570D01*
X153037251Y-101836695D01*
X153037548Y-101841848D01*
X153037548Y-101841851D01*
X153043011Y-101936590D01*
X153050110Y-102059715D01*
X153051247Y-102064761D01*
X153051248Y-102064767D01*
X153071119Y-102152939D01*
X153099222Y-102277639D01*
X153183266Y-102484616D01*
X153299987Y-102675088D01*
X153446250Y-102843938D01*
X153618126Y-102986632D01*
X153688595Y-103027811D01*
X153691445Y-103029476D01*
X153740169Y-103081114D01*
X153753240Y-103150897D01*
X153726509Y-103216669D01*
X153686055Y-103250027D01*
X153673607Y-103256507D01*
X153669474Y-103259610D01*
X153669471Y-103259612D01*
X153499100Y-103387530D01*
X153494965Y-103390635D01*
X153340629Y-103552138D01*
X153337715Y-103556410D01*
X153337714Y-103556411D01*
X153302512Y-103608015D01*
X153214743Y-103736680D01*
X153120688Y-103939305D01*
X153060989Y-104154570D01*
X153037251Y-104376695D01*
X126800000Y-104376695D01*
X126800000Y-96756695D01*
X153037251Y-96756695D01*
X153037548Y-96761848D01*
X153037548Y-96761851D01*
X153043011Y-96856590D01*
X153050110Y-96979715D01*
X153051247Y-96984761D01*
X153051248Y-96984767D01*
X153071119Y-97072939D01*
X153099222Y-97197639D01*
X153183266Y-97404616D01*
X153299987Y-97595088D01*
X153446250Y-97763938D01*
X153618126Y-97906632D01*
X153691955Y-97949774D01*
X153740679Y-98001412D01*
X153753750Y-98071195D01*
X153727019Y-98136967D01*
X153686562Y-98170327D01*
X153678457Y-98174546D01*
X153669738Y-98180036D01*
X153499433Y-98307905D01*
X153491726Y-98314748D01*
X153344590Y-98468717D01*
X153338104Y-98476727D01*
X153218098Y-98652649D01*
X153213000Y-98661623D01*
X153123338Y-98854783D01*
X153119775Y-98864470D01*
X153064389Y-99064183D01*
X153065912Y-99072607D01*
X153078292Y-99076000D01*
X155718344Y-99076000D01*
X155731875Y-99072027D01*
X155733180Y-99062947D01*
X155691214Y-98895875D01*
X155687894Y-98886124D01*
X155602972Y-98690814D01*
X155598105Y-98681739D01*
X155482426Y-98502926D01*
X155476136Y-98494757D01*
X155332806Y-98337240D01*
X155325273Y-98330215D01*
X155158139Y-98198222D01*
X155149556Y-98192520D01*
X155112602Y-98172120D01*
X155062631Y-98121687D01*
X155047859Y-98052245D01*
X155072975Y-97985839D01*
X155100327Y-97959232D01*
X155123797Y-97942491D01*
X155279860Y-97831173D01*
X155438096Y-97673489D01*
X155497594Y-97590689D01*
X155565435Y-97496277D01*
X155568453Y-97492077D01*
X155667430Y-97291811D01*
X155732370Y-97078069D01*
X155761529Y-96856590D01*
X155761611Y-96853240D01*
X155763074Y-96793365D01*
X155763074Y-96793361D01*
X155763156Y-96790000D01*
X155744852Y-96567361D01*
X155690431Y-96350702D01*
X155601354Y-96145840D01*
X155504854Y-95996674D01*
X155482822Y-95962617D01*
X155482820Y-95962614D01*
X155480014Y-95958277D01*
X155465005Y-95941782D01*
X155332798Y-95796488D01*
X155301746Y-95732642D01*
X155310141Y-95662143D01*
X155355317Y-95607375D01*
X155381761Y-95593706D01*
X155488297Y-95553767D01*
X155496705Y-95550615D01*
X155613261Y-95463261D01*
X155700615Y-95346705D01*
X155751745Y-95210316D01*
X155758500Y-95148134D01*
X155758500Y-93351866D01*
X155751745Y-93289684D01*
X155700615Y-93153295D01*
X155613261Y-93036739D01*
X155496705Y-92949385D01*
X155360316Y-92898255D01*
X155298134Y-92891500D01*
X153501866Y-92891500D01*
X153439684Y-92898255D01*
X153303295Y-92949385D01*
X153186739Y-93036739D01*
X153099385Y-93153295D01*
X153048255Y-93289684D01*
X153041500Y-93351866D01*
X153041500Y-95148134D01*
X153048255Y-95210316D01*
X153099385Y-95346705D01*
X153186739Y-95463261D01*
X153303295Y-95550615D01*
X153311704Y-95553767D01*
X153311705Y-95553768D01*
X153420451Y-95594535D01*
X153477216Y-95637176D01*
X153501916Y-95703738D01*
X153486709Y-95773087D01*
X153467316Y-95799568D01*
X153340629Y-95932138D01*
X153337715Y-95936410D01*
X153337714Y-95936411D01*
X153278498Y-96023218D01*
X153214743Y-96116680D01*
X153120688Y-96319305D01*
X153060989Y-96534570D01*
X153037251Y-96756695D01*
X126800000Y-96756695D01*
X126800000Y-94400000D01*
X130686496Y-94400000D01*
X130706458Y-94589928D01*
X130765473Y-94771556D01*
X130860960Y-94936944D01*
X130988747Y-95078866D01*
X131143248Y-95191118D01*
X131149276Y-95193802D01*
X131149278Y-95193803D01*
X131202986Y-95217715D01*
X131317712Y-95268794D01*
X131411113Y-95288647D01*
X131498056Y-95307128D01*
X131498061Y-95307128D01*
X131504513Y-95308500D01*
X131559691Y-95308500D01*
X131627812Y-95328502D01*
X131645942Y-95342648D01*
X131657651Y-95353643D01*
X131660495Y-95356400D01*
X131680230Y-95376135D01*
X131683427Y-95378615D01*
X131692447Y-95386318D01*
X131724679Y-95416586D01*
X131731625Y-95420405D01*
X131731628Y-95420407D01*
X131742434Y-95426348D01*
X131758953Y-95437199D01*
X131774959Y-95449614D01*
X131782228Y-95452759D01*
X131782232Y-95452762D01*
X131815537Y-95467174D01*
X131826187Y-95472391D01*
X131864940Y-95493695D01*
X131872615Y-95495666D01*
X131872616Y-95495666D01*
X131884562Y-95498733D01*
X131903267Y-95505137D01*
X131921855Y-95513181D01*
X131929678Y-95514420D01*
X131929688Y-95514423D01*
X131965524Y-95520099D01*
X131977144Y-95522505D01*
X132012289Y-95531528D01*
X132019970Y-95533500D01*
X132040224Y-95533500D01*
X132059934Y-95535051D01*
X132079943Y-95538220D01*
X132087835Y-95537474D01*
X132123961Y-95534059D01*
X132135819Y-95533500D01*
X132991800Y-95533500D01*
X133059921Y-95553502D01*
X133079147Y-95569843D01*
X133079420Y-95569540D01*
X133084332Y-95573963D01*
X133088747Y-95578866D01*
X133109172Y-95593706D01*
X133231625Y-95682673D01*
X133243248Y-95691118D01*
X133249276Y-95693802D01*
X133249278Y-95693803D01*
X133411681Y-95766109D01*
X133417712Y-95768794D01*
X133500113Y-95786309D01*
X133598056Y-95807128D01*
X133598061Y-95807128D01*
X133604513Y-95808500D01*
X133795487Y-95808500D01*
X133801939Y-95807128D01*
X133801944Y-95807128D01*
X133899887Y-95786309D01*
X133982288Y-95768794D01*
X133988319Y-95766109D01*
X134150722Y-95693803D01*
X134150724Y-95693802D01*
X134156752Y-95691118D01*
X134168376Y-95682673D01*
X134279763Y-95601745D01*
X134311253Y-95578866D01*
X134347851Y-95538220D01*
X134434621Y-95441852D01*
X134434622Y-95441851D01*
X134439040Y-95436944D01*
X134513197Y-95308500D01*
X134531223Y-95277279D01*
X134531224Y-95277278D01*
X134534527Y-95271556D01*
X134593542Y-95089928D01*
X134607034Y-94961564D01*
X134612814Y-94906565D01*
X134613504Y-94900000D01*
X134593542Y-94710072D01*
X134534527Y-94528444D01*
X134517028Y-94498134D01*
X142441500Y-94498134D01*
X142448255Y-94560316D01*
X142499385Y-94696705D01*
X142586739Y-94813261D01*
X142703295Y-94900615D01*
X142839684Y-94951745D01*
X142901866Y-94958500D01*
X144698134Y-94958500D01*
X144760316Y-94951745D01*
X144896705Y-94900615D01*
X145013261Y-94813261D01*
X145100615Y-94696705D01*
X145122945Y-94637139D01*
X145144798Y-94578848D01*
X145187440Y-94522084D01*
X145254001Y-94497384D01*
X145323350Y-94512592D01*
X145358017Y-94540580D01*
X145383218Y-94569673D01*
X145390580Y-94576883D01*
X145554434Y-94712916D01*
X145562881Y-94718831D01*
X145746756Y-94826279D01*
X145756042Y-94830729D01*
X145955001Y-94906703D01*
X145964899Y-94909579D01*
X146068250Y-94930606D01*
X146082299Y-94929410D01*
X146086000Y-94919065D01*
X146086000Y-94918517D01*
X146594000Y-94918517D01*
X146598064Y-94932359D01*
X146611478Y-94934393D01*
X146618184Y-94933534D01*
X146628262Y-94931392D01*
X146832255Y-94870191D01*
X146841842Y-94866433D01*
X147033095Y-94772739D01*
X147041945Y-94767464D01*
X147215328Y-94643792D01*
X147223200Y-94637139D01*
X147374052Y-94486812D01*
X147380730Y-94478965D01*
X147508022Y-94301819D01*
X147509279Y-94302722D01*
X147556373Y-94259362D01*
X147626311Y-94247145D01*
X147691751Y-94274678D01*
X147719579Y-94306511D01*
X147779987Y-94405088D01*
X147926250Y-94573938D01*
X148002376Y-94637139D01*
X148082663Y-94703794D01*
X148098126Y-94716632D01*
X148291000Y-94829338D01*
X148499692Y-94909030D01*
X148504760Y-94910061D01*
X148504763Y-94910062D01*
X148599862Y-94929410D01*
X148718597Y-94953567D01*
X148723772Y-94953757D01*
X148723774Y-94953757D01*
X148936673Y-94961564D01*
X148936677Y-94961564D01*
X148941837Y-94961753D01*
X148946957Y-94961097D01*
X148946959Y-94961097D01*
X149158288Y-94934025D01*
X149158289Y-94934025D01*
X149163416Y-94933368D01*
X149168366Y-94931883D01*
X149372429Y-94870661D01*
X149372434Y-94870659D01*
X149377384Y-94869174D01*
X149577994Y-94770896D01*
X149759860Y-94641173D01*
X149804985Y-94596206D01*
X149904152Y-94497384D01*
X149918096Y-94483489D01*
X150048453Y-94302077D01*
X150061995Y-94274678D01*
X150145136Y-94106453D01*
X150145137Y-94106451D01*
X150147430Y-94101811D01*
X150212370Y-93888069D01*
X150241529Y-93666590D01*
X150243156Y-93600000D01*
X150224852Y-93377361D01*
X150170431Y-93160702D01*
X150081354Y-92955840D01*
X149998938Y-92828444D01*
X149962822Y-92772617D01*
X149962820Y-92772614D01*
X149960014Y-92768277D01*
X149809670Y-92603051D01*
X149805619Y-92599852D01*
X149805615Y-92599848D01*
X149638414Y-92467800D01*
X149638410Y-92467798D01*
X149634359Y-92464598D01*
X149598028Y-92444542D01*
X149542537Y-92413910D01*
X149438789Y-92356638D01*
X149433920Y-92354914D01*
X149433916Y-92354912D01*
X149233087Y-92283795D01*
X149233083Y-92283794D01*
X149228212Y-92282069D01*
X149223119Y-92281162D01*
X149223116Y-92281161D01*
X149013373Y-92243800D01*
X149013367Y-92243799D01*
X149008284Y-92242894D01*
X148934452Y-92241992D01*
X148790081Y-92240228D01*
X148790079Y-92240228D01*
X148784911Y-92240165D01*
X148564091Y-92273955D01*
X148351756Y-92343357D01*
X148278757Y-92381358D01*
X148218429Y-92412763D01*
X148153607Y-92446507D01*
X148149474Y-92449610D01*
X148149471Y-92449612D01*
X147993791Y-92566500D01*
X147974965Y-92580635D01*
X147820629Y-92742138D01*
X147718490Y-92891869D01*
X147712898Y-92900066D01*
X147657987Y-92945069D01*
X147587462Y-92953240D01*
X147523715Y-92921986D01*
X147503018Y-92897502D01*
X147422426Y-92772926D01*
X147416136Y-92764757D01*
X147272806Y-92607240D01*
X147265273Y-92600215D01*
X147098139Y-92468222D01*
X147089552Y-92462517D01*
X146903117Y-92359599D01*
X146893705Y-92355369D01*
X146692959Y-92284280D01*
X146682988Y-92281646D01*
X146611837Y-92268972D01*
X146598540Y-92270432D01*
X146594000Y-92284989D01*
X146594000Y-94918517D01*
X146086000Y-94918517D01*
X146086000Y-92283102D01*
X146082082Y-92269758D01*
X146067806Y-92267771D01*
X146029324Y-92273660D01*
X146019288Y-92276051D01*
X145816868Y-92342212D01*
X145807359Y-92346209D01*
X145618463Y-92444542D01*
X145609738Y-92450036D01*
X145439433Y-92577905D01*
X145431726Y-92584748D01*
X145354478Y-92665584D01*
X145292954Y-92701014D01*
X145222042Y-92697557D01*
X145164255Y-92656311D01*
X145145402Y-92622763D01*
X145103767Y-92511703D01*
X145100615Y-92503295D01*
X145013261Y-92386739D01*
X144896705Y-92299385D01*
X144760316Y-92248255D01*
X144698134Y-92241500D01*
X142901866Y-92241500D01*
X142839684Y-92248255D01*
X142703295Y-92299385D01*
X142586739Y-92386739D01*
X142499385Y-92503295D01*
X142448255Y-92639684D01*
X142441500Y-92701866D01*
X142441500Y-94498134D01*
X134517028Y-94498134D01*
X134460767Y-94400688D01*
X134439040Y-94363056D01*
X134379958Y-94297438D01*
X134315675Y-94226045D01*
X134315674Y-94226044D01*
X134311253Y-94221134D01*
X134176437Y-94123184D01*
X134162094Y-94112763D01*
X134162093Y-94112762D01*
X134156752Y-94108882D01*
X134150724Y-94106198D01*
X134150722Y-94106197D01*
X134079769Y-94074607D01*
X134025673Y-94028627D01*
X134005024Y-93960700D01*
X134024376Y-93892391D01*
X134077587Y-93845390D01*
X134131018Y-93833500D01*
X134691800Y-93833500D01*
X134759921Y-93853502D01*
X134779147Y-93869843D01*
X134779420Y-93869540D01*
X134784332Y-93873963D01*
X134788747Y-93878866D01*
X134943248Y-93991118D01*
X134949276Y-93993802D01*
X134949278Y-93993803D01*
X135041200Y-94034729D01*
X135117712Y-94068794D01*
X135211112Y-94088647D01*
X135298056Y-94107128D01*
X135298061Y-94107128D01*
X135304513Y-94108500D01*
X135495487Y-94108500D01*
X135501939Y-94107128D01*
X135501944Y-94107128D01*
X135588888Y-94088647D01*
X135682288Y-94068794D01*
X135758800Y-94034729D01*
X135850722Y-93993803D01*
X135850724Y-93993802D01*
X135856752Y-93991118D01*
X136011253Y-93878866D01*
X136047851Y-93838220D01*
X136134621Y-93741852D01*
X136134622Y-93741851D01*
X136139040Y-93736944D01*
X136234527Y-93571556D01*
X136293542Y-93389928D01*
X136294321Y-93382522D01*
X136312814Y-93206565D01*
X136313504Y-93200000D01*
X136301245Y-93083365D01*
X136294232Y-93016635D01*
X136294232Y-93016633D01*
X136293542Y-93010072D01*
X136234527Y-92828444D01*
X136199790Y-92768277D01*
X136183680Y-92740375D01*
X136139040Y-92663056D01*
X136125070Y-92647540D01*
X136015675Y-92526045D01*
X136015674Y-92526044D01*
X136011253Y-92521134D01*
X135905250Y-92444118D01*
X135862094Y-92412763D01*
X135862093Y-92412762D01*
X135856752Y-92408882D01*
X135850724Y-92406198D01*
X135850722Y-92406197D01*
X135688319Y-92333891D01*
X135688318Y-92333891D01*
X135682288Y-92331206D01*
X135588887Y-92311353D01*
X135501944Y-92292872D01*
X135501939Y-92292872D01*
X135495487Y-92291500D01*
X135304513Y-92291500D01*
X135298061Y-92292872D01*
X135298056Y-92292872D01*
X135211113Y-92311353D01*
X135117712Y-92331206D01*
X135111682Y-92333891D01*
X135111681Y-92333891D01*
X134949278Y-92406197D01*
X134949276Y-92406198D01*
X134943248Y-92408882D01*
X134937907Y-92412762D01*
X134937906Y-92412763D01*
X134869426Y-92462517D01*
X134788747Y-92521134D01*
X134784332Y-92526037D01*
X134779420Y-92530460D01*
X134778295Y-92529211D01*
X134724986Y-92562051D01*
X134691800Y-92566500D01*
X133529245Y-92566500D01*
X133461124Y-92546498D01*
X133420126Y-92503500D01*
X133342342Y-92368774D01*
X133342339Y-92368769D01*
X133339040Y-92363056D01*
X133281711Y-92299385D01*
X133215675Y-92226045D01*
X133215674Y-92226044D01*
X133211253Y-92221134D01*
X133056752Y-92108882D01*
X133050724Y-92106198D01*
X133050722Y-92106197D01*
X132888319Y-92033891D01*
X132888318Y-92033891D01*
X132882288Y-92031206D01*
X132788887Y-92011353D01*
X132701944Y-91992872D01*
X132701939Y-91992872D01*
X132695487Y-91991500D01*
X132504513Y-91991500D01*
X132498061Y-91992872D01*
X132498056Y-91992872D01*
X132411113Y-92011353D01*
X132317712Y-92031206D01*
X132311682Y-92033891D01*
X132311681Y-92033891D01*
X132149278Y-92106197D01*
X132149276Y-92106198D01*
X132143248Y-92108882D01*
X131988747Y-92221134D01*
X131984326Y-92226044D01*
X131984325Y-92226045D01*
X131918290Y-92299385D01*
X131860960Y-92363056D01*
X131765473Y-92528444D01*
X131706458Y-92710072D01*
X131705768Y-92716633D01*
X131705768Y-92716635D01*
X131700742Y-92764457D01*
X131686496Y-92900000D01*
X131687186Y-92906565D01*
X131691687Y-92949385D01*
X131706458Y-93089928D01*
X131765473Y-93271556D01*
X131768777Y-93277278D01*
X131768778Y-93277281D01*
X131783338Y-93302499D01*
X131800077Y-93371494D01*
X131776857Y-93438586D01*
X131721051Y-93482474D01*
X131674220Y-93491500D01*
X131504513Y-93491500D01*
X131498061Y-93492872D01*
X131498056Y-93492872D01*
X131411113Y-93511353D01*
X131317712Y-93531206D01*
X131311682Y-93533891D01*
X131311681Y-93533891D01*
X131149278Y-93606197D01*
X131149276Y-93606198D01*
X131143248Y-93608882D01*
X130988747Y-93721134D01*
X130984326Y-93726044D01*
X130984325Y-93726045D01*
X130876867Y-93845390D01*
X130860960Y-93863056D01*
X130765473Y-94028444D01*
X130706458Y-94210072D01*
X130705768Y-94216633D01*
X130705768Y-94216635D01*
X130696322Y-94306511D01*
X130686496Y-94400000D01*
X126800000Y-94400000D01*
X126800000Y-84934500D01*
X126820002Y-84866379D01*
X126873658Y-84819886D01*
X126926000Y-84808500D01*
X131377196Y-84808500D01*
X131445317Y-84828502D01*
G37*
%TD.AperFunction*%
%TD*%
M02*
