%TF.GenerationSoftware,KiCad,Pcbnew,6.0.8-f2edbf62ab~116~ubuntu22.04.1*%
%TF.CreationDate,2022-10-18T22:53:01+02:00*%
%TF.ProjectId,ble-han-port-if,626c652d-6861-46e2-9d70-6f72742d6966,rev?*%
%TF.SameCoordinates,Original*%
%TF.FileFunction,Legend,Top*%
%TF.FilePolarity,Positive*%
%FSLAX46Y46*%
G04 Gerber Fmt 4.6, Leading zero omitted, Abs format (unit mm)*
G04 Created by KiCad (PCBNEW 6.0.8-f2edbf62ab~116~ubuntu22.04.1) date 2022-10-18 22:53:01*
%MOMM*%
%LPD*%
G01*
G04 APERTURE LIST*
%ADD10C,0.150000*%
%ADD11C,0.120000*%
G04 APERTURE END LIST*
D10*
%TO.C,C8*%
X132207142Y-117716666D02*
X132254761Y-117764285D01*
X132302380Y-117907142D01*
X132302380Y-118002380D01*
X132254761Y-118145238D01*
X132159523Y-118240476D01*
X132064285Y-118288095D01*
X131873809Y-118335714D01*
X131730952Y-118335714D01*
X131540476Y-118288095D01*
X131445238Y-118240476D01*
X131350000Y-118145238D01*
X131302380Y-118002380D01*
X131302380Y-117907142D01*
X131350000Y-117764285D01*
X131397619Y-117716666D01*
X131730952Y-117145238D02*
X131683333Y-117240476D01*
X131635714Y-117288095D01*
X131540476Y-117335714D01*
X131492857Y-117335714D01*
X131397619Y-117288095D01*
X131350000Y-117240476D01*
X131302380Y-117145238D01*
X131302380Y-116954761D01*
X131350000Y-116859523D01*
X131397619Y-116811904D01*
X131492857Y-116764285D01*
X131540476Y-116764285D01*
X131635714Y-116811904D01*
X131683333Y-116859523D01*
X131730952Y-116954761D01*
X131730952Y-117145238D01*
X131778571Y-117240476D01*
X131826190Y-117288095D01*
X131921428Y-117335714D01*
X132111904Y-117335714D01*
X132207142Y-117288095D01*
X132254761Y-117240476D01*
X132302380Y-117145238D01*
X132302380Y-116954761D01*
X132254761Y-116859523D01*
X132207142Y-116811904D01*
X132111904Y-116764285D01*
X131921428Y-116764285D01*
X131826190Y-116811904D01*
X131778571Y-116859523D01*
X131730952Y-116954761D01*
%TO.C,J2*%
X139066666Y-87852380D02*
X139066666Y-88566666D01*
X139019047Y-88709523D01*
X138923809Y-88804761D01*
X138780952Y-88852380D01*
X138685714Y-88852380D01*
X139495238Y-87947619D02*
X139542857Y-87900000D01*
X139638095Y-87852380D01*
X139876190Y-87852380D01*
X139971428Y-87900000D01*
X140019047Y-87947619D01*
X140066666Y-88042857D01*
X140066666Y-88138095D01*
X140019047Y-88280952D01*
X139447619Y-88852380D01*
X140066666Y-88852380D01*
%TO.C,R9*%
X147933333Y-98852380D02*
X147600000Y-98376190D01*
X147361904Y-98852380D02*
X147361904Y-97852380D01*
X147742857Y-97852380D01*
X147838095Y-97900000D01*
X147885714Y-97947619D01*
X147933333Y-98042857D01*
X147933333Y-98185714D01*
X147885714Y-98280952D01*
X147838095Y-98328571D01*
X147742857Y-98376190D01*
X147361904Y-98376190D01*
X148409523Y-98852380D02*
X148600000Y-98852380D01*
X148695238Y-98804761D01*
X148742857Y-98757142D01*
X148838095Y-98614285D01*
X148885714Y-98423809D01*
X148885714Y-98042857D01*
X148838095Y-97947619D01*
X148790476Y-97900000D01*
X148695238Y-97852380D01*
X148504761Y-97852380D01*
X148409523Y-97900000D01*
X148361904Y-97947619D01*
X148314285Y-98042857D01*
X148314285Y-98280952D01*
X148361904Y-98376190D01*
X148409523Y-98423809D01*
X148504761Y-98471428D01*
X148695238Y-98471428D01*
X148790476Y-98423809D01*
X148838095Y-98376190D01*
X148885714Y-98280952D01*
%TO.C,R8*%
X144433333Y-98852380D02*
X144100000Y-98376190D01*
X143861904Y-98852380D02*
X143861904Y-97852380D01*
X144242857Y-97852380D01*
X144338095Y-97900000D01*
X144385714Y-97947619D01*
X144433333Y-98042857D01*
X144433333Y-98185714D01*
X144385714Y-98280952D01*
X144338095Y-98328571D01*
X144242857Y-98376190D01*
X143861904Y-98376190D01*
X145004761Y-98280952D02*
X144909523Y-98233333D01*
X144861904Y-98185714D01*
X144814285Y-98090476D01*
X144814285Y-98042857D01*
X144861904Y-97947619D01*
X144909523Y-97900000D01*
X145004761Y-97852380D01*
X145195238Y-97852380D01*
X145290476Y-97900000D01*
X145338095Y-97947619D01*
X145385714Y-98042857D01*
X145385714Y-98090476D01*
X145338095Y-98185714D01*
X145290476Y-98233333D01*
X145195238Y-98280952D01*
X145004761Y-98280952D01*
X144909523Y-98328571D01*
X144861904Y-98376190D01*
X144814285Y-98471428D01*
X144814285Y-98661904D01*
X144861904Y-98757142D01*
X144909523Y-98804761D01*
X145004761Y-98852380D01*
X145195238Y-98852380D01*
X145290476Y-98804761D01*
X145338095Y-98757142D01*
X145385714Y-98661904D01*
X145385714Y-98471428D01*
X145338095Y-98376190D01*
X145290476Y-98328571D01*
X145195238Y-98280952D01*
%TO.C,R7*%
X145233333Y-105052380D02*
X144900000Y-104576190D01*
X144661904Y-105052380D02*
X144661904Y-104052380D01*
X145042857Y-104052380D01*
X145138095Y-104100000D01*
X145185714Y-104147619D01*
X145233333Y-104242857D01*
X145233333Y-104385714D01*
X145185714Y-104480952D01*
X145138095Y-104528571D01*
X145042857Y-104576190D01*
X144661904Y-104576190D01*
X145566666Y-104052380D02*
X146233333Y-104052380D01*
X145804761Y-105052380D01*
%TO.C,R5*%
X133633333Y-85452380D02*
X133300000Y-84976190D01*
X133061904Y-85452380D02*
X133061904Y-84452380D01*
X133442857Y-84452380D01*
X133538095Y-84500000D01*
X133585714Y-84547619D01*
X133633333Y-84642857D01*
X133633333Y-84785714D01*
X133585714Y-84880952D01*
X133538095Y-84928571D01*
X133442857Y-84976190D01*
X133061904Y-84976190D01*
X134538095Y-84452380D02*
X134061904Y-84452380D01*
X134014285Y-84928571D01*
X134061904Y-84880952D01*
X134157142Y-84833333D01*
X134395238Y-84833333D01*
X134490476Y-84880952D01*
X134538095Y-84928571D01*
X134585714Y-85023809D01*
X134585714Y-85261904D01*
X134538095Y-85357142D01*
X134490476Y-85404761D01*
X134395238Y-85452380D01*
X134157142Y-85452380D01*
X134061904Y-85404761D01*
X134014285Y-85357142D01*
%TO.C,R2*%
X128933333Y-85502380D02*
X128600000Y-85026190D01*
X128361904Y-85502380D02*
X128361904Y-84502380D01*
X128742857Y-84502380D01*
X128838095Y-84550000D01*
X128885714Y-84597619D01*
X128933333Y-84692857D01*
X128933333Y-84835714D01*
X128885714Y-84930952D01*
X128838095Y-84978571D01*
X128742857Y-85026190D01*
X128361904Y-85026190D01*
X129314285Y-84597619D02*
X129361904Y-84550000D01*
X129457142Y-84502380D01*
X129695238Y-84502380D01*
X129790476Y-84550000D01*
X129838095Y-84597619D01*
X129885714Y-84692857D01*
X129885714Y-84788095D01*
X129838095Y-84930952D01*
X129266666Y-85502380D01*
X129885714Y-85502380D01*
%TO.C,J3*%
X152566666Y-91052380D02*
X152566666Y-91766666D01*
X152519047Y-91909523D01*
X152423809Y-92004761D01*
X152280952Y-92052380D01*
X152185714Y-92052380D01*
X152947619Y-91052380D02*
X153566666Y-91052380D01*
X153233333Y-91433333D01*
X153376190Y-91433333D01*
X153471428Y-91480952D01*
X153519047Y-91528571D01*
X153566666Y-91623809D01*
X153566666Y-91861904D01*
X153519047Y-91957142D01*
X153471428Y-92004761D01*
X153376190Y-92052380D01*
X153090476Y-92052380D01*
X152995238Y-92004761D01*
X152947619Y-91957142D01*
%TO.C,R4*%
X137233333Y-85452380D02*
X136900000Y-84976190D01*
X136661904Y-85452380D02*
X136661904Y-84452380D01*
X137042857Y-84452380D01*
X137138095Y-84500000D01*
X137185714Y-84547619D01*
X137233333Y-84642857D01*
X137233333Y-84785714D01*
X137185714Y-84880952D01*
X137138095Y-84928571D01*
X137042857Y-84976190D01*
X136661904Y-84976190D01*
X138090476Y-84785714D02*
X138090476Y-85452380D01*
X137852380Y-84404761D02*
X137614285Y-85119047D01*
X138233333Y-85119047D01*
%TO.C,Q1*%
X150604761Y-108547619D02*
X150509523Y-108500000D01*
X150414285Y-108404761D01*
X150271428Y-108261904D01*
X150176190Y-108214285D01*
X150080952Y-108214285D01*
X150128571Y-108452380D02*
X150033333Y-108404761D01*
X149938095Y-108309523D01*
X149890476Y-108119047D01*
X149890476Y-107785714D01*
X149938095Y-107595238D01*
X150033333Y-107500000D01*
X150128571Y-107452380D01*
X150319047Y-107452380D01*
X150414285Y-107500000D01*
X150509523Y-107595238D01*
X150557142Y-107785714D01*
X150557142Y-108119047D01*
X150509523Y-108309523D01*
X150414285Y-108404761D01*
X150319047Y-108452380D01*
X150128571Y-108452380D01*
X151509523Y-108452380D02*
X150938095Y-108452380D01*
X151223809Y-108452380D02*
X151223809Y-107452380D01*
X151128571Y-107595238D01*
X151033333Y-107690476D01*
X150938095Y-107738095D01*
%TO.C,U1*%
X141552380Y-101311904D02*
X142361904Y-101311904D01*
X142457142Y-101264285D01*
X142504761Y-101216666D01*
X142552380Y-101121428D01*
X142552380Y-100930952D01*
X142504761Y-100835714D01*
X142457142Y-100788095D01*
X142361904Y-100740476D01*
X141552380Y-100740476D01*
X142552380Y-99740476D02*
X142552380Y-100311904D01*
X142552380Y-100026190D02*
X141552380Y-100026190D01*
X141695238Y-100121428D01*
X141790476Y-100216666D01*
X141838095Y-100311904D01*
%TO.C,J1*%
X140922380Y-93933333D02*
X141636666Y-93933333D01*
X141779523Y-93980952D01*
X141874761Y-94076190D01*
X141922380Y-94219047D01*
X141922380Y-94314285D01*
X141922380Y-92933333D02*
X141922380Y-93504761D01*
X141922380Y-93219047D02*
X140922380Y-93219047D01*
X141065238Y-93314285D01*
X141160476Y-93409523D01*
X141208095Y-93504761D01*
%TO.C,R1*%
X138633333Y-111052380D02*
X138300000Y-110576190D01*
X138061904Y-111052380D02*
X138061904Y-110052380D01*
X138442857Y-110052380D01*
X138538095Y-110100000D01*
X138585714Y-110147619D01*
X138633333Y-110242857D01*
X138633333Y-110385714D01*
X138585714Y-110480952D01*
X138538095Y-110528571D01*
X138442857Y-110576190D01*
X138061904Y-110576190D01*
X139585714Y-111052380D02*
X139014285Y-111052380D01*
X139300000Y-111052380D02*
X139300000Y-110052380D01*
X139204761Y-110195238D01*
X139109523Y-110290476D01*
X139014285Y-110338095D01*
%TO.C,C5*%
X129033333Y-115857142D02*
X128985714Y-115904761D01*
X128842857Y-115952380D01*
X128747619Y-115952380D01*
X128604761Y-115904761D01*
X128509523Y-115809523D01*
X128461904Y-115714285D01*
X128414285Y-115523809D01*
X128414285Y-115380952D01*
X128461904Y-115190476D01*
X128509523Y-115095238D01*
X128604761Y-115000000D01*
X128747619Y-114952380D01*
X128842857Y-114952380D01*
X128985714Y-115000000D01*
X129033333Y-115047619D01*
X129938095Y-114952380D02*
X129461904Y-114952380D01*
X129414285Y-115428571D01*
X129461904Y-115380952D01*
X129557142Y-115333333D01*
X129795238Y-115333333D01*
X129890476Y-115380952D01*
X129938095Y-115428571D01*
X129985714Y-115523809D01*
X129985714Y-115761904D01*
X129938095Y-115857142D01*
X129890476Y-115904761D01*
X129795238Y-115952380D01*
X129557142Y-115952380D01*
X129461904Y-115904761D01*
X129414285Y-115857142D01*
%TO.C,C4*%
X128333333Y-112157142D02*
X128285714Y-112204761D01*
X128142857Y-112252380D01*
X128047619Y-112252380D01*
X127904761Y-112204761D01*
X127809523Y-112109523D01*
X127761904Y-112014285D01*
X127714285Y-111823809D01*
X127714285Y-111680952D01*
X127761904Y-111490476D01*
X127809523Y-111395238D01*
X127904761Y-111300000D01*
X128047619Y-111252380D01*
X128142857Y-111252380D01*
X128285714Y-111300000D01*
X128333333Y-111347619D01*
X129190476Y-111585714D02*
X129190476Y-112252380D01*
X128952380Y-111204761D02*
X128714285Y-111919047D01*
X129333333Y-111919047D01*
%TO.C,U4*%
X144338095Y-116552380D02*
X144338095Y-117361904D01*
X144385714Y-117457142D01*
X144433333Y-117504761D01*
X144528571Y-117552380D01*
X144719047Y-117552380D01*
X144814285Y-117504761D01*
X144861904Y-117457142D01*
X144909523Y-117361904D01*
X144909523Y-116552380D01*
X145814285Y-116885714D02*
X145814285Y-117552380D01*
X145576190Y-116504761D02*
X145338095Y-117219047D01*
X145957142Y-117219047D01*
%TO.C,C2*%
X156900000Y-104614285D02*
X156871428Y-104642857D01*
X156785714Y-104671428D01*
X156728571Y-104671428D01*
X156642857Y-104642857D01*
X156585714Y-104585714D01*
X156557142Y-104528571D01*
X156528571Y-104414285D01*
X156528571Y-104328571D01*
X156557142Y-104214285D01*
X156585714Y-104157142D01*
X156642857Y-104100000D01*
X156728571Y-104071428D01*
X156785714Y-104071428D01*
X156871428Y-104100000D01*
X156900000Y-104128571D01*
X157128571Y-104128571D02*
X157157142Y-104100000D01*
X157214285Y-104071428D01*
X157357142Y-104071428D01*
X157414285Y-104100000D01*
X157442857Y-104128571D01*
X157471428Y-104185714D01*
X157471428Y-104242857D01*
X157442857Y-104328571D01*
X157100000Y-104671428D01*
X157471428Y-104671428D01*
%TO.C,C6*%
X143470833Y-91437142D02*
X143423214Y-91484761D01*
X143280357Y-91532380D01*
X143185119Y-91532380D01*
X143042261Y-91484761D01*
X142947023Y-91389523D01*
X142899404Y-91294285D01*
X142851785Y-91103809D01*
X142851785Y-90960952D01*
X142899404Y-90770476D01*
X142947023Y-90675238D01*
X143042261Y-90580000D01*
X143185119Y-90532380D01*
X143280357Y-90532380D01*
X143423214Y-90580000D01*
X143470833Y-90627619D01*
X144327976Y-90532380D02*
X144137500Y-90532380D01*
X144042261Y-90580000D01*
X143994642Y-90627619D01*
X143899404Y-90770476D01*
X143851785Y-90960952D01*
X143851785Y-91341904D01*
X143899404Y-91437142D01*
X143947023Y-91484761D01*
X144042261Y-91532380D01*
X144232738Y-91532380D01*
X144327976Y-91484761D01*
X144375595Y-91437142D01*
X144423214Y-91341904D01*
X144423214Y-91103809D01*
X144375595Y-91008571D01*
X144327976Y-90960952D01*
X144232738Y-90913333D01*
X144042261Y-90913333D01*
X143947023Y-90960952D01*
X143899404Y-91008571D01*
X143851785Y-91103809D01*
%TO.C,C3*%
X138533333Y-113257142D02*
X138485714Y-113304761D01*
X138342857Y-113352380D01*
X138247619Y-113352380D01*
X138104761Y-113304761D01*
X138009523Y-113209523D01*
X137961904Y-113114285D01*
X137914285Y-112923809D01*
X137914285Y-112780952D01*
X137961904Y-112590476D01*
X138009523Y-112495238D01*
X138104761Y-112400000D01*
X138247619Y-112352380D01*
X138342857Y-112352380D01*
X138485714Y-112400000D01*
X138533333Y-112447619D01*
X138866666Y-112352380D02*
X139485714Y-112352380D01*
X139152380Y-112733333D01*
X139295238Y-112733333D01*
X139390476Y-112780952D01*
X139438095Y-112828571D01*
X139485714Y-112923809D01*
X139485714Y-113161904D01*
X139438095Y-113257142D01*
X139390476Y-113304761D01*
X139295238Y-113352380D01*
X139009523Y-113352380D01*
X138914285Y-113304761D01*
X138866666Y-113257142D01*
%TO.C,R3*%
X132533333Y-114602380D02*
X132200000Y-114126190D01*
X131961904Y-114602380D02*
X131961904Y-113602380D01*
X132342857Y-113602380D01*
X132438095Y-113650000D01*
X132485714Y-113697619D01*
X132533333Y-113792857D01*
X132533333Y-113935714D01*
X132485714Y-114030952D01*
X132438095Y-114078571D01*
X132342857Y-114126190D01*
X131961904Y-114126190D01*
X132866666Y-113602380D02*
X133485714Y-113602380D01*
X133152380Y-113983333D01*
X133295238Y-113983333D01*
X133390476Y-114030952D01*
X133438095Y-114078571D01*
X133485714Y-114173809D01*
X133485714Y-114411904D01*
X133438095Y-114507142D01*
X133390476Y-114554761D01*
X133295238Y-114602380D01*
X133009523Y-114602380D01*
X132914285Y-114554761D01*
X132866666Y-114507142D01*
%TO.C,C7*%
X149033333Y-91457142D02*
X148985714Y-91504761D01*
X148842857Y-91552380D01*
X148747619Y-91552380D01*
X148604761Y-91504761D01*
X148509523Y-91409523D01*
X148461904Y-91314285D01*
X148414285Y-91123809D01*
X148414285Y-90980952D01*
X148461904Y-90790476D01*
X148509523Y-90695238D01*
X148604761Y-90600000D01*
X148747619Y-90552380D01*
X148842857Y-90552380D01*
X148985714Y-90600000D01*
X149033333Y-90647619D01*
X149366666Y-90552380D02*
X150033333Y-90552380D01*
X149604761Y-91552380D01*
%TO.C,C1*%
X144333333Y-113457142D02*
X144285714Y-113504761D01*
X144142857Y-113552380D01*
X144047619Y-113552380D01*
X143904761Y-113504761D01*
X143809523Y-113409523D01*
X143761904Y-113314285D01*
X143714285Y-113123809D01*
X143714285Y-112980952D01*
X143761904Y-112790476D01*
X143809523Y-112695238D01*
X143904761Y-112600000D01*
X144047619Y-112552380D01*
X144142857Y-112552380D01*
X144285714Y-112600000D01*
X144333333Y-112647619D01*
X145285714Y-113552380D02*
X144714285Y-113552380D01*
X145000000Y-113552380D02*
X145000000Y-112552380D01*
X144904761Y-112695238D01*
X144809523Y-112790476D01*
X144714285Y-112838095D01*
%TO.C,R6*%
X149033333Y-101752380D02*
X148700000Y-101276190D01*
X148461904Y-101752380D02*
X148461904Y-100752380D01*
X148842857Y-100752380D01*
X148938095Y-100800000D01*
X148985714Y-100847619D01*
X149033333Y-100942857D01*
X149033333Y-101085714D01*
X148985714Y-101180952D01*
X148938095Y-101228571D01*
X148842857Y-101276190D01*
X148461904Y-101276190D01*
X149890476Y-100752380D02*
X149700000Y-100752380D01*
X149604761Y-100800000D01*
X149557142Y-100847619D01*
X149461904Y-100990476D01*
X149414285Y-101180952D01*
X149414285Y-101561904D01*
X149461904Y-101657142D01*
X149509523Y-101704761D01*
X149604761Y-101752380D01*
X149795238Y-101752380D01*
X149890476Y-101704761D01*
X149938095Y-101657142D01*
X149985714Y-101561904D01*
X149985714Y-101323809D01*
X149938095Y-101228571D01*
X149890476Y-101180952D01*
X149795238Y-101133333D01*
X149604761Y-101133333D01*
X149509523Y-101180952D01*
X149461904Y-101228571D01*
X149414285Y-101323809D01*
D11*
%TO.C,C8*%
X137025000Y-115270000D02*
X138355000Y-115270000D01*
X133155000Y-115270000D02*
X133155000Y-117930000D01*
X135755000Y-115270000D02*
X133155000Y-115270000D01*
X135755000Y-115270000D02*
X135755000Y-117930000D01*
X138355000Y-115270000D02*
X138355000Y-116600000D01*
X135755000Y-117930000D02*
X133155000Y-117930000D01*
%TO.C,J2*%
X143270000Y-85070000D02*
X150950000Y-85070000D01*
X142000000Y-87730000D02*
X140670000Y-87730000D01*
X150950000Y-87730000D02*
X150950000Y-85070000D01*
X143270000Y-87730000D02*
X143270000Y-85070000D01*
X140670000Y-87730000D02*
X140670000Y-86400000D01*
X143270000Y-87730000D02*
X150950000Y-87730000D01*
%TO.C,R9*%
X149127064Y-97335000D02*
X148672936Y-97335000D01*
X149127064Y-95865000D02*
X148672936Y-95865000D01*
%TO.C,R8*%
X143472936Y-95965000D02*
X143927064Y-95965000D01*
X143472936Y-97435000D02*
X143927064Y-97435000D01*
%TO.C,R7*%
X146765000Y-105627064D02*
X146765000Y-105172936D01*
X148235000Y-105627064D02*
X148235000Y-105172936D01*
%TO.C,R5*%
X133172936Y-85865000D02*
X133627064Y-85865000D01*
X133172936Y-87335000D02*
X133627064Y-87335000D01*
%TO.C,R2*%
X128872936Y-85965000D02*
X129327064Y-85965000D01*
X128872936Y-87435000D02*
X129327064Y-87435000D01*
%TO.C,J3*%
X155730000Y-95520000D02*
X155730000Y-108280000D01*
X153070000Y-108280000D02*
X155730000Y-108280000D01*
X153070000Y-95520000D02*
X155730000Y-95520000D01*
X153070000Y-92920000D02*
X154400000Y-92920000D01*
X153070000Y-94250000D02*
X153070000Y-92920000D01*
X153070000Y-95520000D02*
X153070000Y-108280000D01*
%TO.C,R4*%
X137827064Y-87335000D02*
X137372936Y-87335000D01*
X137827064Y-85865000D02*
X137372936Y-85865000D01*
%TO.C,Q1*%
X152160000Y-105400000D02*
X152160000Y-106050000D01*
X149040000Y-105400000D02*
X149040000Y-106050000D01*
X152160000Y-105400000D02*
X152160000Y-103725000D01*
X149040000Y-105400000D02*
X149040000Y-104750000D01*
%TO.C,U1*%
X120680000Y-107920000D02*
X120680000Y-89680000D01*
X140600000Y-89680000D02*
X140900000Y-89680000D01*
X140920000Y-90800000D02*
X140920000Y-89680000D01*
X120680000Y-107920000D02*
X126700000Y-107920000D01*
X120680000Y-89680000D02*
X127200000Y-89680000D01*
X126700000Y-107920000D02*
X126700000Y-109800000D01*
X140600000Y-107920000D02*
X140920000Y-107920000D01*
X140920000Y-107920000D02*
X140920000Y-106900000D01*
%TO.C,J1*%
X150210000Y-94930000D02*
X150210000Y-92270000D01*
X145070000Y-94930000D02*
X150210000Y-94930000D01*
X143800000Y-94930000D02*
X142470000Y-94930000D01*
X145070000Y-92270000D02*
X150210000Y-92270000D01*
X142470000Y-94930000D02*
X142470000Y-93600000D01*
X145070000Y-94930000D02*
X145070000Y-92270000D01*
%TO.C,R1*%
X135572936Y-113535000D02*
X136027064Y-113535000D01*
X135572936Y-112065000D02*
X136027064Y-112065000D01*
%TO.C,C5*%
X129038748Y-112865000D02*
X129561252Y-112865000D01*
X129038748Y-114335000D02*
X129561252Y-114335000D01*
%TO.C,C4*%
X129038748Y-109265000D02*
X129561252Y-109265000D01*
X129038748Y-110735000D02*
X129561252Y-110735000D01*
%TO.C,U4*%
X158352500Y-109232500D02*
X158352500Y-117852500D01*
X146732500Y-117852500D02*
X158352500Y-117852500D01*
X146492500Y-108992500D02*
X147732500Y-108992500D01*
X146732500Y-109232500D02*
X146732500Y-117852500D01*
X146492500Y-110232500D02*
X146492500Y-108992500D01*
X146732500Y-109232500D02*
X158352500Y-109232500D01*
%TO.C,C2*%
X156765000Y-107061252D02*
X156765000Y-106538748D01*
X158235000Y-107061252D02*
X158235000Y-106538748D01*
%TO.C,C6*%
X143898752Y-90135000D02*
X143376248Y-90135000D01*
X143898752Y-88665000D02*
X143376248Y-88665000D01*
%TO.C,C3*%
X135538748Y-109915000D02*
X136061252Y-109915000D01*
X135538748Y-111385000D02*
X136061252Y-111385000D01*
%TO.C,R3*%
X131865000Y-111727064D02*
X131865000Y-111272936D01*
X133335000Y-111727064D02*
X133335000Y-111272936D01*
%TO.C,C7*%
X147938748Y-90135000D02*
X148461252Y-90135000D01*
X147938748Y-88665000D02*
X148461252Y-88665000D01*
%TO.C,C1*%
X144361252Y-112035000D02*
X143838748Y-112035000D01*
X144361252Y-110565000D02*
X143838748Y-110565000D01*
%TO.C,R6*%
X150465000Y-101327064D02*
X150465000Y-100872936D01*
X151935000Y-101327064D02*
X151935000Y-100872936D01*
%TD*%
M02*
