%TF.GenerationSoftware,KiCad,Pcbnew,6.0.8-f2edbf62ab~116~ubuntu22.04.1*%
%TF.CreationDate,2022-10-18T22:53:01+02:00*%
%TF.ProjectId,ble-han-port-if,626c652d-6861-46e2-9d70-6f72742d6966,rev?*%
%TF.SameCoordinates,Original*%
%TF.FileFunction,Legend,Bot*%
%TF.FilePolarity,Positive*%
%FSLAX46Y46*%
G04 Gerber Fmt 4.6, Leading zero omitted, Abs format (unit mm)*
G04 Created by KiCad (PCBNEW 6.0.8-f2edbf62ab~116~ubuntu22.04.1) date 2022-10-18 22:53:01*
%MOMM*%
%LPD*%
G01*
G04 APERTURE LIST*
%ADD10C,0.300000*%
%ADD11C,0.010000*%
G04 APERTURE END LIST*
D10*
X121750000Y-86507142D02*
X121678571Y-86364285D01*
X121678571Y-86150000D01*
X121750000Y-85935714D01*
X121892857Y-85792857D01*
X122035714Y-85721428D01*
X122321428Y-85650000D01*
X122535714Y-85650000D01*
X122821428Y-85721428D01*
X122964285Y-85792857D01*
X123107142Y-85935714D01*
X123178571Y-86150000D01*
X123178571Y-86292857D01*
X123107142Y-86507142D01*
X123035714Y-86578571D01*
X122535714Y-86578571D01*
X122535714Y-86292857D01*
X123178571Y-87221428D02*
X122178571Y-87221428D01*
X122464285Y-87221428D02*
X122321428Y-87292857D01*
X122250000Y-87364285D01*
X122178571Y-87507142D01*
X122178571Y-87650000D01*
X123178571Y-88364285D02*
X123107142Y-88221428D01*
X123035714Y-88150000D01*
X122892857Y-88078571D01*
X122464285Y-88078571D01*
X122321428Y-88150000D01*
X122250000Y-88221428D01*
X122178571Y-88364285D01*
X122178571Y-88578571D01*
X122250000Y-88721428D01*
X122321428Y-88792857D01*
X122464285Y-88864285D01*
X122892857Y-88864285D01*
X123035714Y-88792857D01*
X123107142Y-88721428D01*
X123178571Y-88578571D01*
X123178571Y-88364285D01*
X123178571Y-90150000D02*
X121678571Y-90150000D01*
X123107142Y-90150000D02*
X123178571Y-90007142D01*
X123178571Y-89721428D01*
X123107142Y-89578571D01*
X123035714Y-89507142D01*
X122892857Y-89435714D01*
X122464285Y-89435714D01*
X122321428Y-89507142D01*
X122250000Y-89578571D01*
X122178571Y-89721428D01*
X122178571Y-90007142D01*
X122250000Y-90150000D01*
X123178571Y-91507142D02*
X122392857Y-91507142D01*
X122250000Y-91435714D01*
X122178571Y-91292857D01*
X122178571Y-91007142D01*
X122250000Y-90864285D01*
X123107142Y-91507142D02*
X123178571Y-91364285D01*
X123178571Y-91007142D01*
X123107142Y-90864285D01*
X122964285Y-90792857D01*
X122821428Y-90792857D01*
X122678571Y-90864285D01*
X122607142Y-91007142D01*
X122607142Y-91364285D01*
X122535714Y-91507142D01*
X122178571Y-92221428D02*
X123178571Y-92221428D01*
X122321428Y-92221428D02*
X122250000Y-92292857D01*
X122178571Y-92435714D01*
X122178571Y-92650000D01*
X122250000Y-92792857D01*
X122392857Y-92864285D01*
X123178571Y-92864285D01*
X123107142Y-93507142D02*
X123178571Y-93650000D01*
X123178571Y-93935714D01*
X123107142Y-94078571D01*
X122964285Y-94150000D01*
X122892857Y-94150000D01*
X122750000Y-94078571D01*
X122678571Y-93935714D01*
X122678571Y-93721428D01*
X122607142Y-93578571D01*
X122464285Y-93507142D01*
X122392857Y-93507142D01*
X122250000Y-93578571D01*
X122178571Y-93721428D01*
X122178571Y-93935714D01*
X122250000Y-94078571D01*
X123178571Y-95935714D02*
X121678571Y-95935714D01*
X121678571Y-96507142D01*
X121750000Y-96650000D01*
X121821428Y-96721428D01*
X121964285Y-96792857D01*
X122178571Y-96792857D01*
X122321428Y-96721428D01*
X122392857Y-96650000D01*
X122464285Y-96507142D01*
X122464285Y-95935714D01*
X123178571Y-98078571D02*
X122392857Y-98078571D01*
X122250000Y-98007142D01*
X122178571Y-97864285D01*
X122178571Y-97578571D01*
X122250000Y-97435714D01*
X123107142Y-98078571D02*
X123178571Y-97935714D01*
X123178571Y-97578571D01*
X123107142Y-97435714D01*
X122964285Y-97364285D01*
X122821428Y-97364285D01*
X122678571Y-97435714D01*
X122607142Y-97578571D01*
X122607142Y-97935714D01*
X122535714Y-98078571D01*
X123178571Y-98792857D02*
X122178571Y-98792857D01*
X122464285Y-98792857D02*
X122321428Y-98864285D01*
X122250000Y-98935714D01*
X122178571Y-99078571D01*
X122178571Y-99221428D01*
X123178571Y-100364285D02*
X122392857Y-100364285D01*
X122250000Y-100292857D01*
X122178571Y-100150000D01*
X122178571Y-99864285D01*
X122250000Y-99721428D01*
X123107142Y-100364285D02*
X123178571Y-100221428D01*
X123178571Y-99864285D01*
X123107142Y-99721428D01*
X122964285Y-99650000D01*
X122821428Y-99650000D01*
X122678571Y-99721428D01*
X122607142Y-99864285D01*
X122607142Y-100221428D01*
X122535714Y-100364285D01*
X123178571Y-101721428D02*
X121678571Y-101721428D01*
X123107142Y-101721428D02*
X123178571Y-101578571D01*
X123178571Y-101292857D01*
X123107142Y-101150000D01*
X123035714Y-101078571D01*
X122892857Y-101007142D01*
X122464285Y-101007142D01*
X122321428Y-101078571D01*
X122250000Y-101150000D01*
X122178571Y-101292857D01*
X122178571Y-101578571D01*
X122250000Y-101721428D01*
X123178571Y-102435714D02*
X122178571Y-102435714D01*
X121678571Y-102435714D02*
X121750000Y-102364285D01*
X121821428Y-102435714D01*
X121750000Y-102507142D01*
X121678571Y-102435714D01*
X121821428Y-102435714D01*
X123107142Y-103078571D02*
X123178571Y-103221428D01*
X123178571Y-103507142D01*
X123107142Y-103650000D01*
X122964285Y-103721428D01*
X122892857Y-103721428D01*
X122750000Y-103650000D01*
X122678571Y-103507142D01*
X122678571Y-103292857D01*
X122607142Y-103150000D01*
X122464285Y-103078571D01*
X122392857Y-103078571D01*
X122250000Y-103150000D01*
X122178571Y-103292857D01*
X122178571Y-103507142D01*
X122250000Y-103650000D01*
X122750000Y-105435714D02*
X122750000Y-106150000D01*
X123178571Y-105292857D02*
X121678571Y-105792857D01*
X123178571Y-106292857D01*
X122392857Y-107292857D02*
X122464285Y-107507142D01*
X122535714Y-107578571D01*
X122678571Y-107650000D01*
X122892857Y-107650000D01*
X123035714Y-107578571D01*
X123107142Y-107507142D01*
X123178571Y-107364285D01*
X123178571Y-106792857D01*
X121678571Y-106792857D01*
X121678571Y-107292857D01*
X121750000Y-107435714D01*
X121821428Y-107507142D01*
X121964285Y-107578571D01*
X122107142Y-107578571D01*
X122250000Y-107507142D01*
X122321428Y-107435714D01*
X122392857Y-107292857D01*
X122392857Y-106792857D01*
X120628571Y-86585714D02*
X119914285Y-86085714D01*
X120628571Y-85728571D02*
X119128571Y-85728571D01*
X119128571Y-86300000D01*
X119200000Y-86442857D01*
X119271428Y-86514285D01*
X119414285Y-86585714D01*
X119628571Y-86585714D01*
X119771428Y-86514285D01*
X119842857Y-86442857D01*
X119914285Y-86300000D01*
X119914285Y-85728571D01*
X120557142Y-87800000D02*
X120628571Y-87657142D01*
X120628571Y-87371428D01*
X120557142Y-87228571D01*
X120414285Y-87157142D01*
X119842857Y-87157142D01*
X119700000Y-87228571D01*
X119628571Y-87371428D01*
X119628571Y-87657142D01*
X119700000Y-87800000D01*
X119842857Y-87871428D01*
X119985714Y-87871428D01*
X120128571Y-87157142D01*
X119628571Y-88371428D02*
X120628571Y-88728571D01*
X119628571Y-89085714D01*
X120200000Y-90728571D02*
X120200000Y-91442857D01*
X120628571Y-90585714D02*
X119128571Y-91085714D01*
X120628571Y-91585714D01*
X117142857Y-86121428D02*
X117214285Y-86335714D01*
X117285714Y-86407142D01*
X117428571Y-86478571D01*
X117642857Y-86478571D01*
X117785714Y-86407142D01*
X117857142Y-86335714D01*
X117928571Y-86192857D01*
X117928571Y-85621428D01*
X116428571Y-85621428D01*
X116428571Y-86121428D01*
X116500000Y-86264285D01*
X116571428Y-86335714D01*
X116714285Y-86407142D01*
X116857142Y-86407142D01*
X117000000Y-86335714D01*
X117071428Y-86264285D01*
X117142857Y-86121428D01*
X117142857Y-85621428D01*
X117928571Y-87835714D02*
X117928571Y-87121428D01*
X116428571Y-87121428D01*
X117142857Y-88335714D02*
X117142857Y-88835714D01*
X117928571Y-89050000D02*
X117928571Y-88335714D01*
X116428571Y-88335714D01*
X116428571Y-89050000D01*
X117928571Y-90835714D02*
X116428571Y-90835714D01*
X117142857Y-90835714D02*
X117142857Y-91692857D01*
X117928571Y-91692857D02*
X116428571Y-91692857D01*
X117500000Y-92335714D02*
X117500000Y-93050000D01*
X117928571Y-92192857D02*
X116428571Y-92692857D01*
X117928571Y-93192857D01*
X117928571Y-93692857D02*
X116428571Y-93692857D01*
X117928571Y-94550000D01*
X116428571Y-94550000D01*
X117357142Y-95264285D02*
X117357142Y-96407142D01*
X116928571Y-97121428D02*
X118428571Y-97121428D01*
X117000000Y-97121428D02*
X116928571Y-97264285D01*
X116928571Y-97550000D01*
X117000000Y-97692857D01*
X117071428Y-97764285D01*
X117214285Y-97835714D01*
X117642857Y-97835714D01*
X117785714Y-97764285D01*
X117857142Y-97692857D01*
X117928571Y-97550000D01*
X117928571Y-97264285D01*
X117857142Y-97121428D01*
X117928571Y-98692857D02*
X117857142Y-98550000D01*
X117785714Y-98478571D01*
X117642857Y-98407142D01*
X117214285Y-98407142D01*
X117071428Y-98478571D01*
X117000000Y-98550000D01*
X116928571Y-98692857D01*
X116928571Y-98907142D01*
X117000000Y-99050000D01*
X117071428Y-99121428D01*
X117214285Y-99192857D01*
X117642857Y-99192857D01*
X117785714Y-99121428D01*
X117857142Y-99050000D01*
X117928571Y-98907142D01*
X117928571Y-98692857D01*
X117928571Y-99835714D02*
X116928571Y-99835714D01*
X117214285Y-99835714D02*
X117071428Y-99907142D01*
X117000000Y-99978571D01*
X116928571Y-100121428D01*
X116928571Y-100264285D01*
X116928571Y-100550000D02*
X116928571Y-101121428D01*
X116428571Y-100764285D02*
X117714285Y-100764285D01*
X117857142Y-100835714D01*
X117928571Y-100978571D01*
X117928571Y-101121428D01*
X117928571Y-102764285D02*
X116928571Y-102764285D01*
X116428571Y-102764285D02*
X116500000Y-102692857D01*
X116571428Y-102764285D01*
X116500000Y-102835714D01*
X116428571Y-102764285D01*
X116571428Y-102764285D01*
X116928571Y-103478571D02*
X117928571Y-103478571D01*
X117071428Y-103478571D02*
X117000000Y-103550000D01*
X116928571Y-103692857D01*
X116928571Y-103907142D01*
X117000000Y-104050000D01*
X117142857Y-104121428D01*
X117928571Y-104121428D01*
X116928571Y-104621428D02*
X116928571Y-105192857D01*
X116428571Y-104835714D02*
X117714285Y-104835714D01*
X117857142Y-104907142D01*
X117928571Y-105050000D01*
X117928571Y-105192857D01*
X117857142Y-106264285D02*
X117928571Y-106121428D01*
X117928571Y-105835714D01*
X117857142Y-105692857D01*
X117714285Y-105621428D01*
X117142857Y-105621428D01*
X117000000Y-105692857D01*
X116928571Y-105835714D01*
X116928571Y-106121428D01*
X117000000Y-106264285D01*
X117142857Y-106335714D01*
X117285714Y-106335714D01*
X117428571Y-105621428D01*
X117928571Y-106978571D02*
X116928571Y-106978571D01*
X117214285Y-106978571D02*
X117071428Y-107050000D01*
X117000000Y-107121428D01*
X116928571Y-107264285D01*
X116928571Y-107407142D01*
X116928571Y-107692857D02*
X116928571Y-108264285D01*
X117928571Y-107907142D02*
X116642857Y-107907142D01*
X116500000Y-107978571D01*
X116428571Y-108121428D01*
X116428571Y-108264285D01*
X117928571Y-109407142D02*
X117142857Y-109407142D01*
X117000000Y-109335714D01*
X116928571Y-109192857D01*
X116928571Y-108907142D01*
X117000000Y-108764285D01*
X117857142Y-109407142D02*
X117928571Y-109264285D01*
X117928571Y-108907142D01*
X117857142Y-108764285D01*
X117714285Y-108692857D01*
X117571428Y-108692857D01*
X117428571Y-108764285D01*
X117357142Y-108907142D01*
X117357142Y-109264285D01*
X117285714Y-109407142D01*
X117857142Y-110764285D02*
X117928571Y-110621428D01*
X117928571Y-110335714D01*
X117857142Y-110192857D01*
X117785714Y-110121428D01*
X117642857Y-110050000D01*
X117214285Y-110050000D01*
X117071428Y-110121428D01*
X117000000Y-110192857D01*
X116928571Y-110335714D01*
X116928571Y-110621428D01*
X117000000Y-110764285D01*
X117857142Y-111978571D02*
X117928571Y-111835714D01*
X117928571Y-111550000D01*
X117857142Y-111407142D01*
X117714285Y-111335714D01*
X117142857Y-111335714D01*
X117000000Y-111407142D01*
X116928571Y-111550000D01*
X116928571Y-111835714D01*
X117000000Y-111978571D01*
X117142857Y-112050000D01*
X117285714Y-112050000D01*
X117428571Y-111335714D01*
%TO.C,REF\u002A\u002A*%
G36*
X139138344Y-103811617D02*
G01*
X139111520Y-103881932D01*
X139085706Y-103934576D01*
X139052431Y-103968940D01*
X139001510Y-103988907D01*
X138922761Y-103998361D01*
X138805999Y-104001186D01*
X138641042Y-104001264D01*
X138509558Y-104001664D01*
X138383394Y-104004049D01*
X138297223Y-104009741D01*
X138240672Y-104020039D01*
X138203370Y-104036245D01*
X138174943Y-104059655D01*
X138134827Y-104117207D01*
X138119706Y-104213888D01*
X138157917Y-104309535D01*
X138162810Y-104315848D01*
X138185413Y-104335523D01*
X138221664Y-104350037D01*
X138280511Y-104360606D01*
X138370901Y-104368445D01*
X138501779Y-104374773D01*
X138682095Y-104380805D01*
X139164907Y-104395402D01*
X139109283Y-104519483D01*
X139053659Y-104643563D01*
X138612851Y-104643563D01*
X138493098Y-104643049D01*
X138326506Y-104638620D01*
X138202468Y-104627406D01*
X138110987Y-104606728D01*
X138042066Y-104573907D01*
X137985707Y-104526264D01*
X137931914Y-104461123D01*
X137877719Y-104367429D01*
X137842339Y-104219825D01*
X137857689Y-104071513D01*
X137921770Y-103935152D01*
X138032584Y-103823402D01*
X138067273Y-103800239D01*
X138106590Y-103781027D01*
X138156145Y-103767402D01*
X138225568Y-103758123D01*
X138324490Y-103751950D01*
X138462539Y-103747643D01*
X138649346Y-103743962D01*
X139167542Y-103734820D01*
X139138344Y-103811617D01*
G37*
D11*
X139138344Y-103811617D02*
X139111520Y-103881932D01*
X139085706Y-103934576D01*
X139052431Y-103968940D01*
X139001510Y-103988907D01*
X138922761Y-103998361D01*
X138805999Y-104001186D01*
X138641042Y-104001264D01*
X138509558Y-104001664D01*
X138383394Y-104004049D01*
X138297223Y-104009741D01*
X138240672Y-104020039D01*
X138203370Y-104036245D01*
X138174943Y-104059655D01*
X138134827Y-104117207D01*
X138119706Y-104213888D01*
X138157917Y-104309535D01*
X138162810Y-104315848D01*
X138185413Y-104335523D01*
X138221664Y-104350037D01*
X138280511Y-104360606D01*
X138370901Y-104368445D01*
X138501779Y-104374773D01*
X138682095Y-104380805D01*
X139164907Y-104395402D01*
X139109283Y-104519483D01*
X139053659Y-104643563D01*
X138612851Y-104643563D01*
X138493098Y-104643049D01*
X138326506Y-104638620D01*
X138202468Y-104627406D01*
X138110987Y-104606728D01*
X138042066Y-104573907D01*
X137985707Y-104526264D01*
X137931914Y-104461123D01*
X137877719Y-104367429D01*
X137842339Y-104219825D01*
X137857689Y-104071513D01*
X137921770Y-103935152D01*
X138032584Y-103823402D01*
X138067273Y-103800239D01*
X138106590Y-103781027D01*
X138156145Y-103767402D01*
X138225568Y-103758123D01*
X138324490Y-103751950D01*
X138462539Y-103747643D01*
X138649346Y-103743962D01*
X139167542Y-103734820D01*
X139138344Y-103811617D01*
G36*
X138853736Y-101496332D02*
G01*
X138918785Y-101495529D01*
X139136260Y-101492960D01*
X139302672Y-101492444D01*
X139423846Y-101495563D01*
X139505607Y-101503900D01*
X139553781Y-101519038D01*
X139574194Y-101542559D01*
X139572672Y-101576044D01*
X139555039Y-101621077D01*
X139527121Y-101679239D01*
X139521164Y-101691668D01*
X139492006Y-101743422D01*
X139457314Y-101770450D01*
X139399470Y-101780793D01*
X139300857Y-101782491D01*
X139123793Y-101782567D01*
X139123793Y-101964962D01*
X139118880Y-102077160D01*
X139098953Y-102165380D01*
X139058678Y-102238642D01*
X139054741Y-102244104D01*
X138988243Y-102318442D01*
X138907908Y-102370177D01*
X138802758Y-102402804D01*
X138661815Y-102419818D01*
X138474101Y-102424713D01*
X138337122Y-102423629D01*
X138233364Y-102418693D01*
X138161412Y-102407728D01*
X138107500Y-102388562D01*
X138057864Y-102359023D01*
X138019931Y-102331908D01*
X137917522Y-102233450D01*
X137861903Y-102121900D01*
X137844297Y-101981754D01*
X137845525Y-101970528D01*
X138116552Y-101970528D01*
X138119729Y-102005044D01*
X138151254Y-102064765D01*
X138221505Y-102104248D01*
X138336583Y-102126058D01*
X138502588Y-102132759D01*
X138529276Y-102132709D01*
X138649738Y-102129936D01*
X138728484Y-102121033D01*
X138779618Y-102103383D01*
X138817241Y-102074368D01*
X138819038Y-102072560D01*
X138867720Y-102001247D01*
X138862921Y-101932135D01*
X138803971Y-101854075D01*
X138783823Y-101834981D01*
X138742515Y-101806858D01*
X138688787Y-101791000D01*
X138607326Y-101783991D01*
X138482821Y-101782414D01*
X138407445Y-101783780D01*
X138270362Y-101798598D01*
X138180548Y-101832421D01*
X138131460Y-101888611D01*
X138116552Y-101970528D01*
X137845525Y-101970528D01*
X137861847Y-101821365D01*
X137924797Y-101682712D01*
X138035824Y-101573049D01*
X138047578Y-101564782D01*
X138078813Y-101545501D01*
X138114507Y-101530731D01*
X138162364Y-101519746D01*
X138230087Y-101511826D01*
X138325382Y-101506247D01*
X138455952Y-101502287D01*
X138482821Y-101501812D01*
X138629502Y-101499222D01*
X138853736Y-101496332D01*
G37*
X138853736Y-101496332D02*
X138918785Y-101495529D01*
X139136260Y-101492960D01*
X139302672Y-101492444D01*
X139423846Y-101495563D01*
X139505607Y-101503900D01*
X139553781Y-101519038D01*
X139574194Y-101542559D01*
X139572672Y-101576044D01*
X139555039Y-101621077D01*
X139527121Y-101679239D01*
X139521164Y-101691668D01*
X139492006Y-101743422D01*
X139457314Y-101770450D01*
X139399470Y-101780793D01*
X139300857Y-101782491D01*
X139123793Y-101782567D01*
X139123793Y-101964962D01*
X139118880Y-102077160D01*
X139098953Y-102165380D01*
X139058678Y-102238642D01*
X139054741Y-102244104D01*
X138988243Y-102318442D01*
X138907908Y-102370177D01*
X138802758Y-102402804D01*
X138661815Y-102419818D01*
X138474101Y-102424713D01*
X138337122Y-102423629D01*
X138233364Y-102418693D01*
X138161412Y-102407728D01*
X138107500Y-102388562D01*
X138057864Y-102359023D01*
X138019931Y-102331908D01*
X137917522Y-102233450D01*
X137861903Y-102121900D01*
X137844297Y-101981754D01*
X137845525Y-101970528D01*
X138116552Y-101970528D01*
X138119729Y-102005044D01*
X138151254Y-102064765D01*
X138221505Y-102104248D01*
X138336583Y-102126058D01*
X138502588Y-102132759D01*
X138529276Y-102132709D01*
X138649738Y-102129936D01*
X138728484Y-102121033D01*
X138779618Y-102103383D01*
X138817241Y-102074368D01*
X138819038Y-102072560D01*
X138867720Y-102001247D01*
X138862921Y-101932135D01*
X138803971Y-101854075D01*
X138783823Y-101834981D01*
X138742515Y-101806858D01*
X138688787Y-101791000D01*
X138607326Y-101783991D01*
X138482821Y-101782414D01*
X138407445Y-101783780D01*
X138270362Y-101798598D01*
X138180548Y-101832421D01*
X138131460Y-101888611D01*
X138116552Y-101970528D01*
X137845525Y-101970528D01*
X137861847Y-101821365D01*
X137924797Y-101682712D01*
X138035824Y-101573049D01*
X138047578Y-101564782D01*
X138078813Y-101545501D01*
X138114507Y-101530731D01*
X138162364Y-101519746D01*
X138230087Y-101511826D01*
X138325382Y-101506247D01*
X138455952Y-101502287D01*
X138482821Y-101501812D01*
X138629502Y-101499222D01*
X138853736Y-101496332D01*
G36*
X138639135Y-108499781D02*
G01*
X138794320Y-108516261D01*
X138910612Y-108552117D01*
X138999411Y-108611545D01*
X139072119Y-108698743D01*
X139114150Y-108781805D01*
X139137538Y-108921291D01*
X139111965Y-109060588D01*
X139040694Y-109186490D01*
X138926991Y-109285790D01*
X138906024Y-109297781D01*
X138869291Y-109313616D01*
X138822415Y-109325362D01*
X138757355Y-109333622D01*
X138666070Y-109339002D01*
X138540519Y-109342108D01*
X138372661Y-109343543D01*
X138154455Y-109343914D01*
X137477072Y-109344023D01*
X137516819Y-109249138D01*
X137527699Y-109224051D01*
X137552268Y-109184119D01*
X137589475Y-109161261D01*
X137654541Y-109148699D01*
X137762687Y-109139655D01*
X137859788Y-109131395D01*
X137923535Y-109120477D01*
X137947323Y-109104835D01*
X137940943Y-109081264D01*
X137918525Y-109021199D01*
X137912967Y-108913855D01*
X137918063Y-108885508D01*
X138121235Y-108885508D01*
X138127985Y-108987563D01*
X138184123Y-109076175D01*
X138206382Y-109095251D01*
X138248293Y-109118514D01*
X138306822Y-109131964D01*
X138395880Y-109138159D01*
X138529379Y-109139655D01*
X138635644Y-109138965D01*
X138731762Y-109134600D01*
X138793811Y-109123808D01*
X138835502Y-109103874D01*
X138870543Y-109072084D01*
X138877279Y-109064636D01*
X138926992Y-108968940D01*
X138921905Y-108867688D01*
X138862362Y-108773386D01*
X138831514Y-108745306D01*
X138790618Y-108721804D01*
X138734080Y-108708678D01*
X138647657Y-108702970D01*
X138517106Y-108701724D01*
X138417487Y-108702339D01*
X138320251Y-108706593D01*
X138257502Y-108717318D01*
X138215382Y-108737293D01*
X138180032Y-108769296D01*
X138164114Y-108788095D01*
X138121235Y-108885508D01*
X137918063Y-108885508D01*
X137933728Y-108798376D01*
X137978455Y-108698743D01*
X138019856Y-108643928D01*
X138100632Y-108573548D01*
X138204195Y-108528472D01*
X138341947Y-108504504D01*
X138517106Y-108497761D01*
X138525287Y-108497447D01*
X138639135Y-108499781D01*
G37*
X138639135Y-108499781D02*
X138794320Y-108516261D01*
X138910612Y-108552117D01*
X138999411Y-108611545D01*
X139072119Y-108698743D01*
X139114150Y-108781805D01*
X139137538Y-108921291D01*
X139111965Y-109060588D01*
X139040694Y-109186490D01*
X138926991Y-109285790D01*
X138906024Y-109297781D01*
X138869291Y-109313616D01*
X138822415Y-109325362D01*
X138757355Y-109333622D01*
X138666070Y-109339002D01*
X138540519Y-109342108D01*
X138372661Y-109343543D01*
X138154455Y-109343914D01*
X137477072Y-109344023D01*
X137516819Y-109249138D01*
X137527699Y-109224051D01*
X137552268Y-109184119D01*
X137589475Y-109161261D01*
X137654541Y-109148699D01*
X137762687Y-109139655D01*
X137859788Y-109131395D01*
X137923535Y-109120477D01*
X137947323Y-109104835D01*
X137940943Y-109081264D01*
X137918525Y-109021199D01*
X137912967Y-108913855D01*
X137918063Y-108885508D01*
X138121235Y-108885508D01*
X138127985Y-108987563D01*
X138184123Y-109076175D01*
X138206382Y-109095251D01*
X138248293Y-109118514D01*
X138306822Y-109131964D01*
X138395880Y-109138159D01*
X138529379Y-109139655D01*
X138635644Y-109138965D01*
X138731762Y-109134600D01*
X138793811Y-109123808D01*
X138835502Y-109103874D01*
X138870543Y-109072084D01*
X138877279Y-109064636D01*
X138926992Y-108968940D01*
X138921905Y-108867688D01*
X138862362Y-108773386D01*
X138831514Y-108745306D01*
X138790618Y-108721804D01*
X138734080Y-108708678D01*
X138647657Y-108702970D01*
X138517106Y-108701724D01*
X138417487Y-108702339D01*
X138320251Y-108706593D01*
X138257502Y-108717318D01*
X138215382Y-108737293D01*
X138180032Y-108769296D01*
X138164114Y-108788095D01*
X138121235Y-108885508D01*
X137918063Y-108885508D01*
X137933728Y-108798376D01*
X137978455Y-108698743D01*
X138019856Y-108643928D01*
X138100632Y-108573548D01*
X138204195Y-108528472D01*
X138341947Y-108504504D01*
X138517106Y-108497761D01*
X138525287Y-108497447D01*
X138639135Y-108499781D01*
G36*
X139051117Y-109611585D02*
G01*
X139071835Y-109632690D01*
X139117885Y-109691153D01*
X139132801Y-109750114D01*
X139125934Y-109837850D01*
X139121494Y-109873571D01*
X139112102Y-109965699D01*
X139108361Y-110030115D01*
X139108933Y-110049222D01*
X139115126Y-110127610D01*
X139125934Y-110222380D01*
X139129647Y-110252702D01*
X139131107Y-110329089D01*
X139108047Y-110384978D01*
X139051117Y-110448645D01*
X138958727Y-110541035D01*
X138435455Y-110541035D01*
X138280821Y-110540315D01*
X138133391Y-110538071D01*
X138016653Y-110534579D01*
X137939840Y-110530124D01*
X137912184Y-110524987D01*
X137912258Y-110523910D01*
X137926019Y-110486593D01*
X137956344Y-110423543D01*
X138000505Y-110338146D01*
X138459965Y-110330107D01*
X138919425Y-110322069D01*
X138919425Y-110146897D01*
X138415805Y-110138908D01*
X138278904Y-110136376D01*
X138132579Y-110132751D01*
X138016411Y-110128823D01*
X137939809Y-110124920D01*
X137912184Y-110121368D01*
X137912281Y-110120347D01*
X137922443Y-110084949D01*
X137944235Y-110019874D01*
X137976287Y-109927931D01*
X138418661Y-109927484D01*
X138495507Y-109927036D01*
X138644834Y-109923931D01*
X138769544Y-109918378D01*
X138858379Y-109910967D01*
X138900083Y-109902286D01*
X138922389Y-109871229D01*
X138929278Y-109807848D01*
X138919425Y-109738161D01*
X138415805Y-109730173D01*
X138287828Y-109727314D01*
X138136348Y-109721386D01*
X138017530Y-109713635D01*
X137939950Y-109704657D01*
X137912184Y-109695052D01*
X137920970Y-109657590D01*
X137946066Y-109593558D01*
X137979947Y-109519195D01*
X138958727Y-109519195D01*
X139051117Y-109611585D01*
G37*
X139051117Y-109611585D02*
X139071835Y-109632690D01*
X139117885Y-109691153D01*
X139132801Y-109750114D01*
X139125934Y-109837850D01*
X139121494Y-109873571D01*
X139112102Y-109965699D01*
X139108361Y-110030115D01*
X139108933Y-110049222D01*
X139115126Y-110127610D01*
X139125934Y-110222380D01*
X139129647Y-110252702D01*
X139131107Y-110329089D01*
X139108047Y-110384978D01*
X139051117Y-110448645D01*
X138958727Y-110541035D01*
X138435455Y-110541035D01*
X138280821Y-110540315D01*
X138133391Y-110538071D01*
X138016653Y-110534579D01*
X137939840Y-110530124D01*
X137912184Y-110524987D01*
X137912258Y-110523910D01*
X137926019Y-110486593D01*
X137956344Y-110423543D01*
X138000505Y-110338146D01*
X138459965Y-110330107D01*
X138919425Y-110322069D01*
X138919425Y-110146897D01*
X138415805Y-110138908D01*
X138278904Y-110136376D01*
X138132579Y-110132751D01*
X138016411Y-110128823D01*
X137939809Y-110124920D01*
X137912184Y-110121368D01*
X137912281Y-110120347D01*
X137922443Y-110084949D01*
X137944235Y-110019874D01*
X137976287Y-109927931D01*
X138418661Y-109927484D01*
X138495507Y-109927036D01*
X138644834Y-109923931D01*
X138769544Y-109918378D01*
X138858379Y-109910967D01*
X138900083Y-109902286D01*
X138922389Y-109871229D01*
X138929278Y-109807848D01*
X138919425Y-109738161D01*
X138415805Y-109730173D01*
X138287828Y-109727314D01*
X138136348Y-109721386D01*
X138017530Y-109713635D01*
X137939950Y-109704657D01*
X137912184Y-109695052D01*
X137920970Y-109657590D01*
X137946066Y-109593558D01*
X137979947Y-109519195D01*
X138958727Y-109519195D01*
X139051117Y-109611585D01*
G36*
X138775341Y-111709191D02*
G01*
X138919541Y-111710899D01*
X139034620Y-111713799D01*
X139110822Y-111717616D01*
X139138391Y-111722075D01*
X139129272Y-111751091D01*
X139104509Y-111809661D01*
X139103707Y-111811419D01*
X139087785Y-111841833D01*
X139065938Y-111862288D01*
X139027672Y-111874760D01*
X138962495Y-111881223D01*
X138859913Y-111883652D01*
X138709433Y-111884023D01*
X138613974Y-111884771D01*
X138434571Y-111892744D01*
X138303163Y-111911002D01*
X138212859Y-111941474D01*
X138156767Y-111986088D01*
X138127994Y-112046774D01*
X138125989Y-112055193D01*
X138124423Y-112168861D01*
X138175348Y-112257508D01*
X138277445Y-112318735D01*
X138306961Y-112329654D01*
X138372283Y-112354542D01*
X138402300Y-112367146D01*
X138398164Y-112393031D01*
X138375717Y-112449561D01*
X138338647Y-112502285D01*
X138268587Y-112526322D01*
X138218406Y-112519153D01*
X138116618Y-112475103D01*
X138021235Y-112403877D01*
X137955269Y-112320585D01*
X137940018Y-112285690D01*
X137914521Y-112153557D01*
X137924619Y-112013275D01*
X137969393Y-111892739D01*
X138003034Y-111842612D01*
X138051236Y-111791848D01*
X138112551Y-111755638D01*
X138196024Y-111731607D01*
X138310697Y-111717382D01*
X138465613Y-111710588D01*
X138669814Y-111708851D01*
X138775341Y-111709191D01*
G37*
X138775341Y-111709191D02*
X138919541Y-111710899D01*
X139034620Y-111713799D01*
X139110822Y-111717616D01*
X139138391Y-111722075D01*
X139129272Y-111751091D01*
X139104509Y-111809661D01*
X139103707Y-111811419D01*
X139087785Y-111841833D01*
X139065938Y-111862288D01*
X139027672Y-111874760D01*
X138962495Y-111881223D01*
X138859913Y-111883652D01*
X138709433Y-111884023D01*
X138613974Y-111884771D01*
X138434571Y-111892744D01*
X138303163Y-111911002D01*
X138212859Y-111941474D01*
X138156767Y-111986088D01*
X138127994Y-112046774D01*
X138125989Y-112055193D01*
X138124423Y-112168861D01*
X138175348Y-112257508D01*
X138277445Y-112318735D01*
X138306961Y-112329654D01*
X138372283Y-112354542D01*
X138402300Y-112367146D01*
X138398164Y-112393031D01*
X138375717Y-112449561D01*
X138338647Y-112502285D01*
X138268587Y-112526322D01*
X138218406Y-112519153D01*
X138116618Y-112475103D01*
X138021235Y-112403877D01*
X137955269Y-112320585D01*
X137940018Y-112285690D01*
X137914521Y-112153557D01*
X137924619Y-112013275D01*
X137969393Y-111892739D01*
X138003034Y-111842612D01*
X138051236Y-111791848D01*
X138112551Y-111755638D01*
X138196024Y-111731607D01*
X138310697Y-111717382D01*
X138465613Y-111710588D01*
X138669814Y-111708851D01*
X138775341Y-111709191D01*
G36*
X133734160Y-102490402D02*
G01*
X133737785Y-102508943D01*
X133756569Y-102607404D01*
X133782093Y-102743552D01*
X133811468Y-102901913D01*
X133841806Y-103067012D01*
X133854009Y-103132027D01*
X133883697Y-103277303D01*
X133911770Y-103398374D01*
X133935536Y-103484114D01*
X133952301Y-103523399D01*
X133979694Y-103541201D01*
X134052174Y-103573611D01*
X134145977Y-103606766D01*
X134181103Y-103618436D01*
X134296409Y-103661396D01*
X134432876Y-103716808D01*
X134567954Y-103775647D01*
X134638509Y-103807116D01*
X134743895Y-103851949D01*
X134822818Y-103882760D01*
X134862053Y-103894215D01*
X134865014Y-103893578D01*
X134906639Y-103871850D01*
X134986969Y-103822854D01*
X135098220Y-103751562D01*
X135232605Y-103662946D01*
X135382340Y-103561977D01*
X135869931Y-103229739D01*
X136307149Y-103666229D01*
X136349221Y-103708445D01*
X136475153Y-103837530D01*
X136583754Y-103952893D01*
X136668903Y-104047776D01*
X136724482Y-104115418D01*
X136744368Y-104149062D01*
X136729238Y-104185598D01*
X136685801Y-104262110D01*
X136619270Y-104369804D01*
X136534867Y-104500233D01*
X136437816Y-104644948D01*
X136341964Y-104787090D01*
X136257557Y-104915322D01*
X136190850Y-105019946D01*
X136147024Y-105092829D01*
X136131264Y-105125842D01*
X136131408Y-105127777D01*
X136146945Y-105171631D01*
X136183121Y-105249402D01*
X136232785Y-105345608D01*
X136233329Y-105346619D01*
X136297326Y-105474395D01*
X136328591Y-105561949D01*
X136328677Y-105616274D01*
X136299138Y-105644359D01*
X136270061Y-105656248D01*
X136192188Y-105688332D01*
X136072475Y-105737753D01*
X135917286Y-105801882D01*
X135732984Y-105878089D01*
X135525933Y-105963745D01*
X135302496Y-106056219D01*
X135099226Y-106140038D01*
X134890649Y-106225322D01*
X134704263Y-106300778D01*
X134546407Y-106363874D01*
X134423419Y-106412077D01*
X134341639Y-106442856D01*
X134307406Y-106453678D01*
X134276015Y-106433009D01*
X134223602Y-106375591D01*
X134162704Y-106294312D01*
X134003387Y-106099180D01*
X133799807Y-105924555D01*
X133575808Y-105796765D01*
X133338003Y-105716598D01*
X133093007Y-105684840D01*
X132847433Y-105702278D01*
X132607895Y-105769699D01*
X132381007Y-105887889D01*
X132173383Y-106057636D01*
X132092527Y-106146144D01*
X131949559Y-106358196D01*
X131856352Y-106585095D01*
X131810687Y-106820209D01*
X131810344Y-107056906D01*
X131853105Y-107288554D01*
X131936750Y-107508522D01*
X132059061Y-107710178D01*
X132217817Y-107886889D01*
X132410801Y-108032023D01*
X132635793Y-108138950D01*
X132890575Y-108201036D01*
X133013377Y-108212431D01*
X133279434Y-108196754D01*
X133531856Y-108126154D01*
X133766182Y-108002718D01*
X133977952Y-107828534D01*
X134162704Y-107605689D01*
X134221123Y-107527439D01*
X134274110Y-107468756D01*
X134307356Y-107446322D01*
X134336339Y-107455268D01*
X134413996Y-107484297D01*
X134533451Y-107530974D01*
X134688362Y-107592769D01*
X134872392Y-107667150D01*
X135079200Y-107751588D01*
X135302446Y-107843551D01*
X135504742Y-107927229D01*
X135713686Y-108013634D01*
X135900498Y-108090862D01*
X136058814Y-108156284D01*
X136182269Y-108207269D01*
X136264498Y-108241188D01*
X136299138Y-108255410D01*
X136299548Y-108255575D01*
X136328798Y-108284028D01*
X136328463Y-108338618D01*
X136296980Y-108426391D01*
X136232785Y-108554392D01*
X136227380Y-108564468D01*
X136178750Y-108659519D01*
X136144328Y-108734576D01*
X136131264Y-108774158D01*
X136146702Y-108806600D01*
X136190258Y-108879105D01*
X136256751Y-108983435D01*
X136340998Y-109111461D01*
X136437816Y-109255052D01*
X136532734Y-109396532D01*
X136617490Y-109527389D01*
X136684496Y-109635708D01*
X136728529Y-109713040D01*
X136744368Y-109750938D01*
X136742357Y-109757393D01*
X136710658Y-109802391D01*
X136645181Y-109879273D01*
X136552048Y-109981279D01*
X136437381Y-110101649D01*
X136307300Y-110233621D01*
X135870232Y-110669961D01*
X134870440Y-109990267D01*
X134646886Y-110093598D01*
X134646225Y-110093904D01*
X134503714Y-110155954D01*
X134345018Y-110219360D01*
X134204368Y-110270442D01*
X134181683Y-110278173D01*
X134076370Y-110317148D01*
X133994534Y-110352293D01*
X133952301Y-110376805D01*
X133946337Y-110386788D01*
X133926329Y-110446714D01*
X133900442Y-110548468D01*
X133871370Y-110680932D01*
X133841806Y-110832989D01*
X133833467Y-110878534D01*
X133803107Y-111043315D01*
X133774509Y-111197070D01*
X133750564Y-111324322D01*
X133734160Y-111409598D01*
X133703906Y-111562874D01*
X133065645Y-111562874D01*
X132987165Y-111562840D01*
X132795703Y-111562192D01*
X132652812Y-111560280D01*
X132551189Y-111556531D01*
X132483531Y-111550378D01*
X132442536Y-111541249D01*
X132420900Y-111528573D01*
X132411320Y-111511782D01*
X132407439Y-111495526D01*
X132393710Y-111429252D01*
X132372745Y-111323521D01*
X132346588Y-111189085D01*
X132317283Y-111036698D01*
X132286877Y-110877110D01*
X132257413Y-110721075D01*
X132230937Y-110579343D01*
X132209494Y-110462669D01*
X132195128Y-110381803D01*
X132189885Y-110347497D01*
X132186720Y-110345178D01*
X132145642Y-110326526D01*
X132067044Y-110294247D01*
X131963621Y-110253609D01*
X131824273Y-110197212D01*
X131663226Y-110127786D01*
X131521291Y-110062712D01*
X131489432Y-110047798D01*
X131389669Y-110005953D01*
X131312721Y-109980882D01*
X131273130Y-109977574D01*
X131270325Y-109979280D01*
X131229005Y-110006369D01*
X131148740Y-110060073D01*
X131037350Y-110135123D01*
X130902655Y-110226254D01*
X130752476Y-110328200D01*
X130581851Y-110443070D01*
X130449311Y-110529239D01*
X130352112Y-110587869D01*
X130284234Y-110622350D01*
X130239656Y-110636074D01*
X130212361Y-110632432D01*
X130210313Y-110631206D01*
X130170536Y-110598253D01*
X130098052Y-110531073D01*
X130000046Y-110436581D01*
X129883702Y-110321694D01*
X129756205Y-110193328D01*
X129626821Y-110060169D01*
X129505209Y-109929731D01*
X129423156Y-109833881D01*
X129378560Y-109770134D01*
X129369317Y-109736004D01*
X129371393Y-109731544D01*
X129399385Y-109684579D01*
X129454084Y-109599315D01*
X129530237Y-109483741D01*
X129622592Y-109345846D01*
X129725897Y-109193619D01*
X130064765Y-108697390D01*
X129963056Y-108473293D01*
X129960109Y-108466781D01*
X129900504Y-108329196D01*
X129841222Y-108183233D01*
X129794685Y-108059425D01*
X129794493Y-108058878D01*
X129758497Y-107960586D01*
X129728095Y-107884919D01*
X129709852Y-107848220D01*
X129709190Y-107847626D01*
X129671831Y-107835167D01*
X129586871Y-107814664D01*
X129463469Y-107788093D01*
X129310782Y-107757433D01*
X129137967Y-107724664D01*
X129131774Y-107723522D01*
X128955431Y-107690807D01*
X128795743Y-107660845D01*
X128662905Y-107635575D01*
X128567113Y-107616935D01*
X128518563Y-107606865D01*
X128515873Y-107606221D01*
X128495088Y-107599592D01*
X128479466Y-107586159D01*
X128468270Y-107558554D01*
X128460762Y-107509407D01*
X128456205Y-107431347D01*
X128453863Y-107317006D01*
X128452998Y-107159014D01*
X128452874Y-106950000D01*
X128452874Y-106923738D01*
X128453045Y-106720825D01*
X128454039Y-106568105D01*
X128456593Y-106458208D01*
X128461445Y-106383765D01*
X128469331Y-106337406D01*
X128480988Y-106311761D01*
X128497153Y-106299461D01*
X128518563Y-106293135D01*
X128519332Y-106292953D01*
X128569663Y-106282559D01*
X128666888Y-106263661D01*
X128800810Y-106238198D01*
X128961235Y-106208110D01*
X129137967Y-106175336D01*
X129152428Y-106172663D01*
X129323959Y-106139990D01*
X129474625Y-106109587D01*
X129595267Y-106083432D01*
X129676729Y-106063504D01*
X129709852Y-106051780D01*
X129709905Y-106051718D01*
X129728229Y-106014771D01*
X129758677Y-105938943D01*
X129794685Y-105840575D01*
X129796640Y-105835035D01*
X129844170Y-105709276D01*
X129903783Y-105562989D01*
X129963056Y-105426707D01*
X130064765Y-105202610D01*
X129725897Y-104706382D01*
X129702063Y-104671430D01*
X129600755Y-104521720D01*
X129511575Y-104388133D01*
X129439773Y-104278657D01*
X129390603Y-104201282D01*
X129369317Y-104163996D01*
X129374196Y-104138448D01*
X129412002Y-104080445D01*
X129486870Y-103990805D01*
X129600903Y-103867043D01*
X129756205Y-103706672D01*
X129770341Y-103692321D01*
X129896999Y-103565067D01*
X130011745Y-103452031D01*
X130107391Y-103360133D01*
X130176746Y-103296293D01*
X130212620Y-103267430D01*
X130212794Y-103267336D01*
X130240106Y-103263669D01*
X130284408Y-103277192D01*
X130351761Y-103311316D01*
X130448226Y-103369452D01*
X130579863Y-103455012D01*
X130752734Y-103571406D01*
X130781912Y-103591241D01*
X130929726Y-103691555D01*
X131060577Y-103780077D01*
X131166643Y-103851535D01*
X131240102Y-103900657D01*
X131273130Y-103922169D01*
X131280126Y-103923792D01*
X131332326Y-103913613D01*
X131417561Y-103883121D01*
X131521291Y-103837288D01*
X131656951Y-103775000D01*
X131817921Y-103705452D01*
X131963621Y-103646391D01*
X132001333Y-103631748D01*
X132097622Y-103593400D01*
X132164704Y-103565230D01*
X132189885Y-103552503D01*
X132191767Y-103538455D01*
X132202651Y-103475319D01*
X132221449Y-103371981D01*
X132246115Y-103239191D01*
X132274604Y-103087703D01*
X132304873Y-102928268D01*
X132334875Y-102771639D01*
X132362566Y-102628567D01*
X132385900Y-102509805D01*
X132402833Y-102426104D01*
X132411320Y-102388218D01*
X132413713Y-102381937D01*
X132426619Y-102366627D01*
X132454096Y-102355237D01*
X132503446Y-102347197D01*
X132581973Y-102341936D01*
X132696980Y-102338884D01*
X132855770Y-102337471D01*
X133065645Y-102337127D01*
X133703906Y-102337127D01*
X133734160Y-102490402D01*
G37*
X133734160Y-102490402D02*
X133737785Y-102508943D01*
X133756569Y-102607404D01*
X133782093Y-102743552D01*
X133811468Y-102901913D01*
X133841806Y-103067012D01*
X133854009Y-103132027D01*
X133883697Y-103277303D01*
X133911770Y-103398374D01*
X133935536Y-103484114D01*
X133952301Y-103523399D01*
X133979694Y-103541201D01*
X134052174Y-103573611D01*
X134145977Y-103606766D01*
X134181103Y-103618436D01*
X134296409Y-103661396D01*
X134432876Y-103716808D01*
X134567954Y-103775647D01*
X134638509Y-103807116D01*
X134743895Y-103851949D01*
X134822818Y-103882760D01*
X134862053Y-103894215D01*
X134865014Y-103893578D01*
X134906639Y-103871850D01*
X134986969Y-103822854D01*
X135098220Y-103751562D01*
X135232605Y-103662946D01*
X135382340Y-103561977D01*
X135869931Y-103229739D01*
X136307149Y-103666229D01*
X136349221Y-103708445D01*
X136475153Y-103837530D01*
X136583754Y-103952893D01*
X136668903Y-104047776D01*
X136724482Y-104115418D01*
X136744368Y-104149062D01*
X136729238Y-104185598D01*
X136685801Y-104262110D01*
X136619270Y-104369804D01*
X136534867Y-104500233D01*
X136437816Y-104644948D01*
X136341964Y-104787090D01*
X136257557Y-104915322D01*
X136190850Y-105019946D01*
X136147024Y-105092829D01*
X136131264Y-105125842D01*
X136131408Y-105127777D01*
X136146945Y-105171631D01*
X136183121Y-105249402D01*
X136232785Y-105345608D01*
X136233329Y-105346619D01*
X136297326Y-105474395D01*
X136328591Y-105561949D01*
X136328677Y-105616274D01*
X136299138Y-105644359D01*
X136270061Y-105656248D01*
X136192188Y-105688332D01*
X136072475Y-105737753D01*
X135917286Y-105801882D01*
X135732984Y-105878089D01*
X135525933Y-105963745D01*
X135302496Y-106056219D01*
X135099226Y-106140038D01*
X134890649Y-106225322D01*
X134704263Y-106300778D01*
X134546407Y-106363874D01*
X134423419Y-106412077D01*
X134341639Y-106442856D01*
X134307406Y-106453678D01*
X134276015Y-106433009D01*
X134223602Y-106375591D01*
X134162704Y-106294312D01*
X134003387Y-106099180D01*
X133799807Y-105924555D01*
X133575808Y-105796765D01*
X133338003Y-105716598D01*
X133093007Y-105684840D01*
X132847433Y-105702278D01*
X132607895Y-105769699D01*
X132381007Y-105887889D01*
X132173383Y-106057636D01*
X132092527Y-106146144D01*
X131949559Y-106358196D01*
X131856352Y-106585095D01*
X131810687Y-106820209D01*
X131810344Y-107056906D01*
X131853105Y-107288554D01*
X131936750Y-107508522D01*
X132059061Y-107710178D01*
X132217817Y-107886889D01*
X132410801Y-108032023D01*
X132635793Y-108138950D01*
X132890575Y-108201036D01*
X133013377Y-108212431D01*
X133279434Y-108196754D01*
X133531856Y-108126154D01*
X133766182Y-108002718D01*
X133977952Y-107828534D01*
X134162704Y-107605689D01*
X134221123Y-107527439D01*
X134274110Y-107468756D01*
X134307356Y-107446322D01*
X134336339Y-107455268D01*
X134413996Y-107484297D01*
X134533451Y-107530974D01*
X134688362Y-107592769D01*
X134872392Y-107667150D01*
X135079200Y-107751588D01*
X135302446Y-107843551D01*
X135504742Y-107927229D01*
X135713686Y-108013634D01*
X135900498Y-108090862D01*
X136058814Y-108156284D01*
X136182269Y-108207269D01*
X136264498Y-108241188D01*
X136299138Y-108255410D01*
X136299548Y-108255575D01*
X136328798Y-108284028D01*
X136328463Y-108338618D01*
X136296980Y-108426391D01*
X136232785Y-108554392D01*
X136227380Y-108564468D01*
X136178750Y-108659519D01*
X136144328Y-108734576D01*
X136131264Y-108774158D01*
X136146702Y-108806600D01*
X136190258Y-108879105D01*
X136256751Y-108983435D01*
X136340998Y-109111461D01*
X136437816Y-109255052D01*
X136532734Y-109396532D01*
X136617490Y-109527389D01*
X136684496Y-109635708D01*
X136728529Y-109713040D01*
X136744368Y-109750938D01*
X136742357Y-109757393D01*
X136710658Y-109802391D01*
X136645181Y-109879273D01*
X136552048Y-109981279D01*
X136437381Y-110101649D01*
X136307300Y-110233621D01*
X135870232Y-110669961D01*
X134870440Y-109990267D01*
X134646886Y-110093598D01*
X134646225Y-110093904D01*
X134503714Y-110155954D01*
X134345018Y-110219360D01*
X134204368Y-110270442D01*
X134181683Y-110278173D01*
X134076370Y-110317148D01*
X133994534Y-110352293D01*
X133952301Y-110376805D01*
X133946337Y-110386788D01*
X133926329Y-110446714D01*
X133900442Y-110548468D01*
X133871370Y-110680932D01*
X133841806Y-110832989D01*
X133833467Y-110878534D01*
X133803107Y-111043315D01*
X133774509Y-111197070D01*
X133750564Y-111324322D01*
X133734160Y-111409598D01*
X133703906Y-111562874D01*
X133065645Y-111562874D01*
X132987165Y-111562840D01*
X132795703Y-111562192D01*
X132652812Y-111560280D01*
X132551189Y-111556531D01*
X132483531Y-111550378D01*
X132442536Y-111541249D01*
X132420900Y-111528573D01*
X132411320Y-111511782D01*
X132407439Y-111495526D01*
X132393710Y-111429252D01*
X132372745Y-111323521D01*
X132346588Y-111189085D01*
X132317283Y-111036698D01*
X132286877Y-110877110D01*
X132257413Y-110721075D01*
X132230937Y-110579343D01*
X132209494Y-110462669D01*
X132195128Y-110381803D01*
X132189885Y-110347497D01*
X132186720Y-110345178D01*
X132145642Y-110326526D01*
X132067044Y-110294247D01*
X131963621Y-110253609D01*
X131824273Y-110197212D01*
X131663226Y-110127786D01*
X131521291Y-110062712D01*
X131489432Y-110047798D01*
X131389669Y-110005953D01*
X131312721Y-109980882D01*
X131273130Y-109977574D01*
X131270325Y-109979280D01*
X131229005Y-110006369D01*
X131148740Y-110060073D01*
X131037350Y-110135123D01*
X130902655Y-110226254D01*
X130752476Y-110328200D01*
X130581851Y-110443070D01*
X130449311Y-110529239D01*
X130352112Y-110587869D01*
X130284234Y-110622350D01*
X130239656Y-110636074D01*
X130212361Y-110632432D01*
X130210313Y-110631206D01*
X130170536Y-110598253D01*
X130098052Y-110531073D01*
X130000046Y-110436581D01*
X129883702Y-110321694D01*
X129756205Y-110193328D01*
X129626821Y-110060169D01*
X129505209Y-109929731D01*
X129423156Y-109833881D01*
X129378560Y-109770134D01*
X129369317Y-109736004D01*
X129371393Y-109731544D01*
X129399385Y-109684579D01*
X129454084Y-109599315D01*
X129530237Y-109483741D01*
X129622592Y-109345846D01*
X129725897Y-109193619D01*
X130064765Y-108697390D01*
X129963056Y-108473293D01*
X129960109Y-108466781D01*
X129900504Y-108329196D01*
X129841222Y-108183233D01*
X129794685Y-108059425D01*
X129794493Y-108058878D01*
X129758497Y-107960586D01*
X129728095Y-107884919D01*
X129709852Y-107848220D01*
X129709190Y-107847626D01*
X129671831Y-107835167D01*
X129586871Y-107814664D01*
X129463469Y-107788093D01*
X129310782Y-107757433D01*
X129137967Y-107724664D01*
X129131774Y-107723522D01*
X128955431Y-107690807D01*
X128795743Y-107660845D01*
X128662905Y-107635575D01*
X128567113Y-107616935D01*
X128518563Y-107606865D01*
X128515873Y-107606221D01*
X128495088Y-107599592D01*
X128479466Y-107586159D01*
X128468270Y-107558554D01*
X128460762Y-107509407D01*
X128456205Y-107431347D01*
X128453863Y-107317006D01*
X128452998Y-107159014D01*
X128452874Y-106950000D01*
X128452874Y-106923738D01*
X128453045Y-106720825D01*
X128454039Y-106568105D01*
X128456593Y-106458208D01*
X128461445Y-106383765D01*
X128469331Y-106337406D01*
X128480988Y-106311761D01*
X128497153Y-106299461D01*
X128518563Y-106293135D01*
X128519332Y-106292953D01*
X128569663Y-106282559D01*
X128666888Y-106263661D01*
X128800810Y-106238198D01*
X128961235Y-106208110D01*
X129137967Y-106175336D01*
X129152428Y-106172663D01*
X129323959Y-106139990D01*
X129474625Y-106109587D01*
X129595267Y-106083432D01*
X129676729Y-106063504D01*
X129709852Y-106051780D01*
X129709905Y-106051718D01*
X129728229Y-106014771D01*
X129758677Y-105938943D01*
X129794685Y-105840575D01*
X129796640Y-105835035D01*
X129844170Y-105709276D01*
X129903783Y-105562989D01*
X129963056Y-105426707D01*
X130064765Y-105202610D01*
X129725897Y-104706382D01*
X129702063Y-104671430D01*
X129600755Y-104521720D01*
X129511575Y-104388133D01*
X129439773Y-104278657D01*
X129390603Y-104201282D01*
X129369317Y-104163996D01*
X129374196Y-104138448D01*
X129412002Y-104080445D01*
X129486870Y-103990805D01*
X129600903Y-103867043D01*
X129756205Y-103706672D01*
X129770341Y-103692321D01*
X129896999Y-103565067D01*
X130011745Y-103452031D01*
X130107391Y-103360133D01*
X130176746Y-103296293D01*
X130212620Y-103267430D01*
X130212794Y-103267336D01*
X130240106Y-103263669D01*
X130284408Y-103277192D01*
X130351761Y-103311316D01*
X130448226Y-103369452D01*
X130579863Y-103455012D01*
X130752734Y-103571406D01*
X130781912Y-103591241D01*
X130929726Y-103691555D01*
X131060577Y-103780077D01*
X131166643Y-103851535D01*
X131240102Y-103900657D01*
X131273130Y-103922169D01*
X131280126Y-103923792D01*
X131332326Y-103913613D01*
X131417561Y-103883121D01*
X131521291Y-103837288D01*
X131656951Y-103775000D01*
X131817921Y-103705452D01*
X131963621Y-103646391D01*
X132001333Y-103631748D01*
X132097622Y-103593400D01*
X132164704Y-103565230D01*
X132189885Y-103552503D01*
X132191767Y-103538455D01*
X132202651Y-103475319D01*
X132221449Y-103371981D01*
X132246115Y-103239191D01*
X132274604Y-103087703D01*
X132304873Y-102928268D01*
X132334875Y-102771639D01*
X132362566Y-102628567D01*
X132385900Y-102509805D01*
X132402833Y-102426104D01*
X132411320Y-102388218D01*
X132413713Y-102381937D01*
X132426619Y-102366627D01*
X132454096Y-102355237D01*
X132503446Y-102347197D01*
X132581973Y-102341936D01*
X132696980Y-102338884D01*
X132855770Y-102337471D01*
X133065645Y-102337127D01*
X133703906Y-102337127D01*
X133734160Y-102490402D01*
G36*
X138395372Y-106606037D02*
G01*
X138355504Y-106671023D01*
X138272734Y-106722237D01*
X138255669Y-106727496D01*
X138168724Y-106784097D01*
X138121758Y-106869406D01*
X138119741Y-106967359D01*
X138167644Y-107061894D01*
X138179998Y-107076007D01*
X138233683Y-107123203D01*
X138280488Y-107130997D01*
X138326446Y-107095294D01*
X138377588Y-107011997D01*
X138439948Y-106877012D01*
X138443897Y-106867882D01*
X138513772Y-106718031D01*
X138575672Y-106615684D01*
X138637476Y-106552680D01*
X138707062Y-106520862D01*
X138792308Y-106512069D01*
X138886816Y-106523591D01*
X139007785Y-106581772D01*
X139094688Y-106684125D01*
X139120778Y-106758157D01*
X139135055Y-106862633D01*
X139132006Y-106964083D01*
X139110467Y-107036528D01*
X139105104Y-107044223D01*
X139067632Y-107064659D01*
X139001591Y-107050478D01*
X138949753Y-107025839D01*
X138928172Y-106986330D01*
X138929246Y-106911398D01*
X138923055Y-106807370D01*
X138880311Y-106739395D01*
X138801189Y-106716437D01*
X138798916Y-106716458D01*
X138752986Y-106730371D01*
X138710845Y-106777697D01*
X138662272Y-106869713D01*
X138603790Y-106994849D01*
X138571975Y-107077732D01*
X138574025Y-107125580D01*
X138616051Y-107147937D01*
X138704162Y-107154351D01*
X138844469Y-107154368D01*
X138931081Y-107155083D01*
X139038041Y-107158365D01*
X139111250Y-107163700D01*
X139138391Y-107170415D01*
X139138206Y-107172210D01*
X139123498Y-107211018D01*
X139092456Y-107275291D01*
X139046521Y-107364120D01*
X138632628Y-107353564D01*
X138605179Y-107352829D01*
X138412517Y-107344445D01*
X138267309Y-107329634D01*
X138159887Y-107305371D01*
X138080584Y-107268636D01*
X138019730Y-107216403D01*
X137967658Y-107145652D01*
X137966842Y-107144343D01*
X137924360Y-107029944D01*
X137917184Y-106897635D01*
X137943674Y-106770005D01*
X138002191Y-106669645D01*
X138047784Y-106625495D01*
X138184072Y-106540653D01*
X138332658Y-106512069D01*
X138434882Y-106512069D01*
X138395372Y-106606037D01*
G37*
X138395372Y-106606037D02*
X138355504Y-106671023D01*
X138272734Y-106722237D01*
X138255669Y-106727496D01*
X138168724Y-106784097D01*
X138121758Y-106869406D01*
X138119741Y-106967359D01*
X138167644Y-107061894D01*
X138179998Y-107076007D01*
X138233683Y-107123203D01*
X138280488Y-107130997D01*
X138326446Y-107095294D01*
X138377588Y-107011997D01*
X138439948Y-106877012D01*
X138443897Y-106867882D01*
X138513772Y-106718031D01*
X138575672Y-106615684D01*
X138637476Y-106552680D01*
X138707062Y-106520862D01*
X138792308Y-106512069D01*
X138886816Y-106523591D01*
X139007785Y-106581772D01*
X139094688Y-106684125D01*
X139120778Y-106758157D01*
X139135055Y-106862633D01*
X139132006Y-106964083D01*
X139110467Y-107036528D01*
X139105104Y-107044223D01*
X139067632Y-107064659D01*
X139001591Y-107050478D01*
X138949753Y-107025839D01*
X138928172Y-106986330D01*
X138929246Y-106911398D01*
X138923055Y-106807370D01*
X138880311Y-106739395D01*
X138801189Y-106716437D01*
X138798916Y-106716458D01*
X138752986Y-106730371D01*
X138710845Y-106777697D01*
X138662272Y-106869713D01*
X138603790Y-106994849D01*
X138571975Y-107077732D01*
X138574025Y-107125580D01*
X138616051Y-107147937D01*
X138704162Y-107154351D01*
X138844469Y-107154368D01*
X138931081Y-107155083D01*
X139038041Y-107158365D01*
X139111250Y-107163700D01*
X139138391Y-107170415D01*
X139138206Y-107172210D01*
X139123498Y-107211018D01*
X139092456Y-107275291D01*
X139046521Y-107364120D01*
X138632628Y-107353564D01*
X138605179Y-107352829D01*
X138412517Y-107344445D01*
X138267309Y-107329634D01*
X138159887Y-107305371D01*
X138080584Y-107268636D01*
X138019730Y-107216403D01*
X137967658Y-107145652D01*
X137966842Y-107144343D01*
X137924360Y-107029944D01*
X137917184Y-106897635D01*
X137943674Y-106770005D01*
X138002191Y-106669645D01*
X138047784Y-106625495D01*
X138184072Y-106540653D01*
X138332658Y-106512069D01*
X138434882Y-106512069D01*
X138395372Y-106606037D01*
G36*
X138527744Y-100381062D02*
G01*
X138668918Y-100382645D01*
X138767285Y-100388084D01*
X138835990Y-100399357D01*
X138888181Y-100418439D01*
X138937004Y-100447306D01*
X138947135Y-100454408D01*
X139027012Y-100529556D01*
X139087253Y-100615180D01*
X139106802Y-100659148D01*
X139139408Y-100817139D01*
X139118317Y-100973387D01*
X139046249Y-101117382D01*
X138925922Y-101238615D01*
X138909803Y-101248850D01*
X138816205Y-101282153D01*
X138685879Y-101304595D01*
X138535371Y-101315484D01*
X138381227Y-101314129D01*
X138239992Y-101299839D01*
X138128213Y-101271925D01*
X138053766Y-101236051D01*
X137937968Y-101135061D01*
X137866015Y-100998221D01*
X137842811Y-100841076D01*
X138116552Y-100841076D01*
X138118807Y-100868368D01*
X138160160Y-100944824D01*
X138252900Y-100995350D01*
X138396147Y-101019616D01*
X138589020Y-101017294D01*
X138601433Y-101016361D01*
X138707857Y-101002758D01*
X138775346Y-100978535D01*
X138821584Y-100937635D01*
X138864895Y-100869059D01*
X138867172Y-100801236D01*
X138817241Y-100731379D01*
X138804102Y-100719229D01*
X138764785Y-100695425D01*
X138707674Y-100681372D01*
X138619256Y-100674687D01*
X138486019Y-100672989D01*
X138361222Y-100675899D01*
X138242326Y-100690418D01*
X138167184Y-100720390D01*
X138127893Y-100769411D01*
X138116552Y-100841076D01*
X137842811Y-100841076D01*
X137841281Y-100830717D01*
X137842619Y-100785981D01*
X137870008Y-100654242D01*
X137939007Y-100546032D01*
X138057864Y-100446724D01*
X138066681Y-100440816D01*
X138114108Y-100414079D01*
X138167714Y-100396688D01*
X138240549Y-100386688D01*
X138345659Y-100382122D01*
X138486019Y-100381107D01*
X138496092Y-100381035D01*
X138527744Y-100381062D01*
G37*
X138527744Y-100381062D02*
X138668918Y-100382645D01*
X138767285Y-100388084D01*
X138835990Y-100399357D01*
X138888181Y-100418439D01*
X138937004Y-100447306D01*
X138947135Y-100454408D01*
X139027012Y-100529556D01*
X139087253Y-100615180D01*
X139106802Y-100659148D01*
X139139408Y-100817139D01*
X139118317Y-100973387D01*
X139046249Y-101117382D01*
X138925922Y-101238615D01*
X138909803Y-101248850D01*
X138816205Y-101282153D01*
X138685879Y-101304595D01*
X138535371Y-101315484D01*
X138381227Y-101314129D01*
X138239992Y-101299839D01*
X138128213Y-101271925D01*
X138053766Y-101236051D01*
X137937968Y-101135061D01*
X137866015Y-100998221D01*
X137842811Y-100841076D01*
X138116552Y-100841076D01*
X138118807Y-100868368D01*
X138160160Y-100944824D01*
X138252900Y-100995350D01*
X138396147Y-101019616D01*
X138589020Y-101017294D01*
X138601433Y-101016361D01*
X138707857Y-101002758D01*
X138775346Y-100978535D01*
X138821584Y-100937635D01*
X138864895Y-100869059D01*
X138867172Y-100801236D01*
X138817241Y-100731379D01*
X138804102Y-100719229D01*
X138764785Y-100695425D01*
X138707674Y-100681372D01*
X138619256Y-100674687D01*
X138486019Y-100672989D01*
X138361222Y-100675899D01*
X138242326Y-100690418D01*
X138167184Y-100720390D01*
X138127893Y-100769411D01*
X138116552Y-100841076D01*
X137842811Y-100841076D01*
X137841281Y-100830717D01*
X137842619Y-100785981D01*
X137870008Y-100654242D01*
X137939007Y-100546032D01*
X138057864Y-100446724D01*
X138066681Y-100440816D01*
X138114108Y-100414079D01*
X138167714Y-100396688D01*
X138240549Y-100386688D01*
X138345659Y-100382122D01*
X138486019Y-100381107D01*
X138496092Y-100381035D01*
X138527744Y-100381062D01*
G36*
X139028603Y-107509208D02*
G01*
X139111103Y-107516912D01*
X139138391Y-107529534D01*
X139130220Y-107567733D01*
X139105463Y-107632626D01*
X139098223Y-107647906D01*
X139081835Y-107671773D01*
X139054893Y-107688231D01*
X139007833Y-107698995D01*
X138931088Y-107705781D01*
X138815095Y-107710307D01*
X138650287Y-107714287D01*
X138602112Y-107715378D01*
X138449960Y-107719593D01*
X138343476Y-107725064D01*
X138272565Y-107733446D01*
X138227129Y-107746394D01*
X138197072Y-107765561D01*
X138172296Y-107792602D01*
X138128861Y-107872663D01*
X138120498Y-107971154D01*
X138153734Y-108059281D01*
X138222548Y-108122686D01*
X138320920Y-108147012D01*
X138347658Y-108147689D01*
X138396065Y-108160976D01*
X138403450Y-108200204D01*
X138374624Y-108277017D01*
X138365378Y-108294808D01*
X138311006Y-108342891D01*
X138230161Y-108343843D01*
X138118352Y-108298032D01*
X138057419Y-108256010D01*
X137970859Y-108148565D01*
X137921920Y-108015943D01*
X137915260Y-107874133D01*
X137955536Y-107739128D01*
X137960638Y-107729910D01*
X138019080Y-107654619D01*
X138094215Y-107587302D01*
X138111196Y-107575561D01*
X138150825Y-107553117D01*
X138197858Y-107537082D01*
X138262492Y-107526055D01*
X138354923Y-107518635D01*
X138485349Y-107513421D01*
X138663965Y-107509011D01*
X138694162Y-107508386D01*
X138889941Y-107506380D01*
X139028603Y-107509208D01*
G37*
X139028603Y-107509208D02*
X139111103Y-107516912D01*
X139138391Y-107529534D01*
X139130220Y-107567733D01*
X139105463Y-107632626D01*
X139098223Y-107647906D01*
X139081835Y-107671773D01*
X139054893Y-107688231D01*
X139007833Y-107698995D01*
X138931088Y-107705781D01*
X138815095Y-107710307D01*
X138650287Y-107714287D01*
X138602112Y-107715378D01*
X138449960Y-107719593D01*
X138343476Y-107725064D01*
X138272565Y-107733446D01*
X138227129Y-107746394D01*
X138197072Y-107765561D01*
X138172296Y-107792602D01*
X138128861Y-107872663D01*
X138120498Y-107971154D01*
X138153734Y-108059281D01*
X138222548Y-108122686D01*
X138320920Y-108147012D01*
X138347658Y-108147689D01*
X138396065Y-108160976D01*
X138403450Y-108200204D01*
X138374624Y-108277017D01*
X138365378Y-108294808D01*
X138311006Y-108342891D01*
X138230161Y-108343843D01*
X138118352Y-108298032D01*
X138057419Y-108256010D01*
X137970859Y-108148565D01*
X137921920Y-108015943D01*
X137915260Y-107874133D01*
X137955536Y-107739128D01*
X137960638Y-107729910D01*
X138019080Y-107654619D01*
X138094215Y-107587302D01*
X138111196Y-107575561D01*
X138150825Y-107553117D01*
X138197858Y-107537082D01*
X138262492Y-107526055D01*
X138354923Y-107518635D01*
X138485349Y-107513421D01*
X138663965Y-107509011D01*
X138694162Y-107508386D01*
X138889941Y-107506380D01*
X139028603Y-107509208D01*
G36*
X138357920Y-105490231D02*
G01*
X138565083Y-105490623D01*
X138751432Y-105491671D01*
X138909453Y-105493278D01*
X139031630Y-105495345D01*
X139110448Y-105497775D01*
X139138391Y-105500471D01*
X139138297Y-105501525D01*
X139128144Y-105537353D01*
X139106339Y-105602655D01*
X139074288Y-105694598D01*
X138662991Y-105694598D01*
X138501385Y-105695182D01*
X138384177Y-105697896D01*
X138304415Y-105704142D01*
X138251531Y-105715320D01*
X138214957Y-105732832D01*
X138184123Y-105758078D01*
X138167725Y-105775290D01*
X138122307Y-105868364D01*
X138126328Y-105970949D01*
X138180032Y-106064957D01*
X138193359Y-106078642D01*
X138221032Y-106100561D01*
X138257614Y-106115560D01*
X138313000Y-106124947D01*
X138397088Y-106130032D01*
X138519773Y-106132123D01*
X138690951Y-106132529D01*
X138777769Y-106132724D01*
X138920565Y-106133990D01*
X139034923Y-106136239D01*
X139110860Y-106139242D01*
X139138391Y-106142770D01*
X139138297Y-106143824D01*
X139128144Y-106179652D01*
X139106339Y-106244954D01*
X139074288Y-106336897D01*
X138661109Y-106336851D01*
X138624326Y-106336782D01*
X138432580Y-106332919D01*
X138287586Y-106321050D01*
X138179510Y-106298275D01*
X138098519Y-106261693D01*
X138034778Y-106208405D01*
X137978455Y-106135510D01*
X137943199Y-106064414D01*
X137915946Y-105950745D01*
X137914398Y-105838940D01*
X137940910Y-105752989D01*
X137944571Y-105746527D01*
X137944179Y-105726599D01*
X137913506Y-105712981D01*
X137843188Y-105703154D01*
X137723857Y-105694598D01*
X137478973Y-105680000D01*
X137518997Y-105585115D01*
X137559020Y-105490230D01*
X138348706Y-105490230D01*
X138357920Y-105490231D01*
G37*
X138357920Y-105490231D02*
X138565083Y-105490623D01*
X138751432Y-105491671D01*
X138909453Y-105493278D01*
X139031630Y-105495345D01*
X139110448Y-105497775D01*
X139138391Y-105500471D01*
X139138297Y-105501525D01*
X139128144Y-105537353D01*
X139106339Y-105602655D01*
X139074288Y-105694598D01*
X138662991Y-105694598D01*
X138501385Y-105695182D01*
X138384177Y-105697896D01*
X138304415Y-105704142D01*
X138251531Y-105715320D01*
X138214957Y-105732832D01*
X138184123Y-105758078D01*
X138167725Y-105775290D01*
X138122307Y-105868364D01*
X138126328Y-105970949D01*
X138180032Y-106064957D01*
X138193359Y-106078642D01*
X138221032Y-106100561D01*
X138257614Y-106115560D01*
X138313000Y-106124947D01*
X138397088Y-106130032D01*
X138519773Y-106132123D01*
X138690951Y-106132529D01*
X138777769Y-106132724D01*
X138920565Y-106133990D01*
X139034923Y-106136239D01*
X139110860Y-106139242D01*
X139138391Y-106142770D01*
X139138297Y-106143824D01*
X139128144Y-106179652D01*
X139106339Y-106244954D01*
X139074288Y-106336897D01*
X138661109Y-106336851D01*
X138624326Y-106336782D01*
X138432580Y-106332919D01*
X138287586Y-106321050D01*
X138179510Y-106298275D01*
X138098519Y-106261693D01*
X138034778Y-106208405D01*
X137978455Y-106135510D01*
X137943199Y-106064414D01*
X137915946Y-105950745D01*
X137914398Y-105838940D01*
X137940910Y-105752989D01*
X137944571Y-105746527D01*
X137944179Y-105726599D01*
X137913506Y-105712981D01*
X137843188Y-105703154D01*
X137723857Y-105694598D01*
X137478973Y-105680000D01*
X137518997Y-105585115D01*
X137559020Y-105490230D01*
X138348706Y-105490230D01*
X138357920Y-105490231D01*
G36*
X138634639Y-102609832D02*
G01*
X138681526Y-102615074D01*
X138848409Y-102654132D01*
X138975326Y-102724710D01*
X139072602Y-102832045D01*
X139076616Y-102838112D01*
X139133706Y-102974560D01*
X139138786Y-103117027D01*
X139095311Y-103254304D01*
X139006734Y-103375181D01*
X138876509Y-103468448D01*
X138873369Y-103470014D01*
X138792501Y-103501007D01*
X138700593Y-103523708D01*
X138614311Y-103535750D01*
X138550321Y-103534763D01*
X138525287Y-103518377D01*
X138526809Y-103503821D01*
X138554496Y-103434208D01*
X138605409Y-103355303D01*
X138664343Y-103288180D01*
X138716094Y-103253913D01*
X138786291Y-103218293D01*
X138850138Y-103145289D01*
X138875632Y-103060515D01*
X138868261Y-103029442D01*
X138831154Y-102968109D01*
X138779644Y-102914685D01*
X138732913Y-102891839D01*
X138732740Y-102891846D01*
X138711280Y-102917767D01*
X138672565Y-102986873D01*
X138622037Y-103088751D01*
X138565134Y-103212989D01*
X138564833Y-103213672D01*
X138504738Y-103348645D01*
X138461440Y-103439116D01*
X138428179Y-103493961D01*
X138398194Y-103522056D01*
X138364726Y-103532276D01*
X138321015Y-103533497D01*
X138216265Y-103522749D01*
X138073949Y-103469611D01*
X137962111Y-103380658D01*
X137884676Y-103265552D01*
X137845568Y-103133955D01*
X137847807Y-103035323D01*
X138119439Y-103035323D01*
X138123251Y-103119960D01*
X138175121Y-103198553D01*
X138210965Y-103229445D01*
X138238244Y-103236781D01*
X138264265Y-103207030D01*
X138303256Y-103132899D01*
X138304359Y-103130726D01*
X138346009Y-103043267D01*
X138379235Y-102965026D01*
X138393291Y-102915389D01*
X138374503Y-102895479D01*
X138310124Y-102891839D01*
X138230001Y-102906965D01*
X138157189Y-102959403D01*
X138119439Y-103035323D01*
X137847807Y-103035323D01*
X137848711Y-102995528D01*
X137898030Y-102859935D01*
X137997447Y-102736836D01*
X138095829Y-102668634D01*
X138236261Y-102619644D01*
X138310124Y-102611678D01*
X138413329Y-102600548D01*
X138634639Y-102609832D01*
G37*
X138634639Y-102609832D02*
X138681526Y-102615074D01*
X138848409Y-102654132D01*
X138975326Y-102724710D01*
X139072602Y-102832045D01*
X139076616Y-102838112D01*
X139133706Y-102974560D01*
X139138786Y-103117027D01*
X139095311Y-103254304D01*
X139006734Y-103375181D01*
X138876509Y-103468448D01*
X138873369Y-103470014D01*
X138792501Y-103501007D01*
X138700593Y-103523708D01*
X138614311Y-103535750D01*
X138550321Y-103534763D01*
X138525287Y-103518377D01*
X138526809Y-103503821D01*
X138554496Y-103434208D01*
X138605409Y-103355303D01*
X138664343Y-103288180D01*
X138716094Y-103253913D01*
X138786291Y-103218293D01*
X138850138Y-103145289D01*
X138875632Y-103060515D01*
X138868261Y-103029442D01*
X138831154Y-102968109D01*
X138779644Y-102914685D01*
X138732913Y-102891839D01*
X138732740Y-102891846D01*
X138711280Y-102917767D01*
X138672565Y-102986873D01*
X138622037Y-103088751D01*
X138565134Y-103212989D01*
X138564833Y-103213672D01*
X138504738Y-103348645D01*
X138461440Y-103439116D01*
X138428179Y-103493961D01*
X138398194Y-103522056D01*
X138364726Y-103532276D01*
X138321015Y-103533497D01*
X138216265Y-103522749D01*
X138073949Y-103469611D01*
X137962111Y-103380658D01*
X137884676Y-103265552D01*
X137845568Y-103133955D01*
X137847807Y-103035323D01*
X138119439Y-103035323D01*
X138123251Y-103119960D01*
X138175121Y-103198553D01*
X138210965Y-103229445D01*
X138238244Y-103236781D01*
X138264265Y-103207030D01*
X138303256Y-103132899D01*
X138304359Y-103130726D01*
X138346009Y-103043267D01*
X138379235Y-102965026D01*
X138393291Y-102915389D01*
X138374503Y-102895479D01*
X138310124Y-102891839D01*
X138230001Y-102906965D01*
X138157189Y-102959403D01*
X138119439Y-103035323D01*
X137847807Y-103035323D01*
X137848711Y-102995528D01*
X137898030Y-102859935D01*
X137997447Y-102736836D01*
X138095829Y-102668634D01*
X138236261Y-102619644D01*
X138310124Y-102611678D01*
X138413329Y-102600548D01*
X138634639Y-102609832D01*
G36*
X138867782Y-110718043D02*
G01*
X138980148Y-110766963D01*
X139071690Y-110859203D01*
X139110658Y-110933890D01*
X139137944Y-111078168D01*
X139134263Y-111158344D01*
X139114360Y-111232565D01*
X139072598Y-111261040D01*
X139003820Y-111250392D01*
X138994726Y-111247295D01*
X138946498Y-111222732D01*
X138928245Y-111181835D01*
X138929466Y-111103921D01*
X138931126Y-111048909D01*
X138916881Y-110984541D01*
X138874292Y-110940439D01*
X138821857Y-110915320D01*
X138766929Y-110912519D01*
X138766608Y-110912648D01*
X138736928Y-110945215D01*
X138693735Y-111014917D01*
X138645461Y-111105102D01*
X138600539Y-111199117D01*
X138567402Y-111280311D01*
X138554483Y-111332032D01*
X138567134Y-111339726D01*
X138626668Y-111349412D01*
X138723887Y-111356046D01*
X138846437Y-111358506D01*
X138931263Y-111359078D01*
X139038094Y-111361775D01*
X139111257Y-111366179D01*
X139138391Y-111371730D01*
X139129272Y-111400746D01*
X139104509Y-111459316D01*
X139070627Y-111533678D01*
X138635933Y-111533678D01*
X138524508Y-111533203D01*
X138355301Y-111528707D01*
X138229769Y-111517253D01*
X138138363Y-111496172D01*
X138071532Y-111462794D01*
X138019726Y-111414450D01*
X137973393Y-111348469D01*
X137935156Y-111264406D01*
X137912184Y-111109193D01*
X137914810Y-111038372D01*
X137930702Y-110975806D01*
X137970322Y-110917554D01*
X138044076Y-110842582D01*
X138096163Y-110794367D01*
X138163786Y-110744142D01*
X138227168Y-110721490D01*
X138307584Y-110716207D01*
X138439201Y-110716207D01*
X138392785Y-110805965D01*
X138336225Y-110877096D01*
X138260040Y-110925817D01*
X138239326Y-110934186D01*
X138159041Y-110997944D01*
X138118784Y-111086530D01*
X138122702Y-111183127D01*
X138174943Y-111270920D01*
X138217370Y-111308064D01*
X138271647Y-111329700D01*
X138319954Y-111306539D01*
X138368545Y-111234521D01*
X138423677Y-111109590D01*
X138431292Y-111090632D01*
X138481125Y-110976895D01*
X138530265Y-110879294D01*
X138569080Y-110817197D01*
X138638411Y-110755001D01*
X138749051Y-110713654D01*
X138867782Y-110718043D01*
G37*
X138867782Y-110718043D02*
X138980148Y-110766963D01*
X139071690Y-110859203D01*
X139110658Y-110933890D01*
X139137944Y-111078168D01*
X139134263Y-111158344D01*
X139114360Y-111232565D01*
X139072598Y-111261040D01*
X139003820Y-111250392D01*
X138994726Y-111247295D01*
X138946498Y-111222732D01*
X138928245Y-111181835D01*
X138929466Y-111103921D01*
X138931126Y-111048909D01*
X138916881Y-110984541D01*
X138874292Y-110940439D01*
X138821857Y-110915320D01*
X138766929Y-110912519D01*
X138766608Y-110912648D01*
X138736928Y-110945215D01*
X138693735Y-111014917D01*
X138645461Y-111105102D01*
X138600539Y-111199117D01*
X138567402Y-111280311D01*
X138554483Y-111332032D01*
X138567134Y-111339726D01*
X138626668Y-111349412D01*
X138723887Y-111356046D01*
X138846437Y-111358506D01*
X138931263Y-111359078D01*
X139038094Y-111361775D01*
X139111257Y-111366179D01*
X139138391Y-111371730D01*
X139129272Y-111400746D01*
X139104509Y-111459316D01*
X139070627Y-111533678D01*
X138635933Y-111533678D01*
X138524508Y-111533203D01*
X138355301Y-111528707D01*
X138229769Y-111517253D01*
X138138363Y-111496172D01*
X138071532Y-111462794D01*
X138019726Y-111414450D01*
X137973393Y-111348469D01*
X137935156Y-111264406D01*
X137912184Y-111109193D01*
X137914810Y-111038372D01*
X137930702Y-110975806D01*
X137970322Y-110917554D01*
X138044076Y-110842582D01*
X138096163Y-110794367D01*
X138163786Y-110744142D01*
X138227168Y-110721490D01*
X138307584Y-110716207D01*
X138439201Y-110716207D01*
X138392785Y-110805965D01*
X138336225Y-110877096D01*
X138260040Y-110925817D01*
X138239326Y-110934186D01*
X138159041Y-110997944D01*
X138118784Y-111086530D01*
X138122702Y-111183127D01*
X138174943Y-111270920D01*
X138217370Y-111308064D01*
X138271647Y-111329700D01*
X138319954Y-111306539D01*
X138368545Y-111234521D01*
X138423677Y-111109590D01*
X138431292Y-111090632D01*
X138481125Y-110976895D01*
X138530265Y-110879294D01*
X138569080Y-110817197D01*
X138638411Y-110755001D01*
X138749051Y-110713654D01*
X138867782Y-110718043D01*
G36*
X138608946Y-112702256D02*
G01*
X138762254Y-112709388D01*
X138874441Y-112728052D01*
X138957554Y-112762463D01*
X139023641Y-112816838D01*
X139084747Y-112895390D01*
X139112535Y-112945370D01*
X139131251Y-113025487D01*
X139129774Y-113138030D01*
X139123845Y-113200950D01*
X139105742Y-113276847D01*
X139066391Y-113337513D01*
X138993066Y-113408088D01*
X138982356Y-113417518D01*
X138899938Y-113480966D01*
X138828156Y-113511238D01*
X138743034Y-113518966D01*
X138617946Y-113518966D01*
X138650940Y-113431553D01*
X138689509Y-113367825D01*
X138780008Y-113312433D01*
X138808983Y-113300869D01*
X138891041Y-113236212D01*
X138932347Y-113148196D01*
X138928633Y-113052363D01*
X138875632Y-112964253D01*
X138842582Y-112933972D01*
X138792720Y-112906511D01*
X138747416Y-112915101D01*
X138700790Y-112964537D01*
X138646958Y-113059611D01*
X138580039Y-113205115D01*
X138449056Y-113504368D01*
X138319298Y-113512309D01*
X138222255Y-113508804D01*
X138099617Y-113464664D01*
X138032034Y-113408950D01*
X137956540Y-113293439D01*
X137918403Y-113156412D01*
X137918663Y-113144216D01*
X138116250Y-113144216D01*
X138162000Y-113249711D01*
X138184876Y-113278947D01*
X138236649Y-113314348D01*
X138287815Y-113299547D01*
X138342442Y-113232203D01*
X138404597Y-113109973D01*
X138413601Y-113089747D01*
X138455493Y-112993030D01*
X138484958Y-112920666D01*
X138496092Y-112887039D01*
X138487896Y-112881944D01*
X138437853Y-112879899D01*
X138357414Y-112887188D01*
X138278753Y-112905548D01*
X138179651Y-112962812D01*
X138123808Y-113045476D01*
X138116250Y-113144216D01*
X137918663Y-113144216D01*
X137921422Y-113014763D01*
X137969393Y-112885383D01*
X137987813Y-112856901D01*
X138044811Y-112791572D01*
X138116916Y-112746894D01*
X138214853Y-112719359D01*
X138349351Y-112705459D01*
X138437853Y-112703622D01*
X138531136Y-112701687D01*
X138608946Y-112702256D01*
G37*
X138608946Y-112702256D02*
X138762254Y-112709388D01*
X138874441Y-112728052D01*
X138957554Y-112762463D01*
X139023641Y-112816838D01*
X139084747Y-112895390D01*
X139112535Y-112945370D01*
X139131251Y-113025487D01*
X139129774Y-113138030D01*
X139123845Y-113200950D01*
X139105742Y-113276847D01*
X139066391Y-113337513D01*
X138993066Y-113408088D01*
X138982356Y-113417518D01*
X138899938Y-113480966D01*
X138828156Y-113511238D01*
X138743034Y-113518966D01*
X138617946Y-113518966D01*
X138650940Y-113431553D01*
X138689509Y-113367825D01*
X138780008Y-113312433D01*
X138808983Y-113300869D01*
X138891041Y-113236212D01*
X138932347Y-113148196D01*
X138928633Y-113052363D01*
X138875632Y-112964253D01*
X138842582Y-112933972D01*
X138792720Y-112906511D01*
X138747416Y-112915101D01*
X138700790Y-112964537D01*
X138646958Y-113059611D01*
X138580039Y-113205115D01*
X138449056Y-113504368D01*
X138319298Y-113512309D01*
X138222255Y-113508804D01*
X138099617Y-113464664D01*
X138032034Y-113408950D01*
X137956540Y-113293439D01*
X137918403Y-113156412D01*
X137918663Y-113144216D01*
X138116250Y-113144216D01*
X138162000Y-113249711D01*
X138184876Y-113278947D01*
X138236649Y-113314348D01*
X138287815Y-113299547D01*
X138342442Y-113232203D01*
X138404597Y-113109973D01*
X138413601Y-113089747D01*
X138455493Y-112993030D01*
X138484958Y-112920666D01*
X138496092Y-112887039D01*
X138487896Y-112881944D01*
X138437853Y-112879899D01*
X138357414Y-112887188D01*
X138278753Y-112905548D01*
X138179651Y-112962812D01*
X138123808Y-113045476D01*
X138116250Y-113144216D01*
X137918663Y-113144216D01*
X137921422Y-113014763D01*
X137969393Y-112885383D01*
X137987813Y-112856901D01*
X138044811Y-112791572D01*
X138116916Y-112746894D01*
X138214853Y-112719359D01*
X138349351Y-112705459D01*
X138437853Y-112703622D01*
X138531136Y-112701687D01*
X138608946Y-112702256D01*
%TD*%
M02*
